<?xml version="1.0" encoding="UTF-8"?>
<svg version="1.1" xmlns="http://www.w3.org/2000/svg" width="512" height="512">
<path d="M0 0 C5.02006225 1.9280847 8.53195846 6.00653374 12.3125 9.6875 C13.06595703 10.38294922 13.81941406 11.07839844 14.59570312 11.79492188 C15.30275391 12.48521484 16.00980469 13.17550781 16.73828125 13.88671875 C17.38837158 14.50764404 18.03846191 15.12856934 18.70825195 15.76831055 C20.668228 19.1544646 19.90553847 21.25546284 19 25 C18.06378928 27.72871632 16.94555783 30.35378724 15.78125 32.9921875 C15.45176865 33.75811218 15.12228729 34.52403687 14.78282166 35.31317139 C14.06959203 36.96906983 13.35261873 38.62335983 12.6322937 40.27618408 C10.67643124 44.76523714 8.74878887 49.26642781 6.81640625 53.765625 C6.21554955 55.16133224 6.21554955 55.16133224 5.60255432 56.5852356 C1.81861999 65.38659206 -1.86025835 74.22982554 -5.5145874 83.08563232 C-7.26041501 87.31623152 -9.01104645 91.54484127 -10.76171875 95.7734375 C-11.28007294 97.02557541 -11.28007294 97.02557541 -11.80889893 98.30300903 C-15.45947109 107.11680558 -19.1266657 115.92358084 -22.81564331 124.72137451 C-23.51488715 126.39043065 -24.21277133 128.06005715 -24.90921021 129.73028564 C-25.87066372 132.03530544 -26.8370107 134.3382122 -27.8046875 136.640625 C-28.22540276 137.65329941 -28.22540276 137.65329941 -28.65461731 138.68643188 C-32.74479224 148.37239612 -32.74479224 148.37239612 -36 150 C-38.625 150.5 -38.625 150.5 -42 150 C-48.31098082 145.45991791 -53.74457306 139.42954659 -59.2421875 133.9609375 C-60.09177032 133.11705475 -60.94135315 132.273172 -61.81668091 131.40371704 C-63.59792186 129.63186366 -65.37775893 127.85859792 -67.15625 126.08398438 C-69.88094549 123.36907587 -72.61612256 120.66501446 -75.3515625 117.9609375 C-77.08659397 116.23242953 -78.82099154 114.50328499 -80.5546875 112.7734375 C-81.37234589 111.96812592 -82.19000427 111.16281433 -83.03244019 110.33309937 C-84.16469528 109.19634262 -84.16469528 109.19634262 -85.31982422 108.03662109 C-85.98408417 107.37600677 -86.64834412 106.71539246 -87.33273315 106.03475952 C-89.98742598 102.79492931 -90.94295886 99.96969943 -91.1875 95.8125 C-88.16464804 86.10755425 -77.32154402 78.16628063 -70.25 71.125 C-69.33089844 70.20203125 -68.41179687 69.2790625 -67.46484375 68.328125 C-66.57410156 67.43867188 -65.68335937 66.54921875 -64.765625 65.6328125 C-63.96930664 64.83762207 -63.17298828 64.04243164 -62.35253906 63.22314453 C-60 61 -60 61 -57.33886719 58.88232422 C-54.85524595 57.02440335 -54.85524595 57.02440335 -52.8125 54.25 C-52.214375 53.5075 -51.61625 52.765 -51 52 C-50.34 52 -49.68 52 -49 52 C-49 51.34 -49 50.68 -49 50 C-46.525071 47.44969246 -43.75012642 45.24644026 -41 43 C-40.0925 42.2575 -39.185 41.515 -38.25 40.75 C-35.06921597 39.03727014 -32.49707717 38.30966811 -29 37.5 C-22.51599996 35.98519653 -18.2151092 34.17831598 -14.56640625 28.4296875 C-11.91071822 24.08173139 -10.10502357 19.59008825 -8.375 14.8125 C-3.60503033 1.80251517 -3.60503033 1.80251517 0 0 Z " fill="#000000" transform="translate(112,326)"/>
<path d="M0 0 C5.69297285 4.72896278 10.92183981 9.80325267 16.125 15.0625 C16.91003906 15.85205078 17.69507813 16.64160156 18.50390625 17.45507812 C20.01150474 18.97157475 21.51814745 20.48902234 23.02368164 22.00756836 C25.34239735 24.34518897 27.66967108 26.67396266 30 29 C31.66666667 30.66666667 33.33333333 32.33333333 35 34 C33.58911589 37.30653354 31.94468631 39.1547817 29.1875 41.4375 C25.9676559 44.1633247 22.94559797 46.97479128 20 50 C19.195625 50.78375 18.39125 51.5675 17.5625 52.375 C15.65044581 54.33368966 13.92394476 56.27249391 12.1875 58.375 C9.35842653 61.72905618 6.21941326 64.53110068 2.88671875 67.375 C-0.32233864 70.13890864 -3.24218096 73.00699574 -5.8125 76.375 C-8.27706331 79.33247598 -11.00155386 81.67990331 -13.91796875 84.1796875 C-18.33344222 88.04012022 -22.36515032 92.18910842 -26.125 96.6875 C-28.50488706 99.5294396 -31.08678535 101.7000937 -34 104 C-34.598125 104.763125 -35.19625 105.52625 -35.8125 106.3125 C-38.30541461 109.37522366 -41.10013531 111.7356168 -44.1015625 114.28515625 C-46.35258021 116.31848294 -48.12665688 118.62229527 -50 121 C-50.66 121 -51.32 121 -52 121 C-52.268125 121.639375 -52.53625 122.27875 -52.8125 122.9375 C-54 125 -54 125 -57 126 C-57.268125 126.5775 -57.53625 127.155 -57.8125 127.75 C-59.2234265 130.42333442 -61.12214603 131.90399061 -63.46875 133.76171875 C-65.45768345 135.37011646 -67.22731568 137.15913551 -69 139 C-74.08867674 134.72103508 -78.95085175 130.28995328 -83.6875 125.625 C-84.33783203 125.00367188 -84.98816406 124.38234375 -85.65820312 123.7421875 C-90.68258757 118.78438511 -94.32860247 113.94939726 -95.53125 106.875 C-95.5209375 105.92625 -95.510625 104.9775 -95.5 104 C-95.5103125 103.05125 -95.520625 102.1025 -95.53125 101.125 C-94.03774492 92.33967599 -88.48327611 86.91305573 -82.3671875 80.90625 C-81.53414093 80.07411987 -80.70109436 79.24198975 -79.84280396 78.38464355 C-78.09085521 76.63870947 -76.33407564 74.89761085 -74.57275391 73.16113281 C-71.86621871 70.49133791 -69.17625778 67.80565409 -66.48828125 65.1171875 C-64.78219492 63.42092408 -63.07519569 61.72557823 -61.3671875 60.03125 C-60.55885468 59.22514282 -59.75052185 58.41903564 -58.91769409 57.58850098 C-58.16996735 56.85353394 -57.4222406 56.11856689 -56.65185547 55.36132812 C-55.99329559 54.71039185 -55.33473572 54.05945557 -54.65621948 53.38879395 C-53 52 -53 52 -51 52 C-51 51.34 -51 50.68 -51 50 C-49.59818711 48.83752102 -48.19255308 47.67938665 -46.76953125 46.54296875 C-44.86299245 44.88053425 -43.26795741 43.10994902 -41.625 41.1875 C-36.93763615 35.70688997 -31.9439736 30.65741806 -26.46484375 25.96875 C-20.87668893 21.10691912 -15.71158228 15.81912694 -10.5 10.5625 C-9.47679861 9.5342702 -8.45336267 8.50627374 -7.4296875 7.47851562 C-4.95042001 4.98835662 -2.47432462 2.49507167 0 0 Z M-0.59765625 20.8671875 C-1.64010498 21.8277002 -1.64010498 21.8277002 -2.70361328 22.80761719 C-3.4614209 23.53110352 -4.21922852 24.25458984 -5 25 C-5.82612793 25.7827832 -6.65225586 26.56556641 -7.50341797 27.37207031 C-10.17273091 29.93234025 -12.80779227 32.52410572 -15.4375 35.125 C-16.34693359 36.00542969 -17.25636719 36.88585937 -18.19335938 37.79296875 C-19.05638672 38.64761719 -19.91941406 39.50226563 -20.80859375 40.3828125 C-21.59032959 41.14996582 -22.37206543 41.91711914 -23.17749023 42.70751953 C-25.18942818 45.23827603 -25.76673455 46.79799208 -26 50 C-25.0785608 52.42304368 -25.0785608 52.42304368 -23 54 C-20.19424083 54.61789942 -20.19424083 54.61789942 -17 54 C-14.57077709 52.16766543 -12.61359466 50.45617092 -10.5078125 48.3046875 C-9.91700897 47.71962433 -9.32620544 47.13456116 -8.71749878 46.5317688 C-7.47485074 45.29319603 -6.23971705 44.04704421 -5.01171875 42.79394531 C-3.1310521 40.88115548 -1.22053766 39.00247412 0.6953125 37.125 C1.90036595 35.91598157 3.10355677 34.70510314 4.3046875 33.4921875 C4.87645721 32.93256317 5.44822693 32.37293884 6.037323 31.7963562 C8.64010738 29.09912263 9.93702736 27.47707621 10.43408203 23.71142578 C10.19449177 21.00993933 10.19449177 21.00993933 8.75 19.125 C4.87531044 16.63412814 2.37122861 18.11328948 -0.59765625 20.8671875 Z M-42.60668945 62.0390625 C-43.48722488 62.91997559 -44.36776031 63.80088867 -45.27497864 64.70849609 C-46.22135063 65.68040013 -47.16744506 66.65257452 -48.11328125 67.625 C-49.09153017 68.6125775 -50.07089126 69.59905449 -51.05131531 70.58447266 C-53.62544486 73.17766839 -56.18420572 75.78552709 -58.74005127 78.39672852 C-61.35208761 81.05996535 -63.97838367 83.70905679 -66.60351562 86.359375 C-71.74973739 91.55917766 -76.8798051 96.77455344 -82 102 C-81.34 103.65 -80.68 105.3 -80 107 C-75.60249328 106.49259538 -73.13051078 103.91706686 -70 101 C-70 100.34 -70 99.68 -70 99 C-69.360625 98.731875 -68.72125 98.46375 -68.0625 98.1875 C-65.66868314 97.11332248 -65.66868314 97.11332248 -65 94 C-63.67378291 93.3192868 -62.33890377 92.65540744 -61 92 C-59.36867729 90.55233614 -57.78719792 89.04724497 -56.25 87.5 C-55.45078125 86.7059375 -54.6515625 85.911875 -53.828125 85.09375 C-51.78076391 83.21216538 -51.78076391 83.21216538 -52 81 C-51.01 80.67 -50.02 80.34 -49 80 C-49 79.34 -49 78.68 -49 78 C-48.401875 77.731875 -47.80375 77.46375 -47.1875 77.1875 C-45.00152146 76.00082594 -43.58667406 74.90400887 -42 73 C-42 72.34 -42 71.68 -42 71 C-41.360625 70.731875 -40.72125 70.46375 -40.0625 70.1875 C-37.66868314 69.11332248 -37.66868314 69.11332248 -37 66 C-36.34 65.690625 -35.68 65.38125 -35 65.0625 C-32.82432794 64.18089886 -32.82432794 64.18089886 -32.1875 62 C-31.81548911 59.92839876 -31.81548911 59.92839876 -33 58 C-37.72462775 57.46082843 -39.33244519 58.71763892 -42.60668945 62.0390625 Z M-28.91796875 71.625 C-30.01550756 72.74249406 -31.10507895 73.86785643 -32.1875 75 C-33.02571289 75.85851562 -33.02571289 75.85851562 -33.88085938 76.734375 C-35.26073093 78.14962788 -36.63126734 79.57397155 -38 81 C-37.34 82.65 -36.68 84.3 -36 86 C-33.55519921 85.81171228 -33.55519921 85.81171228 -31 85 C-29.8499169 83.03327085 -29.8499169 83.03327085 -29 81 C-28.01 80.67 -27.02 80.34 -26 80 C-26 79.34 -26 78.68 -26 78 C-25.360625 77.773125 -24.72125 77.54625 -24.0625 77.3125 C-21.76216661 76.14757132 -21.76216661 76.14757132 -21.125 73.5 C-21.08375 72.675 -21.0425 71.85 -21 71 C-21.66 70.34 -22.32 69.68 -23 69 C-26.28243564 68.66560012 -26.28243564 68.66560012 -28.91796875 71.625 Z M-49.6484375 91.94140625 C-51.78263617 93.94523532 -53.9028686 95.9570498 -56 98 C-57.2107971 99.1368683 -58.42174658 100.27357432 -59.6328125 101.41015625 C-60.92349588 102.64674794 -62.21254755 103.88504485 -63.5 105.125 C-64.13599121 105.72256104 -64.77198242 106.32012207 -65.42724609 106.93579102 C-69.0208755 110.33219275 -69.0208755 110.33219275 -70.40625 114.9296875 C-70.2721875 115.61289062 -70.138125 116.29609375 -70 117 C-67.75773446 117.89541377 -67.75773446 117.89541377 -65 118 C-62.36242086 116.27527617 -62.36242086 116.27527617 -59.91796875 113.6796875 C-58.98662109 112.7515625 -58.05527344 111.8234375 -57.09570312 110.8671875 C-56.61883057 110.37573242 -56.14195801 109.88427734 -55.65063477 109.37792969 C-54.19391694 107.88159147 -52.71019469 106.41676161 -51.22070312 104.953125 C-46.04510756 100.32890737 -46.04510756 100.32890737 -43.72387695 94.18017578 C-43.81499756 93.46071777 -43.90611816 92.74125977 -44 92 C-46.88040649 90.90773273 -46.88040649 90.90773273 -49.6484375 91.94140625 Z " fill="#000000" transform="translate(206,200)"/>
<path d="M0 0 C3.61245195 1.80622598 6.49854298 3.75655288 9.75 6.125 C27.4498162 18.61481011 47.80053147 25.75037609 69.43066406 27.15820312 C70.21924805 27.21427734 71.00783203 27.27035156 71.8203125 27.328125 C72.52687988 27.36325195 73.23344727 27.39837891 73.96142578 27.43457031 C77.05742182 28.29329209 78.14689595 29.36081581 80 32 C80.57772909 35.00218364 80.53678973 37.95066552 80.49609375 41 C80.49754898 41.87269531 80.49900421 42.74539063 80.50050354 43.64453125 C80.49884582 45.48701318 80.48729865 47.32950913 80.46655273 49.171875 C80.43760085 51.99018238 80.44594538 54.8066079 80.45898438 57.625 C80.45274659 59.4166758 80.44435534 61.20834566 80.43359375 63 C80.43652939 63.84175781 80.43946503 64.68351562 80.44248962 65.55078125 C80.38621844 69.04491138 80.32980823 71.38450222 78.66040039 74.5 C74.49593565 78.26216311 68.39057634 77.34276495 63.13427734 77.13183594 C28.47699626 74.99102928 -2.56202013 60.62658795 -30 40 C-30.78503906 39.4121875 -31.57007813 38.824375 -32.37890625 38.21875 C-32.91386719 37.8165625 -33.44882813 37.414375 -34 37 C-33.42424336 33.64749299 -32.40693737 32.06181371 -29.9375 29.75 C-29.38964844 29.22921875 -28.84179688 28.7084375 -28.27734375 28.171875 C-27.64505859 27.59179688 -27.64505859 27.59179688 -27 27 C-23.45251381 28.585935 -20.62153713 30.7425206 -17.5625 33.125 C-0.64763719 46.0212129 29.06158654 64.99351721 51.5625 62.625 C52.366875 62.41875 53.17125 62.2125 54 62 C54 60.02 54 58.04 54 56 C50.21654796 54.3261091 46.41499918 53.29245106 42.4152832 52.30151367 C33.92108271 50.19658567 25.92793301 47.76345458 18 44 C17.39623535 43.72317383 16.7924707 43.44634766 16.17041016 43.16113281 C3.14093698 37.16647343 -8.3413376 29.64355169 -19 20 C-17.35 18.02 -15.7 16.04 -14 14 C-10.22115067 15.33528245 -7.50286453 17.01400995 -4.375 19.5 C10.62222431 30.60157923 28.14210356 37.99705046 46.1875 42.4375 C46.89471191 42.61394043 47.60192383 42.79038086 48.33056641 42.97216797 C52.18833256 43.85125864 55.19859988 44.20986181 59 43 C60.29633621 41.93354885 60.29633621 41.93354885 60.0625 39.4375 C60.041875 38.633125 60.02125 37.82875 60 37 C56.5490468 35.46772348 53.17784901 34.55898014 49.48217773 33.80981445 C29.43157067 29.6723876 9.68788476 20.16661757 -6 7 C-4.02 4.69 -2.04 2.38 0 0 Z " fill="#000000" transform="translate(240,245)"/>
<path d="M0 0 C4.04669908 2.11810696 6.98225186 5.0387025 10.2109375 8.234375 C10.86449219 8.8428125 11.51804687 9.45125 12.19140625 10.078125 C12.80371094 10.68140625 13.41601562 11.2846875 14.046875 11.90625 C14.60681152 12.44862305 15.16674805 12.99099609 15.74365234 13.54980469 C17.41901973 16.51708478 16.73387164 18.24637376 15.8359375 21.484375 C14.12717343 23.62283375 12.5181932 25.38741987 10.5534668 27.25512695 C10.00379242 27.7975 9.45411804 28.33987305 8.88778687 28.89868164 C7.69613201 30.07135565 6.49873699 31.23821903 5.29630089 32.39983559 C3.38866487 34.24342609 1.49729197 36.1023912 -0.39067078 37.96611023 C-5.08443056 42.59313863 -9.8047621 47.19275342 -14.5246582 51.79309082 C-18.51099251 55.68041095 -22.4866929 59.57804328 -26.44911766 63.48973656 C-28.30470668 65.31312885 -30.17480179 67.12067928 -32.04597473 68.92805481 C-39.6709372 76.27492821 -39.6709372 76.27492821 -44.46525574 85.60514832 C-46.83388148 91.97484155 -52.33037607 95.6205653 -58.1640625 98.484375 C-59.81989475 99.17751408 -61.48517229 99.84911924 -63.1640625 100.484375 C-64.50175285 101.1422555 -65.83580058 101.80766051 -67.1640625 102.484375 C-67.8653125 101.77152344 -68.5665625 101.05867188 -69.2890625 100.32421875 C-74.73384837 94.81785552 -80.22760073 89.4682813 -86.1640625 84.484375 C-84.58394236 80.98553755 -83.55532934 80.18000842 -80.1640625 78.484375 C-78.89601684 76.4507802 -78.89601684 76.4507802 -78.1640625 74.484375 C-77.5040625 74.484375 -76.8440625 74.484375 -76.1640625 74.484375 C-75.9475 73.94296875 -75.7309375 73.4015625 -75.5078125 72.84375 C-73.69906253 69.66792156 -71.24682451 67.27709419 -68.6640625 64.734375 C-68.16519531 64.22777344 -67.66632813 63.72117187 -67.15234375 63.19921875 C-63.41747389 59.484375 -63.41747389 59.484375 -61.1640625 59.484375 C-61.1640625 58.824375 -61.1640625 58.164375 -61.1640625 57.484375 C-60.5040625 57.484375 -59.8440625 57.484375 -59.1640625 57.484375 C-58.93843628 56.933759 -58.71281006 56.38314301 -58.48034668 55.81584167 C-56.76095068 52.7703637 -54.5794771 50.65308016 -52.10351562 48.1809082 C-51.58949692 47.66499115 -51.07547821 47.1490741 -50.54588318 46.61752319 C-48.85053584 44.91847985 -47.148111 43.22672932 -45.4453125 41.53515625 C-44.26432449 40.35536062 -43.0837062 39.17519479 -41.90344238 37.99467468 C-39.43171131 35.52450635 -36.95666036 33.05773054 -34.47900391 30.59350586 C-31.29940201 27.43092135 -28.1264506 24.26176597 -24.95572662 21.09028339 C-22.51970711 18.65453541 -20.08109305 16.22139946 -17.6415863 13.78914452 C-16.47037242 12.62111745 -15.29976731 11.45247962 -14.129776 10.28322792 C-12.49722175 8.65283549 -10.86142106 7.02577492 -9.22460938 5.3996582 C-8.2935437 4.47240433 -7.36247803 3.54515045 -6.40319824 2.58979797 C-2.91122371 -0.69364897 -2.91122371 -0.69364897 0 0 Z " fill="#000000" transform="translate(312.1640625,126.515625)"/>
<path d="M0 0 C3.86328627 1.5847358 6.28876923 4.05956887 9.203125 7.0078125 C9.6857782 7.49329559 10.1684314 7.97877869 10.66571045 8.47897339 C12.19858562 10.02299866 13.72434004 11.57384824 15.25 13.125 C16.29120361 14.17624009 17.33286541 15.22702657 18.375 16.27734375 C20.92199464 18.84633004 23.46265177 21.42148161 26 24 C24.00396264 26.33682423 22.00384339 28.66988063 20 31 C19.46800586 31.62117612 18.93601171 32.24235224 18.38789654 32.88235188 C14.34687599 37.55732945 10.13761893 41.9958686 5.7512207 46.34643555 C5.06412018 47.03207581 4.37701965 47.71771606 3.6690979 48.4241333 C2.19159935 49.89785485 0.71294776 51.37042118 -0.76675987 52.84192467 C-3.11057445 55.1728749 -5.4511625 57.507023 -7.79096985 59.84199524 C-12.75366885 64.79332084 -17.72029782 69.74069257 -22.6875 74.6875 C-28.45687221 80.43323864 -34.22460417 86.18060409 -39.9881382 91.93219948 C-42.29048032 94.22807508 -44.59582013 96.52091118 -46.90129089 98.81364441 C-48.31414334 100.22286395 -49.72685536 101.63222429 -51.1394043 103.04174805 C-51.77792831 103.67510574 -52.41645233 104.30846344 -53.07432556 104.96101379 C-55.63191969 107.51830377 -58.00989472 110.0126244 -60.24519348 112.86457825 C-62 115 -62 115 -64.9375 116.125 C-68 116 -68 116 -70.9375 113.9375 C-73 111 -73 111 -73.12719727 108.34521484 C-71.40105571 103.22249628 -67.85981372 100.24510652 -64.02734375 96.5390625 C-63.22970108 95.74849457 -62.43205841 94.95792664 -61.61024475 94.1434021 C-59.06417068 91.62527812 -56.50125326 89.12510973 -53.9375 86.625 C-52.20654269 84.91912434 -50.47671083 83.21210586 -48.74804688 81.50390625 C-44.51165986 77.32259716 -40.26131643 73.15589155 -36 69 C-41.27801014 68.27263077 -41.27801014 68.27263077 -46.00057983 70.32669067 C-48.11889704 72.29385347 -50.08622629 74.34463193 -52.04296875 76.47265625 C-52.77445633 77.22969345 -53.50594391 77.98673065 -54.25959778 78.76670837 C-56.58892752 81.18036435 -58.89012942 83.61843247 -61.1875 86.0625 C-63.49729847 88.50821135 -65.81255239 90.94731493 -68.14753723 93.3690033 C-69.59850757 94.87466366 -71.03488369 96.39455172 -72.45487976 97.92945862 C-73.43663933 98.95063026 -73.43663933 98.95063026 -74.43823242 99.99243164 C-75.00700607 100.5986586 -75.57577972 101.20488556 -76.16178894 101.82948303 C-78 103 -78 103 -80.57417297 102.82859802 C-83.98435948 101.66376897 -85.18571613 100.07032654 -87 97 C-86.68308819 92.98908255 -85.52792891 91.03096946 -82.70532227 88.23535156 C-82.01112686 87.53823059 -81.31693146 86.84110962 -80.60169983 86.12286377 C-79.84755295 85.38622498 -79.09340607 84.64958618 -78.31640625 83.890625 C-77.54570297 83.12320984 -76.77499969 82.35579468 -75.98094177 81.56512451 C-74.35219046 79.94678783 -72.71868622 78.33322262 -71.08081055 76.72412109 C-68.56679917 74.25422373 -66.06642142 71.77117411 -63.56835938 69.28515625 C-61.98514737 67.71536647 -60.40118823 66.14632979 -58.81640625 64.578125 C-58.0642836 63.83338928 -57.31216095 63.08865356 -56.5372467 62.3213501 C-55.83989914 61.63683777 -55.14255157 60.95232544 -54.42407227 60.24707031 C-53.80975845 59.64260071 -53.19544464 59.0381311 -52.56251526 58.41534424 C-51 57 -51 57 -49 56 C-47.23217412 56.12059645 -45.46783316 56.29387342 -43.70703125 56.4921875 C-32.89716878 57.25466603 -23.61100464 57.31627619 -15.05859375 50.09765625 C-12.86902816 48.12214525 -10.79582543 46.06075845 -8.75 43.9375 C-8.24328766 43.42322449 -7.73657532 42.90894897 -7.21450806 42.37908936 C-1.62940072 36.79902812 -1.62940072 36.79902812 1.45214844 29.75268555 C1.28893565 27.41823053 1.28893565 27.41823053 0 24 C-0.36525277 22.65653213 -0.72455058 21.31143226 -1.078125 19.96484375 C-1.65976407 17.93893197 -2.25497205 15.92178045 -2.890625 13.91210938 C-4.42912728 8.41516894 -3.62671956 5.81769825 -1 1 C-0.67 0.67 -0.34 0.34 0 0 Z " fill="#000000" transform="translate(391,11)"/>
<path d="M0 0 C4.30188413 3.73719767 6.90050961 8.42705759 9.8125 13.25 C10.96284861 15.13323602 12.11392049 17.01603038 13.265625 18.8984375 C14.17151367 20.3829541 14.17151367 20.3829541 15.09570312 21.89746094 C19.00550944 28.26743769 22.99563561 34.58765866 26.97387695 40.91503906 C28.65932783 43.60394546 30.33360815 46.29924997 32 49 C32.42974121 49.68860107 32.85948242 50.37720215 33.30224609 51.08666992 C36.22404114 55.92974298 36.98760455 59.46739902 36 65 C33.60360785 69.97712216 31.12947142 72.06435041 26 74 C19.20229986 75.97232541 13.0968897 77.27323945 6.3515625 74.5 C-0.5077078 70.04671671 -3.52060714 61.63653669 -7.0625 54.5625 C-7.83204857 53.064759 -8.60352037 51.56800453 -9.37695312 50.07226562 C-11.61421786 45.7295288 -13.81244577 41.36794687 -16 37 C-16.35326355 36.29591003 -16.7065271 35.59182007 -17.07049561 34.86639404 C-19.05312591 30.91397235 -21.02961992 26.95854694 -23 23 C-18.5078125 17.53125 -18.5078125 17.53125 -17 16 C-16.34 16 -15.68 16 -15 16 C-14.731875 15.360625 -14.46375 14.72125 -14.1875 14.0625 C-13 12 -13 12 -10 11 C-9.67 10.01 -9.34 9.02 -9 8 C-7.36395804 6.62926214 -5.69321939 5.29944744 -4 4 C-2.64852862 2.68505488 -1.30887458 1.35735142 0 0 Z " fill="#000000" transform="translate(174,311)"/>
<path d="M0 0 C3.32772484 2.71500091 6.17533839 5.7718153 9 9 C7.50727325 12.46311503 5.52783996 14.74099214 2.88916016 17.41723633 C1.6174144 18.71296318 1.6174144 18.71296318 0.31997681 20.03486633 C-1.05657578 21.41946297 -1.05657578 21.41946297 -2.4609375 22.83203125 C-3.4126427 23.79270571 -4.36427122 24.75345613 -5.31582642 25.71427917 C-7.3077551 27.72266792 -9.30400933 29.72664767 -11.30273438 31.72827148 C-13.86594136 34.29688156 -16.41257403 36.88128601 -18.95558739 39.46986866 C-20.91340578 41.45737668 -22.8823298 43.43358858 -24.85454178 45.40680504 C-26.25821659 46.81674244 -27.65023052 48.23825771 -29.04208374 49.65986633 C-29.89621857 50.50792343 -30.75035339 51.35598053 -31.63037109 52.22973633 C-32.37934662 52.9837825 -33.12832214 53.73782867 -33.8999939 54.51472473 C-36 56 -36 56 -38.12564087 55.85380554 C-40.84434069 54.61538707 -42.62965114 52.84263188 -44.75 50.75 C-45.94882813 49.59757812 -45.94882813 49.59757812 -47.171875 48.421875 C-49.34894963 45.5377163 -49.46167222 44.52922217 -49 41 C-47.49490356 38.88690186 -47.49490356 38.88690186 -45.35986328 36.77636719 C-44.16830124 35.58053009 -44.16830124 35.58053009 -42.95266724 34.36053467 C-42.08399017 33.51452698 -41.21531311 32.66851929 -40.3203125 31.796875 C-39.43721405 30.91847961 -38.5541156 30.04008423 -37.64425659 29.1350708 C-35.29633715 26.80490035 -32.93793477 24.48643239 -30.57409668 22.17248535 C-28.64520619 20.27901716 -26.72753482 18.37440637 -24.8103199 16.46912766 C-20.85171729 12.53613956 -16.88451769 8.61168913 -12.89892578 4.70605469 C-11.83969406 3.66611359 -11.83969406 3.66611359 -10.75906372 2.60516357 C-7.2895495 -0.56080351 -4.61847331 -0.733091 0 0 Z " fill="#000000" transform="translate(297,110)"/>
<path d="M0 0 C3.4135366 0.67124701 4.74831244 1.24181531 7.1953125 3.640625 C7.85273438 4.27613281 8.51015625 4.91164062 9.1875 5.56640625 C9.87070313 6.25089844 10.55390625 6.93539062 11.2578125 7.640625 C12.02351563 8.33542969 12.78921875 9.03023437 13.578125 9.74609375 C14.31804687 10.43316406 15.05796875 11.12023437 15.8203125 11.828125 C16.50222656 12.46105469 17.18414062 13.09398437 17.88671875 13.74609375 C19.2578125 15.640625 19.2578125 15.640625 19.109375 17.47485352 C17.95988962 20.39832966 16.24440826 21.99151128 14.00390625 24.1875 C13.14990234 25.03183594 12.29589844 25.87617188 11.41601562 26.74609375 C10.51818359 27.61878906 9.62035156 28.49148437 8.6953125 29.390625 C7.34276367 30.72287109 7.34276367 30.72287109 5.96289062 32.08203125 C3.73444152 34.27510815 1.49929657 36.46088544 -0.7421875 38.640625 C-5.6333359 34.57224327 -10.21569503 30.29624422 -14.6796875 25.765625 C-15.56237305 24.87617188 -15.56237305 24.87617188 -16.46289062 23.96875 C-17.89166424 22.52836034 -19.31726882 21.0848283 -20.7421875 19.640625 C-18.58573352 14.85671424 -15.18641261 11.60305511 -11.5546875 7.890625 C-10.90693359 7.19324219 -10.25917969 6.49585938 -9.59179688 5.77734375 C-6.3568648 2.47454597 -4.65570118 0.79700939 0 0 Z " fill="#000000" transform="translate(222.7421875,166.359375)"/>
<path d="M0 0 C3.32635882 1.52572656 4.95563002 2.93344504 7 6 C2.06872538 12.31819561 -5.05069258 20.91115237 -13.125 22.6875 C-20.11939312 21.44655928 -25.15791604 15.98357342 -30 11 C-28.70700306 8.11562221 -27.34058637 6.12780579 -25 4 C-21.23232234 5.44910679 -19.13755081 7.86757012 -16.5625 10.85546875 C-15.07696116 12.17592447 -15.07696116 12.17592447 -13.171875 12.0234375 C-9.92101947 10.49155953 -7.69213295 8.004624 -5.25 5.4375 C-4.74339844 4.91736328 -4.23679688 4.39722656 -3.71484375 3.86132812 C-2.46965595 2.58089916 -1.23388498 1.29132446 0 0 Z " fill="#000000" transform="translate(209,297)"/>
<path d="M0 0 C1.8527832 1.28515625 1.8527832 1.28515625 3.55078125 3.0625 C4.16630859 3.69414062 4.78183594 4.32578125 5.41601562 4.9765625 C6.04185547 5.64429688 6.66769531 6.31203125 7.3125 7 C7.95767578 7.66773438 8.60285156 8.33546875 9.26757812 9.0234375 C10.85688927 10.67161203 12.43337902 12.33029098 14 14 C12.31847927 17.74020498 10.30960527 19.56134348 7 22 C4.67103983 19.78751023 2.36507052 17.55241554 0.0625 15.3125 C-0.9265332 14.37374023 -0.9265332 14.37374023 -1.93554688 13.41601562 C-6.7513008 8.69904639 -6.7513008 8.69904639 -8.01171875 5.15625 C-8 3 -8 3 -6.875 1.1875 C-4.38395602 -0.39016118 -2.91336042 -0.29709777 0 0 Z " fill="#000000" transform="translate(240,156)"/>
<path d="M0 0 C2.02025736 1.44304097 2.83041246 2.63659813 3.875 4.875 C4.06060351 8.03025964 2.88610975 9.52854584 1 12 C-1.11328125 13.1484375 -1.11328125 13.1484375 -3 14 C-4.20205464 12.93283928 -5.38632333 11.84561663 -6.5625 10.75 C-7.22378906 10.14671875 -7.88507813 9.5434375 -8.56640625 8.921875 C-10 7 -10 7 -9.82421875 4.875 C-7.90633558 0.51204302 -4.53729443 -0.6980453 0 0 Z " fill="#000000" transform="translate(424,17)"/>
</svg>
