<?xml version="1.0" encoding="UTF-8"?>
<svg version="1.1" xmlns="http://www.w3.org/2000/svg" width="512" height="512">
<path d="M0 0 C0.7542627 0.18723633 1.50852539 0.37447266 2.28564453 0.56738281 C13.01387328 3.26399425 23.04864038 7.19894741 33 12 C33.6909375 12.32983887 34.381875 12.65967773 35.09375 12.99951172 C46.38445147 18.46066213 56.25687714 25.1278752 66 33 C66.64646484 33.52013672 67.29292969 34.04027344 67.95898438 34.57617188 C69.81631323 36.08043923 71.66156232 37.59772172 73.5 39.125 C74.05848633 39.58632324 74.61697266 40.04764648 75.19238281 40.52294922 C76.50200927 41.63608981 77.75729109 42.81261717 79 44 C79 44.66 79 45.32 79 46 C79.99 46.33 80.98 46.66 82 47 C84.77163887 49.97001793 87.22616463 53.19427113 89.73095703 56.39111328 C90.96890533 57.96057832 92.232233 59.50991931 93.49609375 61.05859375 C99.61889802 68.64757305 104.51467506 76.63659757 109.07177734 85.24902344 C109.84004583 86.69826636 110.63011305 88.13592984 111.42578125 89.5703125 C124.27273777 113.59035498 129.20041189 141.37353645 129.12025452 168.35162354 C129.12111053 169.42511551 129.12196655 170.49860748 129.12284851 171.60462952 C129.12449046 175.1768668 129.11900177 178.74905614 129.11352539 182.32128906 C129.11321877 184.93596266 129.11335304 187.55063634 129.11389065 190.16530991 C129.11441984 196.4383419 129.10982664 202.71135945 129.10338932 208.98438774 C129.09615962 216.24854402 129.09539295 223.51269534 129.09460449 230.77685547 C129.08936457 249.93457258 129.07540335 269.09228651 129.0625 288.25 C129.041875 331.0675 129.02125 373.885 129 418 C16.8 418 -95.4 418 -211 418 C-211.061875 374.378125 -211.12375 330.75625 -211.1875 285.8125 C-211.21481201 272.06440674 -211.24212402 258.31631348 -211.27026367 244.15161133 C-211.28381348 227.29821777 -211.28381348 227.29821777 -211.28633118 219.39579773 C-211.28911385 213.90418085 -211.30005444 208.41265691 -211.31672668 202.92106628 C-211.33597853 196.57027579 -211.34447191 190.21957353 -211.34033485 183.86875371 C-211.33854668 180.62798566 -211.34288275 177.38745116 -211.35764539 174.14671099 C-211.53941498 132.26530548 -201.67584334 93.12454908 -175 60 C-174.51772949 59.39816895 -174.03545898 58.79633789 -173.53857422 58.17626953 C-146.67373505 24.9829925 -106.37697388 1.14727066 -63.62207031 -3.70263672 C-42.46477421 -5.43959996 -20.61436423 -5.40834807 0 0 Z M-170.83984375 151.82421875 C-173.97833791 156.43831595 -173.71099787 160.35221113 -173.5625 165.8125 C-173.54517822 166.83843262 -173.52785645 167.86436523 -173.51000977 168.92138672 C-173.00861007 185.23410039 -168.4980018 201.08544255 -156.9921875 213.23046875 C-140.02184641 228.30412466 -118.23710902 230.09008825 -96.56787109 229.26025391 C-85.1323358 228.42610305 -70.15695521 227.06293772 -60.1875 220.875 C-58.5918017 218.35547637 -58.5885944 215.96536631 -58.50390625 213.03515625 C-59.40437935 209.34108943 -62.38396642 207.40290406 -65.45996094 205.39111328 C-66.8332959 204.61356689 -66.8332959 204.61356689 -68.234375 203.8203125 C-69.27086182 203.22855225 -70.30734863 202.63679199 -71.37524414 202.02709961 C-72.48891357 201.39940674 -73.60258301 200.77171387 -74.75 200.125 C-76.51822994 199.11905396 -78.2851787 198.11088058 -80.05213928 197.10270691 C-81.25949359 196.4141197 -82.46729199 195.72631061 -83.67552185 195.03926086 C-89.501966 191.72429549 -95.28240326 188.3325118 -101.0625 184.9375 C-110.17747451 179.59915826 -119.36364575 174.4003417 -128.60302734 169.28051758 C-134.01907801 166.26918659 -139.38484429 163.1956653 -144.69921875 160.0078125 C-145.7871875 159.358125 -146.87515625 158.7084375 -147.99609375 158.0390625 C-150.07451014 156.79252146 -152.14651988 155.53521516 -154.2109375 154.265625 C-155.14550781 153.70617187 -156.08007812 153.14671875 -157.04296875 152.5703125 C-157.85789795 152.07289551 -158.67282715 151.57547852 -159.51245117 151.06298828 C-163.83441121 149.21611283 -166.89880785 149.29263173 -170.83984375 151.82421875 Z M71.3125 154.25 C69.81100103 155.17887224 68.3083438 156.10587412 66.8046875 157.03125 C66.02061523 157.51980469 65.23654297 158.00835937 64.42871094 158.51171875 C60.32368689 161.02722203 56.1280292 163.38071953 51.9375 165.75 C44.30192018 170.09298666 36.70489077 174.49811252 29.125 178.9375 C21.10236521 183.63530497 13.04099451 188.25566687 4.9375 192.8125 C1.28934121 194.87091165 -2.35647435 196.93339889 -6 199 C-6.79986328 199.45310547 -7.59972656 199.90621094 -8.42382812 200.37304688 C-10.56070847 201.59072076 -12.68812481 202.82317203 -14.8125 204.0625 C-15.42295166 204.40837158 -16.03340332 204.75424316 -16.66235352 205.1105957 C-19.83421396 206.98569905 -21.90477391 208.4014 -23 212 C-22.80142678 216.54658222 -22.80142678 216.54658222 -20.9140625 220.5859375 C-18.0788787 222.68050186 -14.9407379 223.29205232 -11.5625 224.0625 C-10.84602295 224.23241455 -10.1295459 224.4023291 -9.39135742 224.57739258 C14.65237461 230.16515268 42.29838898 233.09127731 64.63671875 220.515625 C68.92030865 217.76846322 72.5791841 214.79063383 76 211 C76.46921875 210.53464844 76.9384375 210.06929687 77.421875 209.58984375 C89.76906338 196.63802501 92.34687132 177.11666351 92.2265625 159.97265625 C91.95314529 156.38523391 91.11015354 153.92175105 89 151 C82.46193361 147.73096681 76.83153052 150.66407178 71.3125 154.25 Z M-53.43701172 270.12231445 C-53.93217285 270.63882568 -54.42733398 271.15533691 -54.9375 271.6875 C-55.46617676 272.22785889 -55.99485352 272.76821777 -56.53955078 273.32495117 C-59.80265779 276.68379603 -62.93854142 280.12728884 -65.9765625 283.69140625 C-68.82879167 286.9455905 -71.79125375 290.09277004 -74.75 293.25 C-75.9779149 294.56245293 -77.2057796 295.87495282 -78.43359375 297.1875 C-79.0354248 297.83074219 -79.63725586 298.47398437 -80.25732422 299.13671875 C-86.32144777 305.62052247 -92.35143919 312.12857146 -98.125 318.875 C-99.21167969 320.13957031 -99.21167969 320.13957031 -100.3203125 321.4296875 C-102.25840129 324.39541406 -102.77763581 326.48002218 -103 330 C-101.47775568 334.64685108 -99.75695137 337.84900853 -96 341 C-93.69235335 342.15382333 -92.37462298 342.13047018 -89.80693054 342.14044189 C-88.92792084 342.14615204 -88.04891113 342.15186218 -87.14326477 342.15774536 C-85.69309212 342.15942215 -85.69309212 342.15942215 -84.21362305 342.16113281 C-82.6890448 342.16858017 -82.6890448 342.16858017 -81.13366699 342.17617798 C-77.75967744 342.19082422 -74.38573491 342.19760587 -71.01171875 342.203125 C-68.67242938 342.20887463 -66.33314004 342.21463238 -63.99385071 342.22039795 C-59.08354472 342.23091509 -54.17325513 342.23675302 -49.26293945 342.24023438 C-42.96784244 342.24571915 -36.67296172 342.269744 -30.37793255 342.29820633 C-25.54382187 342.31682129 -20.70976339 342.32203772 -15.87561989 342.32357025 C-13.55476512 342.32660012 -11.23391134 342.33463984 -8.91309166 342.34775543 C-5.66674687 342.36479096 -2.42093177 342.36294151 0.82543945 342.35644531 C2.26650307 342.37026749 2.26650307 342.37026749 3.73667908 342.3843689 C8.65367898 342.35351315 12.02044923 342.22032805 16 339 C19.38979247 335.51604662 20.90194272 332.90286413 21 328 C19.11909604 322.61146432 16.56190544 318.95676128 12.5625 314.875 C11.48021864 313.73721703 10.39819457 312.59918926 9.31640625 311.4609375 C8.76484863 310.88698242 8.21329102 310.31302734 7.64501953 309.72167969 C5.05929939 307.01546145 2.53161949 304.2567173 0 301.5 C-0.99838642 300.41768132 -1.99708524 299.33565074 -2.99609375 298.25390625 C-3.73835205 297.44977295 -3.73835205 297.44977295 -4.49560547 296.62939453 C-6.00842535 294.99087459 -7.52173209 293.35280555 -9.03515625 291.71484375 C-9.53571533 291.17287354 -10.03627441 290.63090332 -10.55200195 290.07250977 C-11.55398169 288.98793594 -12.55641863 287.9037843 -13.55932617 286.82006836 C-16.04013909 284.13649082 -18.50805028 281.442771 -20.953125 278.7265625 C-28.97744638 269.01521106 -28.97744638 269.01521106 -39.5625 262.9375 C-45.56484086 263.04663347 -49.29557295 265.94310136 -53.43701172 270.12231445 Z " fill="#000000" transform="translate(297,49)"/>
</svg>
