<?xml version="1.0" standalone="no"?>
<!DOCTYPE svg PUBLIC "-//W3C//DTD SVG 20010904//EN"
 "http://www.w3.org/TR/2001/REC-SVG-20010904/DTD/svg10.dtd">
<svg version="1.0" xmlns="http://www.w3.org/2000/svg"
 width="775.000000pt" height="1024.000000pt" viewBox="0 0 775.000000 1024.000000"
 preserveAspectRatio="xMidYMid meet">

<g transform="translate(0.000000,1024.000000) scale(0.100000,-0.100000)"
fill="currentColor" stroke="none">
<path d="M2815 7065 c-22 -7 -74 -23 -115 -36 -167 -50 -182 -64 -206 -191
-35 -186 -151 -370 -283 -452 -136 -84 -222 -92 -492 -50 -147 23 -172 24
-243 14 -97 -14 -159 -38 -237 -91 -87 -59 -139 -132 -240 -339 -152 -309
-181 -377 -182 -426 l-2 -46 110 -3 c67 -2 172 -15 270 -33 88 -16 207 -38
265 -47 166 -28 201 -47 225 -127 13 -46 13 -58 -11 -176 -14 -69 -36 -171
-49 -227 -13 -55 -45 -194 -70 -310 -26 -115 -64 -289 -86 -385 -90 -396 -100
-458 -108 -635 -5 -93 -11 -177 -15 -186 -5 -10 -2 -19 8 -22 22 -9 135 11
181 32 72 33 73 33 78 251 5 203 15 270 92 600 13 58 29 131 35 162 11 55 59
138 81 138 5 0 50 -38 99 -84 105 -100 176 -147 287 -192 132 -53 196 -66 368
-74 158 -8 206 -15 580 -91 171 -35 175 -35 302 33 100 53 108 60 143 130 35
68 37 85 13 92 -27 8 -283 53 -408 71 -60 9 -137 22 -170 30 -33 8 -91 19
-130 25 -121 18 -168 36 -218 82 l-46 43 -3 -138 c-3 -134 -4 -139 -28 -159
-22 -18 -34 -20 -103 -15 -196 15 -435 141 -529 279 -49 73 -68 131 -68 209 0
69 12 104 48 142 31 33 39 34 47 6 4 -13 31 -32 71 -51 71 -33 94 -63 94 -121
0 -169 139 -387 204 -321 15 15 16 18 1 38 -68 92 -90 160 -83 256 5 66 36
148 66 172 20 17 96 -6 152 -46 l46 -33 -14 51 c-20 74 -20 291 1 394 40 200
94 335 161 404 20 20 36 43 36 50 0 7 -17 22 -37 33 -61 32 -126 138 -154 248
-21 78 -24 117 -24 257 0 187 20 295 81 427 38 84 110 182 148 202 28 16 92
10 336 -29 63 -10 190 -28 282 -40 l166 -22 78 26 c87 30 116 44 126 60 14 20
9 143 -5 149 -8 3 -43 8 -80 12 -65 7 -66 8 -69 38 -4 41 -35 57 -111 57 -56
0 -59 -1 -70 -30 -10 -25 -16 -30 -37 -26 -55 12 -442 56 -477 55 -21 0 -56
-7 -78 -14z"/>
<path d="M2765 6704 c-40 -44 -66 -96 -108 -219 -31 -88 -31 -95 -32 -275 0
-155 3 -195 19 -245 49 -154 91 -198 208 -220 108 -20 252 -43 343 -55 44 -6
161 -24 260 -40 99 -16 299 -47 445 -70 146 -22 328 -52 405 -65 77 -14 203
-34 280 -45 133 -19 296 -45 780 -125 250 -41 451 -73 725 -114 74 -11 178
-29 230 -40 52 -11 123 -23 158 -27 l63 -7 -7 29 c-4 16 -10 34 -14 39 -34 48
-49 428 -21 545 36 155 79 281 117 350 47 82 45 90 -21 90 -22 0 -98 9 -170
20 -106 17 -340 50 -352 50 -1 0 -7 9 -13 20 -7 14 -8 26 0 39 8 17 6 20 -18
25 -60 12 -153 26 -262 41 -63 9 -173 24 -245 35 -71 10 -218 31 -326 45 -250
33 -324 47 -430 84 -108 38 -299 69 -849 137 l-126 16 -89 -32 c-175 -61 -145
-61 -550 0 -104 15 -217 31 -250 35 -33 3 -73 8 -88 11 -23 5 -34 -1 -62 -32z"/>
<path d="M6570 6573 c-24 -37 -49 -78 -56 -89 -12 -19 -18 -21 -59 -13 -50 9
-65 5 -165 -45 -88 -45 -140 -76 -140 -86 0 -9 27 -15 189 -35 68 -9 144 -20
170 -24 25 -5 78 -12 117 -16 l70 -7 58 56 c32 30 66 58 76 61 29 9 31 29 10
106 -30 114 -53 134 -181 153 l-46 7 -43 -68z"/>
<path d="M6895 6311 c-120 -56 -257 -303 -302 -546 -21 -114 -23 -363 -4 -455
24 -116 99 -241 165 -277 18 -10 17 -13 -18 -54 -53 -62 -129 -224 -167 -354
-29 -101 -32 -125 -37 -293 -5 -200 3 -264 45 -369 30 -74 101 -146 159 -162
130 -33 186 -20 264 59 72 73 83 92 161 275 11 26 43 144 60 220 21 90 18 444
-3 510 -31 97 -50 130 -101 179 -35 34 -47 52 -41 61 143 194 216 443 216 740
0 142 -17 242 -57 338 -21 52 -73 107 -120 128 -55 25 -166 25 -220 0z m225
-116 c35 -18 82 -112 101 -200 16 -78 16 -269 -1 -365 -30 -177 -109 -379
-179 -461 -39 -45 -100 -74 -137 -65 -81 21 -123 130 -131 341 -9 223 40 452
129 610 76 134 144 178 218 140z m-57 -1230 c38 -18 70 -64 94 -137 15 -43 18
-86 18 -233 0 -191 -7 -236 -55 -387 -53 -163 -132 -283 -208 -315 -70 -29
-126 15 -166 132 -22 65 -31 264 -18 380 13 110 73 320 113 395 38 72 105 149
143 166 40 17 42 17 79 -1z"/>
<path d="M2850 5616 c-23 -13 -90 -87 -90 -101 0 -3 -11 -22 -25 -43 -13 -20
-40 -86 -60 -147 -66 -202 -70 -434 -11 -596 58 -159 89 -182 291 -214 55 -9
174 -29 265 -45 91 -16 298 -52 460 -80 162 -28 378 -66 480 -85 102 -18 208
-37 235 -41 28 -3 79 -12 114 -20 41 -8 99 -11 160 -8 81 5 130 0 306 -30 116
-20 305 -52 420 -71 116 -19 296 -51 400 -70 105 -19 231 -41 281 -49 195 -33
233 -47 234 -86 0 -36 93 -149 123 -151 7 0 48 -6 92 -13 44 -8 82 -12 84 -10
2 1 -15 24 -37 51 -55 66 -85 131 -113 243 -20 81 -24 119 -24 260 1 212 21
309 108 520 17 41 46 97 64 123 19 26 31 52 28 57 -8 13 -174 43 -455 81 -41
5 -111 16 -155 24 -44 8 -190 33 -325 54 -135 22 -328 54 -430 70 -172 28
-450 75 -800 136 -80 14 -188 32 -240 40 -52 8 -171 28 -265 44 -93 16 -233
39 -310 51 -174 27 -525 86 -625 105 -95 18 -148 18 -180 1z"/>
<path d="M852 5344 c-30 -20 -28 -48 9 -129 20 -44 32 -91 36 -134 5 -63 3
-73 -59 -236 -121 -315 -201 -576 -269 -870 -27 -115 -33 -162 -33 -260 -1
-112 1 -123 26 -165 35 -61 82 -85 224 -115 66 -14 176 -41 245 -60 140 -39
199 -44 220 -19 10 12 14 53 15 148 1 152 14 251 55 431 17 72 43 186 59 255
15 69 42 188 60 265 37 169 91 406 131 573 16 68 29 134 29 147 0 49 -27 64
-165 90 -98 19 -546 95 -559 95 -1 0 -12 -7 -24 -16z"/>
</g>
</svg>
