<?xml version="1.0" standalone="no"?>
<!DOCTYPE svg PUBLIC "-//W3C//DTD SVG 20010904//EN"
 "http://www.w3.org/TR/2001/REC-SVG-20010904/DTD/svg10.dtd">
<svg version="1.0" xmlns="http://www.w3.org/2000/svg"
 width="350.000000pt" height="150.000000pt" viewBox="0 0 350.000000 150.000000"
 preserveAspectRatio="xMidYMid meet">

<g transform="translate(0.000000,150.000000) scale(0.100000,-0.100000)"
fill="currentColor" stroke="none">
<path d="M1693 1333 c-13 -2 -23 -9 -23 -15 0 -5 -6 -8 -14 -5 -23 9 -38 -18
-34 -60 3 -35 6 -38 36 -41 31 -3 33 -5 30 -40 l-3 -36 -53 -1 c-30 0 -56 3
-58 7 -2 3 -15 5 -29 3 -15 -1 -25 3 -25 11 0 7 -8 18 -19 23 -26 14 -76 -2
-122 -39 -21 -16 -44 -30 -52 -30 -7 0 -34 -14 -59 -30 -67 -44 -133 -53 -360
-47 -108 2 -208 2 -221 0 l-24 -5 0 -148 0 -149 36 -6 c45 -7 47 -6 321 100
217 84 227 87 290 83 79 -6 123 -27 140 -67 11 -29 9 -36 -44 -131 -31 -55
-56 -104 -56 -110 0 -8 119 -80 133 -80 4 0 7 9 7 20 0 24 58 169 75 188 10
11 18 11 33 3 11 -6 56 -11 99 -11 67 0 80 3 91 20 16 26 78 28 85 3 4 -14 5
-12 6 5 0 12 7 22 15 22 9 0 19 -30 31 -92 10 -51 29 -131 42 -178 33 -113
135 -350 151 -350 16 0 109 47 116 59 3 5 -3 20 -14 34 -31 40 -86 165 -119
274 -40 129 -65 265 -51 273 7 5 8 20 1 49 -8 36 -7 43 7 47 10 3 32 12 50 20
42 18 58 18 66 -2 4 -12 17 -14 52 -11 34 3 51 -1 70 -16 25 -19 25 -21 19
-126 -3 -58 -2 -119 3 -136 7 -27 13 -30 47 -30 34 0 39 3 47 30 4 17 5 78 3
136 -5 100 -4 106 17 125 13 11 30 19 38 18 8 -1 20 -2 27 -3 6 0 15 -10 18
-21 13 -42 65 -6 65 44 0 19 33 28 130 35 82 6 85 7 88 32 3 26 2 26 -75 32
-98 7 -143 24 -143 52 0 25 -29 115 -42 132 -5 6 -17 10 -26 8 -9 -2 -20 -4
-24 -4 -5 -1 -8 -7 -8 -15 0 -8 -10 -26 -22 -40 -22 -25 -26 -26 -166 -28 -88
-1 -146 2 -150 8 -11 16 -41 24 -48 13 -4 -6 -11 -6 -20 2 -11 9 -14 9 -14 0
0 -7 -5 -9 -12 -4 -17 10 -40 10 -55 -1 -9 -5 -13 -4 -13 4 0 8 -4 9 -12 3
-18 -13 -59 -8 -69 8 -5 8 -9 23 -9 35 0 18 6 21 43 20 l42 -1 3 42 c4 51 -13
89 -32 74 -7 -6 -35 -14 -61 -18 -39 -5 -50 -3 -60 11 -13 17 -90 29 -132 19z
m580 -310 c-18 -2 -48 -2 -65 0 -18 2 -4 4 32 4 36 0 50 -2 33 -4z m185 0
c-15 -2 -42 -2 -60 0 -18 2 -6 4 27 4 33 0 48 -2 33 -4z m-1485 -53 c9 -8 -17
-118 -30 -130 -4 -4 -40 -20 -79 -35 -69 -26 -72 -27 -98 -10 -25 17 -26 21
-26 107 l0 90 113 -7 c61 -4 116 -11 120 -15z m137 -29 c0 -33 -4 -40 -29 -51
-42 -17 -71 1 -71 44 0 42 5 46 57 46 l43 0 0 -39z m1308 -18 c-38 -2 -98 -2
-135 0 -38 2 -7 3 67 3 74 0 105 -1 68 -3z m-623 -113 c3 -10 -1 -33 -10 -50
-15 -29 -17 -30 -89 -30 -56 0 -79 4 -96 18 -19 16 -20 21 -9 45 15 33 29 35
29 4 0 -13 7 -32 16 -43 15 -18 15 -18 9 4 -4 13 -4 34 -1 48 6 22 11 24 76
24 59 0 69 -3 75 -20z"/>
</g>
</svg>
