<?xml version="1.0" standalone="no"?>
<!DOCTYPE svg PUBLIC "-//W3C//DTD SVG 20010904//EN"
 "http://www.w3.org/TR/2001/REC-SVG-20010904/DTD/svg10.dtd">
<svg version="1.0" xmlns="http://www.w3.org/2000/svg"
 width="2816.000000pt" height="1536.000000pt" viewBox="0 0 2816.000000 1536.000000"
 preserveAspectRatio="xMidYMid meet">

<g transform="translate(0.000000,1536.000000) scale(0.100000,-0.100000)"
fill="currentColor" stroke="none">
<path d="M27345 15341 c-110 -33 -159 -64 -193 -123 l-30 -53 -213 -94 c-213
-94 -369 -171 -609 -302 -87 -47 -165 -80 -255 -108 -124 -38 -174 -52 -525
-142 -85 -22 -227 -61 -315 -85 -208 -59 -335 -93 -525 -143 -279 -72 -602
-159 -750 -201 -80 -22 -183 -49 -230 -60 -177 -40 -374 -91 -638 -164 -150
-42 -399 -108 -555 -147 -278 -70 -311 -78 -537 -144 -63 -18 -164 -46 -225
-61 -60 -15 -310 -80 -555 -145 -245 -65 -508 -134 -585 -153 -77 -20 -207
-54 -290 -76 -82 -22 -271 -72 -420 -110 -148 -39 -322 -84 -385 -101 -190
-50 -786 -208 -930 -246 -74 -19 -225 -60 -335 -90 -110 -30 -391 -104 -625
-164 -234 -60 -542 -141 -685 -179 -143 -39 -372 -100 -510 -135 -137 -36
-293 -76 -345 -90 -52 -14 -203 -53 -335 -86 -132 -33 -319 -82 -415 -109 -96
-27 -194 -54 -217 -60 -52 -13 -52 -13 -14 -173 16 -67 41 -174 55 -237 44
-197 87 -354 102 -370 15 -15 56 -6 374 80 36 10 160 43 275 73 116 30 278 73
360 95 296 80 666 172 692 172 19 0 2 -12 -63 -46 -186 -96 -247 -139 -290
-206 -18 -28 -33 -38 -66 -46 -79 -17 -831 -210 -962 -246 -71 -20 -158 -41
-192 -47 -35 -6 -68 -17 -74 -24 -8 -9 0 -50 29 -151 21 -77 42 -155 46 -174
16 -80 76 -327 85 -347 13 -31 39 -30 164 6 98 29 768 195 1050 262 134 31
139 32 149 13 26 -47 64 -71 143 -92 117 -32 273 -30 571 8 277 35 401 57 591
106 75 20 170 44 211 54 41 10 78 23 83 28 12 12 10 19 -92 312 -156 451 -252
791 -266 949 -7 70 -7 70 21 81 40 15 59 9 63 -20 7 -48 82 -376 108 -465 48
-169 268 -813 283 -828 10 -10 113 10 137 28 14 10 4 46 -81 296 -153 449
-200 603 -238 774 -47 211 -52 252 -37 270 11 13 80 22 80 11 0 -2 11 -62 26
-133 56 -282 87 -386 301 -1008 l58 -170 51 2 c64 3 104 18 104 40 0 9 -48
154 -107 322 -166 476 -170 490 -260 924 -19 89 -15 97 44 97 26 0 34 -5 38
-22 3 -13 19 -88 36 -168 46 -222 94 -402 145 -545 25 -71 81 -233 123 -359
43 -127 83 -232 90 -234 15 -5 122 16 141 28 10 6 3 37 -32 137 -204 576 -270
790 -313 1021 -31 162 -32 178 -17 190 23 18 70 15 80 -5 6 -10 17 -65 27
-123 35 -215 96 -439 201 -731 31 -85 78 -223 106 -306 55 -170 48 -163 138
-135 46 15 55 22 58 42 1 14 -23 95 -53 180 -147 408 -240 721 -290 976 -29
150 -30 160 -9 168 51 20 84 2 84 -45 0 -41 114 -499 155 -624 84 -253 216
-630 224 -638 9 -9 128 16 142 30 6 6 -39 156 -120 399 -71 214 -143 439 -160
499 -34 124 -91 384 -91 419 0 26 17 36 60 36 33 0 33 -2 50 -110 27 -171 84
-371 240 -840 54 -162 104 -315 110 -338 11 -44 11 -44 48 -37 75 13 113 26
119 41 6 15 -12 72 -187 589 -51 149 -104 326 -120 395 -39 175 -64 326 -57
344 4 11 19 16 45 16 l38 0 18 -107 c40 -236 78 -366 265 -912 56 -161 101
-296 101 -298 0 -8 96 6 126 17 13 5 27 16 30 24 3 7 -10 56 -29 107 -78 215
-209 601 -236 699 -58 205 -118 498 -108 524 5 13 16 16 44 14 l38 -3 12 -65
c47 -240 121 -506 218 -785 37 -104 84 -242 105 -305 57 -173 57 -173 101
-166 52 8 109 34 109 50 0 7 -30 98 -66 202 -116 333 -150 436 -198 594 -48
161 -121 502 -112 525 7 18 64 29 81 15 7 -6 16 -34 20 -63 23 -176 118 -526
220 -812 26 -71 55 -155 65 -185 11 -30 35 -100 54 -154 20 -55 36 -101 36
-103 0 -18 138 21 147 42 2 7 -56 195 -130 417 -130 388 -163 501 -223 781
-30 142 -28 150 31 145 33 -3 31 1 75 -193 22 -100 45 -190 93 -360 14 -49 77
-241 140 -425 109 -323 114 -335 140 -338 31 -4 137 24 137 36 0 4 -9 35 -21
67 -168 475 -267 782 -308 960 -26 108 -55 294 -48 301 3 3 23 8 45 11 l40 5
7 -58 c11 -91 42 -235 76 -352 43 -150 289 -884 301 -899 14 -17 33 -16 96 2
47 14 52 18 52 45 0 16 -14 69 -31 117 -16 48 -65 192 -108 318 -43 127 -84
244 -90 260 -36 88 -90 310 -121 490 -17 101 -18 111 -2 123 19 14 68 16 77 3
3 -6 17 -72 30 -147 13 -75 36 -182 50 -238 24 -95 98 -320 117 -358 5 -10 26
-73 47 -140 71 -225 131 -393 146 -407 15 -16 -5 -20 290 58 232 61 462 129
493 145 85 46 132 136 141 273 3 51 12 98 18 104 7 7 38 18 70 25 32 6 177 42
323 79 252 64 268 67 335 59 194 -22 260 -11 774 132 294 82 336 103 387 191
22 36 27 60 31 145 4 65 13 121 24 151 18 46 19 51 2 120 -20 83 -65 155 -113
179 -18 9 -64 49 -101 87 -120 124 -184 140 -375 96 -65 -15 -143 -36 -173
-46 -72 -25 -78 -24 -101 14 -30 48 -23 76 25 93 132 47 493 147 590 164 67
11 313 75 655 169 124 34 252 68 285 75 65 15 219 55 530 141 110 30 324 87
475 126 151 39 365 95 475 125 210 58 375 102 795 213 609 162 868 235 918
258 l52 24 0 74 c0 45 -6 84 -15 101 -8 16 -15 37 -15 47 0 19 -31 141 -56
222 -9 28 -32 83 -52 124 -28 57 -46 79 -74 95 l-37 21 -98 -24 c-54 -13 -117
-29 -140 -36 l-42 -13 -34 61 c-19 34 -40 80 -48 102 -17 49 -92 125 -122 124
-12 0 -49 -9 -82 -18z m-4692 -2424 c11 -21 25 -62 32 -93 11 -48 11 -57 -4
-73 -11 -13 -105 -42 -306 -95 -159 -42 -305 -79 -323 -82 -30 -6 -37 -2 -116
82 -46 49 -84 93 -85 99 -2 10 82 35 214 64 72 16 172 42 445 116 109 30 121
29 143 -18z"/>
<path d="M14780 11883 c-14 -2 -113 -22 -220 -44 -210 -43 -704 -140 -810
-160 -112 -20 -799 -157 -920 -184 -63 -13 -207 -41 -320 -60 -113 -20 -326
-60 -475 -90 -148 -31 -472 -95 -720 -144 -633 -126 -784 -165 -1094 -288
-187 -74 -375 -162 -541 -253 -163 -89 -394 -243 -407 -271 -13 -29 2 -57 195
-374 227 -371 326 -536 382 -635 29 -52 75 -128 102 -169 60 -90 61 -116 3
-116 -36 0 -42 4 -82 60 -24 33 -82 125 -130 205 -47 80 -112 186 -143 235
-87 138 -153 250 -290 489 -69 120 -132 223 -141 229 -13 8 -32 0 -87 -34 -39
-24 -110 -69 -159 -99 -139 -87 -395 -277 -647 -480 -293 -236 -637 -445 -796
-486 -100 -26 -222 -15 -415 36 -296 77 -346 75 -721 -39 -126 -38 -308 -93
-404 -121 -96 -29 -319 -96 -495 -150 -176 -54 -426 -130 -555 -168 -129 -39
-345 -104 -480 -145 -652 -200 -980 -300 -1135 -347 -292 -86 -339 -101 -372
-117 -31 -14 -33 -19 -33 -63 0 -58 58 -421 99 -620 40 -196 172 -724 221
-887 22 -73 59 -195 81 -270 84 -285 273 -828 370 -1068 61 -149 68 -165 77
-165 5 0 60 31 123 68 63 38 159 95 214 127 106 61 184 109 435 263 192 118
562 343 735 447 227 136 542 328 653 397 59 36 161 99 227 140 66 40 181 110
255 157 712 442 670 421 842 421 112 0 153 -10 313 -74 173 -70 417 -114 680
-123 276 -9 453 21 509 88 47 55 51 91 47 410 -3 338 5 407 71 624 61 201 194
437 325 576 74 79 213 191 296 238 91 52 296 130 400 152 175 38 252 13 380
-120 63 -67 84 -99 165 -258 51 -100 110 -204 131 -231 53 -67 203 -179 266
-198 226 -68 503 -52 800 48 202 68 292 122 383 232 58 70 86 134 105 241 9
50 26 144 37 210 25 142 53 207 121 275 47 47 85 68 360 198 36 17 91 54 122
81 75 66 72 65 772 211 182 38 461 99 620 135 360 82 521 115 561 117 17 1 62
-15 104 -35 40 -21 83 -37 95 -37 57 0 499 103 519 121 5 4 -7 71 -28 156 -20
81 -47 191 -59 243 -13 52 -51 201 -84 330 -34 129 -77 305 -97 390 -21 85
-52 211 -71 280 -19 69 -51 197 -71 285 -36 160 -47 193 -68 207 -12 8 -83 8
-126 1z m-3121 -2723 c91 -44 169 -126 212 -226 32 -75 34 -85 34 -199 0 -113
-2 -123 -27 -167 -78 -131 -253 -215 -557 -267 -144 -25 -349 -28 -426 -7
-111 29 -227 109 -268 183 -78 145 -75 373 5 373 41 0 59 -25 93 -128 17 -54
111 -205 158 -254 27 -28 144 -108 159 -108 20 0 4 34 -38 77 -92 97 -134 214
-134 377 0 136 79 245 216 298 95 36 310 76 419 77 80 1 97 -2 154 -29z"/>
<path d="M2670 8096 c-104 -32 -466 -162 -830 -300 -1033 -388 -962 -359 -982
-413 -17 -49 -17 -1025 1 -1318 34 -582 44 -686 117 -1250 56 -439 57 -443
110 -715 121 -620 153 -764 224 -1032 54 -203 139 -468 150 -468 5 0 30 28 56
62 26 35 96 115 155 178 58 63 144 158 190 210 84 97 279 313 404 449 39 42
138 153 220 246 83 93 188 210 235 260 47 50 125 136 175 190 49 55 121 134
160 175 77 82 329 364 474 530 88 100 92 107 88 145 -4 45 -101 301 -182 480
-86 191 -135 339 -330 982 -74 246 -92 319 -195 764 -60 263 -130 711 -130
837 0 17 -23 14 -110 -12z"/>
<path d="M660 7356 c-157 -58 -399 -164 -442 -194 -97 -67 -148 -153 -172
-293 -67 -385 -55 -956 44 -2024 23 -256 20 -228 65 -510 76 -470 122 -687
256 -1220 30 -118 136 -482 186 -640 36 -113 55 -146 113 -198 126 -114 309
-118 451 -10 59 44 199 204 199 227 0 8 -22 79 -49 158 -67 196 -165 554 -226
833 -20 88 -44 192 -55 230 -10 39 -30 131 -45 205 -14 74 -30 154 -36 177 -5
24 -21 132 -34 240 -14 109 -34 248 -45 308 -10 61 -24 162 -29 225 -18 202
-52 553 -61 630 -12 98 -37 471 -50 729 -18 368 -10 957 16 1114 7 45 3 45
-86 13z"/>
</g>
</svg>
