<?xml version="1.0" standalone="no"?>
<!DOCTYPE svg PUBLIC "-//W3C//DTD SVG 20010904//EN"
 "http://www.w3.org/TR/2001/REC-SVG-20010904/DTD/svg10.dtd">
<svg version="1.0" xmlns="http://www.w3.org/2000/svg"
 width="1400.000000pt" height="1000.000000pt" viewBox="0 0 1400.000000 1000.000000"
 preserveAspectRatio="xMidYMid meet">

<g transform="translate(0.000000,1000.000000) scale(0.100000,-0.100000)"
fill="currentColor" stroke="none">
<path d="M5806 9151 c-15 -23 7 -33 68 -29 l61 3 5 -247 c3 -135 8 -249 11
-253 4 -3 9 47 13 112 12 213 15 402 6 408 -19 12 -157 18 -164 6z"/>
<path d="M6115 8940 c-11 -17 4 -973 15 -984 6 -6 10 -110 10 -247 0 -207 -2
-238 -16 -243 -21 -8 -153 -8 -193 0 -17 4 -31 13 -31 21 0 8 -4 12 -9 9 -5
-3 -12 -53 -16 -111 -5 -80 -11 -110 -26 -129 -18 -23 -27 -62 -11 -54 4 3 22
11 40 19 l33 14 -5 88 c-5 87 -4 88 20 97 14 6 65 10 114 10 102 0 103 -1 113
-87 5 -45 3 -55 -19 -78 -31 -33 -30 -35 6 -35 18 0 37 -8 47 -20 23 -26 88
-28 102 -3 9 16 32 17 293 15 156 -2 287 -8 293 -13 17 -16 25 -10 25 21 l0
30 -262 1 c-323 2 -297 0 -313 22 -16 22 -9 127 9 139 6 4 124 7 261 5 246 -2
252 -2 298 -27 43 -23 47 -28 47 -62 0 -33 3 -38 24 -38 23 0 23 1 12 38 -18
59 -33 78 -78 103 -42 23 -49 24 -300 24 -275 0 -286 2 -274 49 l6 26 549 0
c600 0 579 2 562 -58 -5 -17 -12 -60 -16 -96 -8 -69 -22 -85 -64 -71 -10 3
-29 1 -42 -4 -13 -5 -19 -10 -12 -10 18 -1 33 -66 33 -141 0 -38 6 -77 15 -94
8 -15 15 -34 15 -42 0 -16 60 -74 77 -74 6 0 19 -7 28 -16 8 -9 35 -18 58 -21
23 -2 62 -11 87 -19 210 -64 227 -73 199 -101 -10 -10 23 -28 66 -35 25 -4 32
-38 11 -50 -41 -23 -50 -66 -50 -243 -1 -190 11 -256 51 -282 17 -12 23 -24
23 -53 0 -21 7 -45 15 -54 16 -16 22 -134 7 -151 -5 -6 -16 -31 -26 -56 -10
-28 -24 -49 -36 -52 -11 -3 -23 -20 -29 -43 -17 -60 -15 -2535 2 -2556 6 -9
21 -18 32 -20 12 -2 24 -16 31 -36 6 -19 15 -37 20 -40 5 -4 20 -29 33 -57 13
-27 28 -57 33 -65 4 -8 14 -26 20 -40 13 -25 21 -37 45 -62 25 -27 43 -38 62
-38 17 0 20 9 25 88 4 48 11 101 16 118 6 17 10 147 11 290 0 142 5 286 11
319 5 33 13 193 18 355 6 193 13 305 21 325 9 21 14 135 19 370 3 215 10 347
17 360 6 12 13 108 15 234 5 193 7 216 24 228 24 18 64 17 64 -2 0 -9 9 -15
25 -15 14 0 25 5 25 10 0 6 -6 10 -14 10 -28 0 -236 202 -294 286 -16 24 -101
165 -124 206 -9 17 -22 36 -27 41 -6 6 -11 24 -11 39 0 16 -6 41 -13 56 -21
42 -39 217 -32 317 11 163 17 210 31 230 8 11 14 26 14 34 0 7 9 32 19 55 11
23 22 49 25 59 7 22 27 22 54 -1 25 -22 29 -41 15 -67 -6 -11 -21 -56 -33 -99
-20 -73 -22 -95 -17 -290 5 -232 6 -237 82 -391 64 -132 156 -255 189 -255 23
0 36 130 36 352 0 148 5 237 15 291 10 52 15 140 15 258 0 221 22 327 73 349
35 15 61 34 75 53 7 9 21 17 30 17 10 0 24 8 33 18 8 9 26 26 39 37 40 32 70
76 70 101 0 13 -8 39 -17 59 -14 29 -15 40 -5 55 10 16 8 20 -11 26 -12 3 -36
22 -53 40 -18 19 -41 34 -51 34 -18 0 -70 45 -125 107 -17 19 -20 124 -23 723
0 71 -1 74 -25 81 l-25 6 25 4 c20 3 25 10 25 34 0 26 -4 30 -31 33 -23 2 -40
-4 -60 -24 -16 -14 -39 -30 -51 -35 -14 -5 -23 -17 -23 -29 0 -11 -7 -23 -15
-26 -8 -4 -15 -10 -15 -15 0 -13 -48 -81 -91 -126 -35 -38 -45 -43 -84 -43
-24 0 -50 3 -59 6 -20 8 -21 34 -1 34 8 0 19 9 25 19 5 11 24 35 40 53 17 18
30 36 30 41 0 5 11 23 25 39 25 29 25 48 2 48 -12 0 -84 -90 -95 -118 -9 -25
-66 -80 -90 -87 -38 -11 -49 8 -44 72 2 37 10 63 20 73 10 8 34 38 55 66 51
71 41 76 -158 93 -49 4 -97 10 -106 14 -10 5 -28 -4 -55 -28 -102 -92 -114
-109 -115 -168 0 -18 -8 -51 -17 -74 l-17 -42 -300 -2 c-165 0 -339 -1 -387 0
l-86 1 -11 31 c-6 18 -11 81 -11 141 0 105 -1 109 -31 151 l-30 42 4 130 c3
72 8 145 12 163 6 28 5 32 -14 32 -34 0 -41 -31 -41 -183 0 -129 2 -147 20
-170 11 -14 20 -29 20 -35 0 -5 10 -31 21 -58 19 -41 21 -61 17 -141 -7 -123
-7 -123 130 -124 59 -1 238 -5 397 -8 l290 -6 3 -80 c5 -136 74 -121 -535
-119 -290 0 -540 -3 -556 -7 -21 -6 -29 -4 -36 10 -6 10 -13 93 -16 186 -6
166 -16 221 -31 182 -3 -10 -6 -37 -6 -60 0 -23 1 -256 3 -518 l3 -475 -24
-34 c-22 -30 -25 -32 -34 -15 -6 9 -21 32 -33 50 -11 18 -18 37 -14 41 12 15
-5 705 -19 739 -12 32 -17 835 -5 855 8 13 82 13 90 1 3 -6 8 -97 11 -203 4
-177 14 -237 29 -196 4 9 5 110 3 225 l-3 208 -82 3 c-52 2 -84 -1 -88 -8z
m1305 -1029 l35 -7 7 -114 c8 -126 -4 -205 -31 -218 -9 -5 -260 -9 -558 -10
l-543 -2 -4 22 c-11 52 -13 317 -2 328 12 12 1036 14 1096 1z"/>
<path d="M5705 8714 c-4 -16 -11 -43 -15 -60 -4 -18 -5 -52 -1 -75 4 -24 7
-168 6 -319 l0 -275 -65 -3 c-35 -2 -73 1 -85 7 -11 5 -28 12 -38 15 -11 3
-21 15 -24 25 -4 17 -6 17 -29 -6 -38 -38 -31 -47 31 -39 44 5 55 3 55 -8 0
-15 17 -20 102 -31 l46 -6 7 -87 c3 -48 11 -125 17 -172 6 -46 11 -114 12
-150 l1 -65 -122 -5 c-111 -5 -124 -8 -147 -29 -30 -29 -32 -37 -9 -45 9 -4
31 3 52 17 31 20 50 24 128 25 l93 1 5 -27 c3 -15 9 -43 13 -63 10 -43 -9 -89
-36 -90 -62 -3 -158 4 -176 12 -12 6 -29 24 -39 40 -9 17 -21 27 -27 24 -19
-12 -10 -58 18 -90 26 -28 31 -31 47 -19 22 17 182 19 235 4 53 -15 58 4 17
67 -4 7 -9 94 -11 195 -3 101 -11 239 -19 308 -12 95 -15 223 -15 528 1 286
-2 406 -10 414 -8 8 -13 3 -17 -18z"/>
<path d="M6810 8650 c0 -5 4 -10 9 -10 6 0 13 5 16 10 3 6 -1 10 -9 10 -9 0
-16 -4 -16 -10z"/>
<path d="M5916 8544 c-4 -38 -11 -186 -16 -329 -5 -143 -12 -342 -16 -442 -5
-115 -4 -183 2 -183 20 0 32 23 25 44 -4 11 -2 55 5 96 17 97 31 839 17 864
-8 15 -12 3 -17 -50z"/>
<path d="M8708 7513 c12 -2 30 -2 40 0 9 3 -1 5 -23 4 -22 0 -30 -2 -17 -4z"/>
<path d="M9230 7516 c0 -8 61 -12 66 -4 3 4 -11 8 -30 8 -20 0 -36 -2 -36 -4z"/>
<path d="M9168 7443 c6 -2 18 -2 25 0 6 3 1 5 -13 5 -14 0 -19 -2 -12 -5z"/>
<path d="M9488 7443 c7 -3 16 -2 19 1 4 3 -2 6 -13 5 -11 0 -14 -3 -6 -6z"/>
<path d="M9428 7373 c7 -3 16 -2 19 1 4 3 -2 6 -13 5 -11 0 -14 -3 -6 -6z"/>
<path d="M9490 7340 c0 -5 9 -10 20 -10 11 0 20 5 20 10 0 6 -9 10 -20 10 -11
0 -20 -4 -20 -10z"/>
<path d="M9710 7306 c0 -2 7 -6 15 -10 8 -3 15 -1 15 4 0 6 -7 10 -15 10 -8 0
-15 -2 -15 -4z"/>
<path d="M5975 7271 c-8 -14 10 -22 30 -15 13 5 14 8 3 15 -17 11 -26 11 -33
0z"/>
<path d="M9790 7235 c0 -8 5 -15 10 -15 6 0 10 7 10 15 0 8 -4 15 -10 15 -5 0
-10 -7 -10 -15z"/>
<path d="M9730 7171 c0 -5 7 -11 15 -15 8 -3 15 -11 15 -17 0 -13 76 -89 89
-89 5 0 11 -10 13 -22 2 -12 9 -23 16 -26 21 -7 13 23 -13 54 -15 16 -33 40
-41 54 -15 24 -72 70 -87 70 -4 0 -7 -4 -7 -9z"/>
<path d="M9857 7174 c-8 -8 1 -24 14 -24 5 0 9 7 9 15 0 15 -12 20 -23 9z"/>
<path d="M9890 7132 c0 -5 9 -19 20 -32 11 -13 20 -29 20 -37 0 -7 4 -13 10
-13 5 0 16 -15 23 -32 12 -30 14 -31 19 -11 6 21 -6 42 -43 82 -8 10 -18 25
-22 34 -7 17 -27 24 -27 9z"/>
<path d="M9902 6980 c0 -14 2 -19 5 -12 2 6 2 18 0 25 -3 6 -5 1 -5 -13z"/>
<path d="M5565 6930 c-3 -5 2 -17 12 -27 18 -18 20 -53 3 -53 -4 0 -11 -11
-14 -25 -5 -18 -15 -26 -44 -31 -90 -17 35 -21 483 -13 259 4 559 9 668 11
l198 3 -5 29 c-3 16 -6 48 -6 72 l0 44 -644 0 c-403 0 -647 -4 -651 -10z
m1145 -53 c-26 -14 -50 -12 -50 4 0 5 17 9 38 9 37 0 37 0 12 -13z m124 -6
c15 -16 15 -19 2 -24 -9 -4 -19 0 -23 7 -5 7 -17 18 -28 24 -19 11 -19 11 6
12 14 0 34 -8 43 -19z"/>
<path d="M9970 6838 c0 -16 5 -28 10 -28 13 0 13 20 0 40 -8 12 -10 9 -10 -12z"/>
<path d="M10070 6815 c0 -8 5 -15 10 -15 6 0 10 7 10 15 0 8 -4 15 -10 15 -5
0 -10 -7 -10 -15z"/>
<path d="M4516 6775 c4 -10 21 -15 54 -15 60 0 80 -18 80 -71 0 -22 5 -49 10
-59 9 -17 6 -21 -17 -26 -16 -4 -34 -16 -41 -26 -10 -14 -21 -18 -42 -13 -23
5 -29 2 -33 -17 -3 -13 -7 -194 -8 -403 -1 -209 -5 -400 -9 -425 -6 -38 -8
-31 -9 45 -2 108 -10 331 -16 435 -2 41 0 140 5 220 6 106 5 160 -4 200 -7 30
-15 48 -18 40 -8 -23 -8 -4540 1 -4745 7 -163 8 -170 11 -75 1 58 4 116 5 130
2 14 7 97 11 185 13 254 20 126 21 -376 0 -251 4 -462 7 -468 12 -19 51 -12
73 12 18 19 20 36 20 140 1 64 -3 120 -8 123 -12 7 -11 71 1 79 13 8 13 52 0
60 -14 9 -13 68 2 83 9 9 12 212 12 865 -1 995 -2 1108 -15 1123 -7 8 -6 14 1
19 14 9 13 55 -2 55 -10 0 -10 2 -1 8 10 6 13 127 15 517 2 281 2 546 1 590
-1 44 -1 319 1 610 2 449 1 534 -11 554 -11 17 -13 41 -9 95 4 39 8 118 9 176
1 58 6 111 11 118 5 8 19 12 32 9 33 -6 49 15 34 44 -9 17 -9 27 1 45 16 31
-3 104 -29 105 -14 0 -13 2 3 8 11 5 146 11 300 15 323 8 477 15 484 21 2 3
-208 5 -467 5 -415 0 -471 -2 -466 -15z m-9 -1378 c-1 -45 -3 -5 -3 88 0 94 2
130 3 82 2 -48 2 -125 0 -170z m3 -377 c1 -111 -2 -205 -5 -208 -3 -3 -5 91
-5 208 0 117 2 211 5 208 3 -3 5 -96 5 -208z m-3 -632 c-3 -8 -6 -5 -6 6 -1
11 2 17 5 13 3 -3 4 -12 1 -19z m6 -366 c-3 -119 -7 -219 -9 -221 -2 -2 -4
101 -4 230 0 129 4 228 9 221 4 -7 6 -111 4 -230z m-6 -529 c-1 -43 -3 -10 -3
72 0 83 2 118 3 78 2 -40 2 -107 0 -150z m0 -510 c-2 -16 -4 -5 -4 22 0 28 2
40 4 28 2 -13 2 -35 0 -50z m0 -80 c-3 -10 -5 -2 -5 17 0 19 2 27 5 18 2 -10
2 -26 0 -35z m0 -410 c-3 -10 -5 -2 -5 17 0 19 2 27 5 18 2 -10 2 -26 0 -35z
m0 -65 c-3 -7 -5 -2 -5 12 0 14 2 19 5 13 2 -7 2 -19 0 -25z m0 -75 c-3 -10
-5 -4 -5 12 0 17 2 24 5 18 2 -7 2 -21 0 -30z"/>
<path d="M10000 6734 c0 -47 3 -57 20 -61 19 -5 20 -14 19 -217 -1 -257 -1
-255 10 -237 15 24 11 399 -5 451 -7 25 -16 62 -19 83 -9 56 -25 44 -25 -19z"/>
<path d="M4465 6710 c3 -5 8 -10 11 -10 2 0 4 5 4 10 0 6 -5 10 -11 10 -5 0
-7 -4 -4 -10z"/>
<path d="M4551 6680 c-12 -19 -20 -46 -19 -60 6 -50 87 -32 88 20 0 8 -11 28
-24 45 l-24 29 -21 -34z"/>
<path d="M10106 6244 c-9 -24 -7 -62 4 -69 6 -4 10 12 10 39 0 48 -4 56 -14
30z"/>
<path d="M10007 6193 c-4 -3 -7 -24 -7 -47 0 -49 18 -38 27 17 5 34 -3 47 -20
30z"/>
<path d="M10066 6124 c-11 -28 -6 -54 9 -54 10 0 15 11 15 35 0 36 -13 47 -24
19z"/>
<path d="M9966 6075 c-4 -19 -11 -35 -16 -35 -6 0 -10 -10 -10 -22 0 -22 1
-22 25 6 14 16 25 42 25 58 0 39 -16 35 -24 -7z"/>
<path d="M10036 6037 c-5 -15 -6 -31 -2 -34 11 -11 18 5 14 34 l-4 28 -8 -28z"/>
<path d="M10000 5959 c0 -17 4 -28 10 -24 6 3 10 17 10 31 0 13 -4 24 -10 24
-5 0 -10 -14 -10 -31z"/>
<path d="M9967 5923 c-4 -3 -7 -17 -7 -30 0 -33 24 -24 28 10 3 26 -7 35 -21
20z"/>
<path d="M9936 5861 c-4 -7 -5 -15 -2 -18 9 -9 19 4 14 18 -4 11 -6 11 -12 0z"/>
<path d="M9901 5804 c0 -11 3 -14 6 -6 3 7 2 16 -1 19 -3 4 -6 -2 -5 -13z"/>
<path d="M9760 5780 c0 -5 5 -10 10 -10 6 0 10 5 10 10 0 6 -4 10 -10 10 -5 0
-10 -4 -10 -10z"/>
<path d="M9828 5732 c-25 -20 -51 -47 -57 -59 -6 -13 -17 -23 -26 -23 -8 0
-15 -4 -15 -10 0 -15 16 -12 34 5 8 8 22 15 31 15 8 0 19 8 22 18 4 9 12 21
20 25 7 4 13 15 13 22 0 8 7 15 15 15 8 0 15 7 15 15 0 19 3 20 -52 -23z"/>
<path d="M9726 5751 c-4 -5 -2 -12 3 -15 5 -4 12 -2 15 3 4 5 2 12 -3 15 -5 4
-12 2 -15 -3z"/>
<path d="M9640 5579 c-30 -22 -68 -46 -85 -54 -16 -8 -37 -19 -45 -24 -8 -5
-42 -22 -75 -37 -33 -16 -62 -31 -65 -34 -5 -6 -90 -25 -180 -41 -25 -4 -117
-8 -205 -9 -239 -1 -227 -17 16 -22 226 -4 249 -2 249 18 0 10 15 14 55 14 40
0 57 4 61 15 4 8 17 15 29 15 28 0 125 47 125 61 0 5 12 9 26 9 18 0 28 6 31
21 4 14 12 19 29 17 12 -2 31 5 41 14 10 10 34 31 53 48 52 46 8 37 -60 -11z"/>
<path d="M8440 5505 c0 -10 7 -15 18 -13 21 4 19 22 -2 26 -10 2 -16 -3 -16
-13z"/>
<path d="M8516 5483 c-12 -12 -5 -23 14 -23 11 0 20 4 20 9 0 11 -26 22 -34
14z"/>
<path d="M8574 5448 c-12 -19 14 -31 48 -22 l32 9 -37 12 c-24 7 -39 8 -43 1z"/>
<path d="M8685 5400 c3 -5 24 -10 46 -10 24 0 38 4 34 10 -3 6 -24 10 -46 10
-24 0 -38 -4 -34 -10z"/>
<path d="M5455 5304 c-23 -23 -22 -299 1 -308 9 -3 55 -6 104 -6 94 0 120 5
120 24 -1 29 -22 41 -82 46 -59 5 -63 7 -63 30 0 23 4 25 60 30 48 4 61 9 63
24 6 29 -15 41 -71 41 -49 0 -52 2 -52 25 0 24 4 25 65 30 59 5 65 7 68 29 6
38 -13 46 -108 48 -69 1 -93 -2 -105 -13z"/>
<path d="M5805 5313 c-110 -28 -142 -212 -51 -296 24 -22 38 -27 82 -27 46 0
58 4 84 30 33 32 35 41 20 71 -14 26 -36 24 -62 -6 -31 -36 -61 -32 -81 10
-21 44 -21 77 -2 115 19 36 58 41 75 10 12 -23 52 -27 69 -6 17 20 0 49 -47
81 -36 25 -49 27 -87 18z"/>
<path d="M6007 5299 c-16 -9 -17 -26 -16 -149 1 -154 8 -173 54 -152 21 10 25
18 25 56 0 51 22 69 41 33 7 -12 15 -24 18 -27 4 -3 12 -17 18 -32 12 -27 15
-28 85 -25 72 2 73 3 87 35 13 28 19 32 52 32 39 0 63 -16 74 -50 4 -13 15
-20 31 -20 29 0 32 26 10 92 -8 24 -18 59 -21 78 -9 47 -46 121 -68 134 -33
21 -66 -11 -92 -89 -13 -38 -24 -76 -25 -83 0 -7 -9 -33 -21 -58 -23 -51 -35
-49 -64 12 -16 35 -16 37 4 58 16 16 21 35 21 72 0 48 -2 51 -39 72 -42 24
-141 30 -174 11z m138 -89 c0 -21 -5 -26 -33 -28 -22 -2 -34 2 -38 12 -12 30
4 47 38 44 28 -2 33 -7 33 -28z m244 -76 c-12 -14 -14 -14 -25 1 -11 15 -10
36 3 75 3 10 10 2 20 -23 13 -31 13 -40 2 -53z"/>
<path d="M6556 5288 c-23 -32 -23 -259 -1 -278 26 -22 45 -4 46 42 0 52 16
136 18 98 1 -14 9 -38 19 -55 10 -16 22 -43 26 -58 8 -33 42 -49 74 -34 21 10
22 15 22 142 0 121 -2 134 -21 151 -27 25 -38 7 -40 -66 0 -30 -4 -64 -9 -75
-7 -18 -8 -17 -15 10 -5 17 -14 39 -21 50 -8 11 -14 27 -14 35 0 22 -21 47
-47 54 -15 5 -26 1 -37 -16z"/>
<path d="M5760 4793 c-14 -3 -28 -10 -32 -17 -4 -6 -8 -72 -8 -147 0 -149 6
-165 54 -153 28 7 39 31 34 74 -3 24 0 25 54 30 64 6 81 17 76 51 -3 22 -8 24
-65 27 -52 2 -63 6 -68 23 -10 30 3 38 70 41 60 3 60 3 63 36 3 25 -1 32 -15
33 -10 0 -45 2 -78 4 -33 1 -71 1 -85 -2z"/>
<path d="M6070 4783 c-10 -7 -24 -33 -30 -56 -6 -23 -15 -51 -20 -62 -18 -38
-50 -144 -50 -164 0 -40 67 -33 77 8 8 33 20 41 61 41 27 0 36 -6 54 -36 15
-25 26 -34 42 -32 18 3 21 8 18 48 -2 24 -10 57 -18 72 -8 15 -14 37 -14 49 0
12 -9 40 -19 63 -11 23 -22 48 -24 57 -7 22 -52 29 -77 12z m44 -122 c14 -27
7 -51 -15 -51 -12 0 -19 31 -13 56 8 31 10 30 28 -5z"/>
<path d="M6281 4776 c-7 -8 -11 -59 -12 -127 -1 -159 -1 -157 20 -169 28 -15
51 12 51 61 0 21 5 40 10 41 6 0 15 1 21 2 5 1 22 -21 37 -49 19 -35 34 -51
51 -53 41 -6 46 12 17 68 l-27 51 26 30 c42 51 29 115 -28 142 -43 21 -150 23
-166 3z m137 -85 c-3 -22 -8 -26 -38 -26 -26 0 -36 5 -38 19 -5 26 21 44 54
38 20 -4 25 -9 22 -31z"/>
<path d="M4538 1254 c-13 -13 -9 -38 12 -79 l21 -40 -27 -22 c-47 -37 -15 -65
54 -47 12 4 22 10 22 14 0 5 -10 12 -22 16 -20 7 -18 9 17 16 22 5 55 12 73
15 31 5 41 16 24 27 -4 2 -14 1 -22 -4 -31 -19 -56 40 -29 67 9 9 16 6 30 -10
l17 -22 12 29 c6 16 9 30 7 32 -8 8 -183 16 -189 8z"/>
</g>
</svg>
