<?xml version="1.0" standalone="no"?>
<!DOCTYPE svg PUBLIC "-//W3C//DTD SVG 20010904//EN"
 "http://www.w3.org/TR/2001/REC-SVG-20010904/DTD/svg10.dtd">
<svg version="1.0" xmlns="http://www.w3.org/2000/svg"
 width="1570.000000pt" height="1250.000000pt" viewBox="0 0 1570.000000 1250.000000"
 preserveAspectRatio="xMidYMid meet">

<g transform="translate(0.000000,1250.000000) scale(0.100000,-0.100000)"
fill="currentColor" stroke="none">
<path d="M13096 10959 c-8 -12 -36 -88 -62 -168 -26 -80 -51 -152 -57 -158 -7
-10 -1098 -13 -5392 -13 l-5382 0 -16 38 c-9 20 -33 82 -53 137 -44 122 -61
155 -77 155 -24 0 -194 -50 -272 -81 -125 -48 -141 -65 -199 -211 l-14 -36
-165 -4 c-165 -3 -165 -3 -208 -33 -84 -60 -79 -10 -77 -790 l3 -690 2420 -3
c1699 -2 2452 0 2529 8 142 14 379 54 636 107 122 25 130 26 390 19 146 -4
269 -11 273 -15 5 -5 14 -33 21 -62 l11 -54 1895 0 1895 0 3 672 2 671 63 7
c34 4 76 5 92 3 l30 -3 5 -675 5 -675 110 -3 c61 -2 120 0 133 3 l22 5 0 675
0 675 90 0 90 0 1 -127 c1 -71 5 -375 8 -678 l6 -550 122 0 c67 0 125 4 130 8
4 5 10 309 13 675 l5 667 90 0 90 0 5 -675 5 -675 128 -3 c70 -1 128 -1 129 0
2 2 5 307 8 678 l5 675 90 0 90 0 5 -675 5 -675 30 -3 c17 -2 76 -1 133 3
l102 7 0 668 c0 600 2 668 16 674 20 8 122 8 152 0 l22 -6 0 -668 c0 -600 2
-668 16 -674 9 -3 67 -6 129 -6 94 0 114 3 119 16 3 9 6 312 6 675 l0 659 23
5 c12 3 54 5 92 3 l70 -3 5 -675 5 -675 285 0 285 0 3 655 c2 456 0 667 -8
693 -14 47 -71 111 -124 140 -39 21 -56 22 -366 27 l-325 5 -90 175 -90 175
-77 3 c-69 3 -78 1 -92 -19z"/>
<path d="M896 10310 c-42 -27 -73 -83 -93 -170 -15 -62 -18 -119 -17 -336 1
-237 3 -267 23 -332 27 -90 57 -126 117 -141 26 -7 48 -10 50 -8 3 2 6 708 4
975 0 28 -3 32 -27 32 -16 0 -41 -9 -57 -20z"/>
<path d="M959 9055 c-21 -44 -24 -66 -27 -192 -3 -120 0 -153 18 -221 12 -45
28 -89 36 -99 11 -15 13 16 13 222 -1 132 -4 263 -8 290 l-8 50 -24 -50z"/>
<path d="M10220 8990 c-146 -3 -271 -9 -277 -13 -7 -5 -13 -21 -13 -38 l0 -29
-212 0 c-117 0 -305 5 -418 10 -449 20 -1606 31 -4170 40 -1477 6 -2716 12
-2755 14 -38 3 -332 8 -653 11 l-582 6 2 -333 3 -333 1656 -3 1657 -2 6 -31
c3 -17 6 -57 6 -89 l0 -57 -427 -6 c-236 -4 -979 -7 -1652 -7 l-1224 0 5 -91
c7 -109 16 -121 103 -143 160 -41 594 -76 1178 -97 262 -9 321 -8 334 3 9 7
29 42 45 77 l28 63 148 -7 c81 -4 150 -9 154 -11 3 -2 11 -27 17 -55 6 -28 15
-59 21 -68 9 -18 92 -18 1982 -14 1964 5 1974 5 2168 -16 107 -12 281 -30 385
-41 251 -25 366 -38 505 -55 63 -8 160 -19 215 -25 167 -18 320 -49 407 -80
210 -77 406 -270 486 -477 43 -110 56 -196 49 -322 -11 -208 -93 -380 -254
-531 -115 -109 -269 -177 -451 -199 -116 -14 -1714 4 -1807 20 -235 41 -440
220 -515 449 -44 135 -54 627 -15 750 32 103 83 188 160 269 41 43 75 81 75
84 0 5 -951 -2 -957 -7 -1 -1 28 -25 64 -53 125 -99 209 -224 248 -368 27 -99
38 -369 26 -645 -14 -311 -33 -407 -120 -590 -40 -84 -40 -125 0 -179 61 -85
-57 -78 1449 -85 900 -4 1364 -3 1425 4 180 21 314 71 474 179 51 35 116 74
144 87 135 62 335 0 472 -147 66 -71 115 -152 169 -284 24 -59 47 -109 49
-112 3 -2 50 12 105 31 55 20 104 36 110 36 6 0 25 -37 42 -82 37 -97 40 -93
-79 -133 -111 -37 -108 -32 -76 -104 15 -33 31 -61 34 -61 4 0 47 13 96 30 49
16 94 30 101 30 12 0 64 -132 64 -162 0 -12 -26 -25 -99 -49 -54 -18 -105 -37
-112 -43 -17 -13 -79 -163 -79 -190 0 -10 10 -36 22 -57 17 -31 39 -47 112
-84 50 -25 103 -53 117 -62 25 -16 30 -15 115 15 105 36 104 37 140 -63 17
-47 21 -71 14 -80 -5 -7 -43 -22 -83 -34 -105 -31 -103 -29 -81 -91 10 -28 24
-56 31 -61 8 -7 36 -2 92 16 44 15 87 25 97 23 11 -2 26 -31 45 -83 34 -96 36
-93 -88 -126 -65 -17 -87 -28 -93 -43 -4 -12 -20 -50 -34 -86 -14 -36 -26 -78
-26 -94 0 -46 44 -93 128 -136 42 -21 90 -48 106 -59 l29 -19 83 29 c45 16 87
29 92 29 13 0 74 -159 68 -175 -2 -7 -43 -24 -90 -39 -47 -15 -86 -29 -86 -33
0 -22 36 -116 46 -120 7 -2 50 7 95 22 98 31 95 32 130 -73 26 -79 27 -78 -93
-118 -64 -21 -78 -29 -73 -43 4 -9 17 -53 30 -98 59 -202 70 -389 34 -553 -36
-167 -11 -243 98 -296 51 -25 72 -29 167 -33 60 -2 150 2 200 9 128 16 591 85
776 115 85 14 261 41 390 60 129 20 303 47 385 60 83 14 326 52 540 85 215 33
415 64 445 69 30 6 93 15 139 21 87 12 117 24 235 93 l68 41 -6 85 c-31 399
-146 868 -317 1301 -70 176 -265 570 -414 835 -274 488 -358 641 -430 785
-289 577 -442 1008 -501 1410 -20 139 -27 127 72 135 47 4 88 5 90 2 3 -3 12
-45 19 -93 86 -527 304 -1075 720 -1809 353 -622 501 -911 623 -1216 75 -188
154 -429 197 -599 48 -188 115 -589 115 -684 0 -18 3 -36 6 -39 9 -8 157 95
212 147 58 56 68 92 53 208 -32 251 -131 662 -220 916 -131 372 -269 658 -581
1202 -205 359 -202 353 -318 585 -285 571 -428 966 -473 1310 -17 132 -6 378
21 484 65 250 213 461 415 596 107 71 202 110 337 141 245 54 285 76 317 172
24 69 17 106 -52 269 -30 71 -58 142 -63 158 l-10 30 -544 -3 c-780 -4 -2235
-32 -2787 -54 l-302 -11 -44 36 c-43 35 -90 60 -105 55 -4 -1 -126 -5 -272 -8z
m415 -125 c0 -20 -8 -20 -332 -23 l-333 -2 0 25 0 26 333 -3 c324 -3 332 -3
332 -23z m-2014 -104 c33 -33 39 -45 39 -81 0 -36 -6 -48 -39 -81 -34 -35 -44
-39 -88 -39 -42 0 -53 4 -80 33 -17 17 -34 46 -38 63 -14 72 50 144 129 144
31 0 45 -7 77 -39z m-1332 10 c54 -11 59 -17 110 -139 196 -473 250 -616 239
-627 -11 -11 -376 14 -520 36 -134 20 -166 32 -192 72 -13 18 -176 409 -245
585 l-21 53 23 8 c70 27 492 35 606 12z m3366 -11 c0 -13 -46 -15 -342 -18
-292 -2 -343 0 -343 12 0 8 6 17 13 19 6 3 161 5 342 4 286 -2 330 -4 330 -17z
m-2 -94 c3 -8 3 -17 0 -20 -4 -3 -159 -6 -345 -6 -288 0 -338 2 -338 14 0 20
33 22 381 24 247 2 298 0 302 -12z m204 -108 c5 -7 16 -28 23 -46 17 -43 1
-99 -42 -148 -58 -66 -41 -64 -538 -64 -436 0 -453 1 -480 20 -34 24 -70 95
-70 138 0 17 7 49 16 71 l16 40 532 1 c420 0 535 -2 543 -12z m-2507 -251 c41
-27 67 -69 75 -122 12 -71 -56 -144 -142 -152 -39 -4 -55 0 -82 19 -74 50 -97
119 -65 189 37 84 141 116 214 66z m2319 -1781 c68 -201 81 -250 70 -257 -8
-5 -48 -21 -89 -35 -41 -15 -172 -62 -290 -105 -118 -44 -217 -76 -222 -71
-15 15 -168 452 -168 481 0 10 8 22 18 26 9 4 82 31 162 60 80 30 204 76 275
104 72 28 137 50 145 48 10 -1 42 -83 99 -251z m-744 -118 c20 -62 57 -167 80
-233 60 -164 60 -156 1 -173 -26 -8 -51 -10 -55 -5 -8 8 -171 475 -171 487 0
10 61 35 86 36 19 0 27 -16 59 -112z"/>
<path d="M7075 8619 c-33 -16 -64 -31 -70 -32 -6 -3 -3 -25 9 -58 31 -93 148
-404 152 -409 3 -2 36 7 75 20 66 23 70 27 65 50 -8 41 -80 268 -88 275 -3 3
-24 -3 -47 -14 -43 -22 -61 -26 -61 -13 0 4 20 18 45 30 25 12 45 27 45 34 0
20 -51 148 -58 147 -4 0 -34 -14 -67 -30z m70 -77 c-15 -13 -65 -32 -65 -25 0
11 35 32 55 33 11 0 15 -3 10 -8z"/>
<path d="M9976 8521 c-4 -5 6 -23 20 -40 l26 -31 284 0 285 0 24 26 c51 55 53
54 -304 54 -189 0 -332 -4 -335 -9z"/>
<path d="M8340 7543 c0 -10 11 -53 25 -97 51 -166 60 -228 59 -441 0 -182 -2
-209 -26 -301 -51 -197 -136 -353 -266 -486 -78 -80 -78 -81 -15 -92 77 -13
308 76 437 168 76 54 197 180 259 267 48 68 114 194 138 263 11 30 24 43 64
63 51 26 190 128 214 156 24 30 -69 177 -174 278 -139 133 -313 195 -652 234
-57 6 -63 5 -63 -12z"/>
<path d="M8296 6903 c-26 -55 -110 -194 -204 -341 -24 -37 -61 -103 -83 -146
-52 -105 -52 -158 -1 -177 31 -12 40 -3 127 126 127 187 179 325 200 528 4 38
3 67 -2 67 -5 0 -21 -26 -37 -57z"/>
<path d="M9153 6843 c-89 -48 -123 -71 -123 -85 0 -22 -9 -22 103 2 171 38
167 37 167 73 0 38 -10 77 -19 77 -3 0 -61 -30 -128 -67z"/>
<path d="M13835 2275 c-235 -38 -882 -139 -1250 -195 -66 -10 -163 -25 -215
-34 -256 -40 -384 -60 -601 -91 -130 -19 -243 -37 -252 -40 -9 -4 -17 -26 -21
-59 -5 -38 -18 -69 -47 -111 -35 -51 -39 -65 -34 -94 10 -55 43 -109 75 -126
50 -26 83 -22 615 65 66 11 179 29 250 40 72 11 328 51 570 90 242 38 630 99
862 134 233 36 436 72 452 80 39 21 44 51 21 137 -11 41 -30 112 -42 159 l-23
85 -45 2 c-25 0 -166 -18 -315 -42z"/>
</g>
</svg>
