<?xml version="1.0" standalone="no"?>
<!DOCTYPE svg PUBLIC "-//W3C//DTD SVG 20010904//EN"
 "http://www.w3.org/TR/2001/REC-SVG-20010904/DTD/svg10.dtd">
<svg version="1.0" xmlns="http://www.w3.org/2000/svg"
 width="1400.000000pt" height="1000.000000pt" viewBox="0 0 1400.000000 1000.000000"
 preserveAspectRatio="xMidYMid meet">

<g transform="translate(0.000000,1000.000000) scale(0.100000,-0.100000)"
fill="currentColor" stroke="none">
<path d="M6227 9521 c-121 -9 -123 -11 -206 -179 -120 -241 -262 -587 -612
-1487 l-43 -110 -4 -488 c-3 -370 -1 -491 8 -502 7 -8 30 -20 51 -27 22 -6 39
-16 39 -22 0 -12 -73 -101 -320 -392 -169 -199 -164 -194 -202 -194 -52 0
-108 -20 -135 -46 l-25 -25 6 -497 c3 -273 8 -607 11 -742 3 -135 7 -533 10
-885 3 -352 7 -732 10 -845 3 -113 7 -506 10 -875 3 -369 9 -688 12 -710 9
-66 146 -186 298 -262 253 -128 676 -201 1200 -208 484 -6 1028 53 1246 134
136 51 325 197 398 308 l30 46 -6 915 c-6 868 -5 915 11 909 10 -4 28 -7 41
-7 13 0 38 -12 57 -27 l33 -27 -27 30 c-18 19 -28 41 -28 60 0 22 3 26 10 14
8 -12 10 -12 11 5 0 11 3 14 6 8 6 -15 63 -18 63 -3 0 5 -7 7 -15 4 -11 -4
-13 -2 -9 9 9 25 -36 34 -54 11 -12 -17 -13 20 -8 276 3 162 8 581 11 930 3
349 8 716 10 815 2 99 5 386 5 638 1 381 4 459 15 464 8 2 17 14 21 25 6 19 6
19 21 -2 20 -28 41 -11 49 42 8 44 7 43 56 52 l37 7 4 -48 3 -48 2 51 2 52 73
17 c336 82 538 231 688 509 89 166 137 385 125 574 -13 205 -45 324 -116 429
-40 60 -139 168 -199 216 -37 30 -34 37 19 57 59 23 63 47 25 141 -28 69 -182
307 -269 416 -91 113 -58 107 -575 109 l-443 2 -27 24 c-148 136 -415 301
-534 332 -89 23 -674 41 -870 27z m2719 -1178 c194 -190 248 -327 248 -633 1
-164 -14 -248 -64 -383 -31 -83 -35 -65 -5 24 56 162 69 356 39 558 -12 81
-25 126 -55 190 -47 102 -86 152 -192 253 -45 43 -77 78 -71 78 6 0 51 -39
100 -87z m-17 -35 c172 -171 222 -307 224 -598 1 -151 -14 -264 -43 -331 l-11
-24 6 25 c34 167 37 199 32 360 -7 182 -21 259 -68 357 -37 78 -125 189 -210
266 -35 33 -50 50 -34 39 17 -11 64 -53 104 -94z m-80 -15 c179 -181 230 -316
231 -609 0 -245 -54 -423 -193 -629 -86 -128 -242 -256 -378 -311 -79 -32
-109 -30 -37 2 61 28 82 59 76 109 -4 38 -41 62 -134 89 l-79 23 2 567 2 566
-108 0 c-95 0 -110 -2 -126 -20 -15 -16 -31 -20 -89 -20 -60 0 -73 3 -84 20
-10 16 -23 20 -64 20 -29 0 -48 4 -43 8 10 8 206 72 330 108 99 28 529 165
534 170 2 2 18 4 34 4 23 0 47 -18 126 -97z m62 -20 c13 -16 12 -17 -3 -4 -10
7 -18 15 -18 17 0 8 8 3 21 -13z m127 -167 c44 -92 50 -112 67 -223 16 -107
19 -279 7 -348 -4 -23 -8 33 -8 135 -2 256 -31 375 -129 518 l-45 67 39 -44
c21 -24 52 -71 69 -105z m-1735 82 c48 -6 87 -14 87 -18 0 -4 -18 -45 -40 -91
-22 -46 -47 -119 -57 -163 l-17 -79 -135 6 c-192 8 -238 24 -275 95 -34 66
-15 144 52 204 36 33 58 42 137 61 25 6 135 0 248 -15z m295 -55 c45 -9 82
-20 82 -25 0 -4 -23 -8 -52 -10 -73 -4 -90 -34 -92 -161 l-1 -92 -62 -3 c-41
-2 -63 1 -63 8 0 54 81 300 99 300 3 0 43 -8 89 -17z m-142 -30 c-22 -44 -66
-191 -66 -223 0 -16 -5 -32 -11 -35 -21 -14 16 140 56 231 13 30 27 54 30 54
3 0 -1 -12 -9 -27z m862 -695 l-3 -683 -24 -3 c-14 -2 -21 0 -17 7 9 14 9 308
1 355 -15 78 -40 47 -51 -63 -5 -51 -10 -69 -16 -58 -10 19 -38 12 -38 -9 0
-8 -4 -14 -10 -14 -5 0 -10 7 -10 15 0 8 -4 15 -10 15 -7 0 -10 193 -10 560
l0 560 95 0 95 0 -2 -682z m-695 665 c-7 -2 -19 -2 -25 0 -7 3 -2 5 12 5 14 0
19 -2 13 -5z m234 1 c-3 -3 -12 -4 -19 -1 -8 3 -5 6 6 6 11 1 17 -2 13 -5z
m56 -1 c-7 -2 -21 -2 -30 0 -10 3 -4 5 12 5 17 0 24 -2 18 -5z m-3 -17 c0 -2
-12 -11 -27 -20 l-28 -17 24 20 c23 21 31 25 31 17z m55 -23 c-16 -3 -43 -14
-60 -25 l-30 -20 28 26 c19 18 38 26 60 25 l32 -2 -30 -4z m108 -9 c-3 -9 -9
-11 -12 -6 -3 5 -13 12 -21 15 -9 3 -4 6 12 6 21 1 26 -3 21 -15z m34 -16 c1
-26 -1 -29 -7 -13 -6 17 -3 45 5 45 1 0 2 -15 2 -32z m-540 -40 c-2 -13 -4 -3
-4 22 0 25 2 35 4 23 2 -13 2 -33 0 -45z m273 33 c0 -5 -7 -12 -16 -15 -14 -5
-15 -4 -4 9 14 17 20 19 20 6z m-120 -15 c0 -3 -4 -8 -10 -11 -5 -3 -10 -1
-10 4 0 6 5 11 10 11 6 0 10 -2 10 -4z m318 -21 c-6 -14 -13 -23 -15 -21 -5 5
15 46 22 46 3 0 -1 -11 -7 -25z m-164 6 c-3 -3 -11 -6 -17 -6 -7 0 -11 -9 -9
-20 2 -16 1 -17 -7 -5 -9 13 -10 13 -15 0 -14 -44 -14 -45 -15 -26 -1 23 33
63 54 63 8 0 12 -3 9 -6z m196 -18 c0 -5 -10 -19 -21 -33 l-21 -25 18 33 c18
32 24 38 24 25z m37 -15 c-3 -8 -6 -5 -6 6 -1 11 2 17 5 13 3 -3 4 -12 1 -19z
m-784 -30 c-9 -49 -25 -82 -17 -38 7 45 14 70 19 70 3 0 2 -15 -2 -32z m34 10
c-3 -8 -6 -5 -6 6 -1 11 2 17 5 13 3 -3 4 -12 1 -19z m633 18 c0 -2 -7 -9 -15
-16 -12 -10 -15 -10 -15 4 0 9 7 16 15 16 8 0 15 -2 15 -4z m-423 -28 c-3 -8
-6 -5 -6 6 -1 11 2 17 5 13 3 -3 4 -12 1 -19z m233 -62 c7 -9 20 -16 29 -17
11 0 12 -2 3 -6 -15 -6 -62 34 -62 53 0 7 -5 14 -12 16 -9 3 -8 9 2 20 13 14
16 12 21 -18 3 -18 11 -40 19 -48z m307 52 c-3 -8 -6 -5 -6 6 -1 11 2 17 5 13
3 -3 4 -12 1 -19z m-757 -23 c0 -14 -4 -25 -9 -25 -4 0 -6 11 -3 25 2 14 6 25
8 25 2 0 4 -11 4 -25z m339 22 c-2 -1 -13 -9 -24 -17 -19 -14 -19 -14 -6 3 7
9 18 17 24 17 6 0 8 -1 6 -3z m291 -11 c0 -2 -8 -10 -17 -17 -16 -13 -17 -12
-4 4 13 16 21 21 21 13z m-413 -43 c-3 -10 -5 -4 -5 12 0 17 2 24 5 18 2 -7 2
-21 0 -30z m70 31 c-3 -3 -12 -4 -19 -1 -8 3 -5 6 6 6 11 1 17 -2 13 -5z m408
-4 c3 -5 1 -10 -4 -10 -6 0 -11 5 -11 10 0 6 2 10 4 10 3 0 8 -4 11 -10z m62
-22 c-3 -7 -5 -2 -5 12 0 14 2 19 5 13 2 -7 2 -19 0 -25z m-208 6 c10 -9 -45
-3 -59 6 -11 7 -5 8 20 4 19 -4 37 -8 39 -10z m75 -41 c-1 -16 -2 -40 -3 -55
-1 -21 -5 -26 -18 -21 -11 4 -12 8 -5 11 7 2 12 22 12 48 0 24 4 44 8 44 4 0
7 -12 6 -27z m133 -45 c-2 -13 -4 -3 -4 22 0 25 2 35 4 23 2 -13 2 -33 0 -45z
m-212 42 c3 -6 -1 -7 -9 -4 -18 7 -21 14 -7 14 6 0 13 -4 16 -10z m-140 -201
c11 -17 -1 -21 -15 -4 -8 9 -8 15 -2 15 6 0 14 -5 17 -11z m-115 -9 c0 -5 -5
-10 -11 -10 -5 0 -7 5 -4 10 3 6 8 10 11 10 2 0 4 -4 4 -10z m467 -12 c-3 -8
-6 -5 -6 6 -1 11 2 17 5 13 3 -3 4 -12 1 -19z m-527 -2 c0 -2 -7 -9 -15 -16
-13 -11 -14 -10 -9 4 5 14 24 23 24 12z m527 -48 c-3 -8 -6 -5 -6 6 -1 11 2
17 5 13 3 -3 4 -12 1 -19z m0 -50 c-3 -8 -6 -5 -6 6 -1 11 2 17 5 13 3 -3 4
-12 1 -19z m983 -58 c-7 -28 -14 -49 -16 -47 -3 2 1 27 8 55 6 29 13 50 16 47
2 -2 -1 -27 -8 -55z m-1203 -17 c-9 -9 -20 -13 -24 -9 -4 4 -1 11 7 16 25 16
35 11 17 -7z m-147 -34 c0 -11 -4 -18 -10 -14 -5 3 -7 12 -3 20 7 21 13 19 13
-6z m130 -4 c-7 -9 -15 -13 -17 -11 -7 7 7 26 19 26 6 0 6 -6 -2 -15z m-233
-1 c-3 -3 -12 -4 -19 -1 -8 3 -5 6 6 6 11 1 17 -2 13 -5z m303 -8 c0 -3 -4 -8
-10 -11 -5 -3 -10 -1 -10 4 0 6 5 11 10 11 6 0 10 -2 10 -4z m1127 -18 c-3 -8
-6 -5 -6 6 -1 11 2 17 5 13 3 -3 4 -12 1 -19z m-1217 -18 c0 -5 -2 -10 -4 -10
-3 0 -8 5 -11 10 -3 6 -1 10 4 10 6 0 11 -4 11 -10z m70 -90 c0 -5 -5 -10 -11
-10 -5 0 -7 5 -4 10 3 6 8 10 11 10 2 0 4 -4 4 -10z m-209 -85 l-9 -40 -1 37
c-1 20 -6 40 -13 44 -8 5 -6 10 8 14 24 9 27 -4 15 -55z m-131 45 c-19 -13
-30 -13 -30 0 0 6 10 10 23 10 18 0 19 -2 7 -10z m53 3 c-7 -2 -19 -2 -25 0
-7 3 -2 5 12 5 14 0 19 -2 13 -5z m37 -3 c0 -5 -2 -10 -4 -10 -3 0 -8 5 -11
10 -3 6 -1 10 4 10 6 0 11 -4 11 -10z m118 -4 c3 -3 -9 -6 -26 -6 -18 0 -32 4
-32 9 0 9 48 6 58 -3z m137 -6 c4 -6 -16 -8 -57 -4 -82 9 -86 14 -10 14 33 0
64 -4 67 -10z m145 -10 c0 -5 -4 -10 -10 -10 -5 0 -10 5 -10 10 0 6 5 10 10
10 6 0 10 -4 10 -10z m-505 -70 c3 -5 1 -10 -4 -10 -6 0 -11 5 -11 10 0 6 2
10 4 10 3 0 8 -4 11 -10z m542 -22 c-3 -8 -6 -5 -6 6 -1 11 2 17 5 13 3 -3 4
-12 1 -19z m-527 -38 c0 -5 -2 -10 -4 -10 -3 0 -8 5 -11 10 -3 6 -1 10 4 10 6
0 11 -4 11 -10z m212 -52 c-7 -7 -12 -8 -12 -2 0 14 12 26 19 19 2 -3 -1 -11
-7 -17z m255 -23 c0 -17 -13 -20 -21 -6 -4 5 0 12 6 14 7 3 13 6 14 6 0 1 1
-6 1 -14z m-110 -77 c-3 -7 -5 -2 -5 12 0 14 2 19 5 13 2 -7 2 -19 0 -25z m76
12 c3 -11 1 -18 -4 -14 -5 3 -9 12 -9 20 0 20 7 17 13 -6z m191 -22 c20 -154
17 -188 -15 -188 -17 0 -19 8 -19 69 0 135 22 212 34 119z m224 27 c71 -21
103 -51 95 -89 -5 -23 -17 -34 -67 -56 -34 -16 -76 -31 -94 -35 l-32 -7 1 101
c3 116 1 114 97 86z m-553 -15 c3 -5 1 -10 -4 -10 -6 0 -11 5 -11 10 0 6 2 10
4 10 3 0 8 -4 11 -10z m-133 -32 c-8 -8 -9 -4 -5 13 4 13 8 18 11 10 2 -7 -1
-18 -6 -23z m45 -25 c-3 -10 -5 -4 -5 12 0 17 2 24 5 18 2 -7 2 -21 0 -30z
m160 15 c-3 -8 -6 -5 -6 6 -1 11 2 17 5 13 3 -3 4 -12 1 -19z m50 -10 c-3 -7
-5 -2 -5 12 0 14 2 19 5 13 2 -7 2 -19 0 -25z m0 -90 c-3 -8 -6 -5 -6 6 -1 11
2 17 5 13 3 -3 4 -12 1 -19z m-255 -36 c9 -7 18 -37 22 -66 8 -70 22 -106 41
-106 8 0 18 12 21 26 l6 25 19 -30 c10 -17 21 -31 24 -31 2 0 11 12 18 27 14
26 15 26 21 5 11 -32 35 -27 48 10 l11 32 10 -25 c10 -22 10 -478 1 -488 -2
-2 -36 11 -76 29 -66 30 -82 44 -175 149 -56 64 -140 162 -188 219 l-86 104 3
61 c3 55 5 62 28 69 40 12 235 4 252 -10z m335 -4 c-3 -8 -6 -5 -6 6 -1 11 2
17 5 13 3 -3 4 -12 1 -19z m-269 -71 c2 -28 -1 -47 -7 -47 -6 0 -11 8 -11 19
0 10 -3 33 -7 51 -5 25 -3 32 8 28 9 -3 15 -22 17 -51z m72 -18 c0 -48 -16
-44 -22 6 -3 24 0 35 9 35 9 0 13 -14 13 -41z m65 20 c4 -5 4 -22 0 -37 l-8
-27 -7 25 c-5 14 -8 31 -9 38 -1 15 15 16 24 1z m257 -40 l-9 -34 -8 29 c-5
20 -4 31 6 37 19 12 21 6 11 -32z m-187 21 c3 -5 1 -10 -4 -10 -6 0 -11 5 -11
10 0 6 2 10 4 10 3 0 8 -4 11 -10z m87 -92 c-8 -8 -9 -4 -5 13 4 13 8 18 11
10 2 -7 -1 -18 -6 -23z m-85 -130 c-2 -13 -4 -3 -4 22 0 25 2 35 4 23 2 -13 2
-33 0 -45z m-10 -290 c-3 -8 -6 -5 -6 6 -1 11 2 17 5 13 3 -3 4 -12 1 -19z m0
-40 c-3 -8 -6 -5 -6 6 -1 11 2 17 5 13 3 -3 4 -12 1 -19z m90 -80 c-3 -8 -6
-5 -6 6 -1 11 2 17 5 13 3 -3 4 -12 1 -19z m-90 -30 c-3 -7 -5 -2 -5 12 0 14
2 19 5 13 2 -7 2 -19 0 -25z m-567 -1498 l0 -160 60 0 60 0 0 -50 0 -51 -112
3 -113 3 1 70 c0 39 2 132 2 208 l2 137 50 0 50 0 0 -160z m-972 118 c23 -11
42 -25 42 -31 -1 -7 -14 -27 -29 -45 -28 -33 -29 -33 -59 -18 -84 44 -187 -10
-193 -100 -5 -61 23 -106 80 -130 62 -26 97 -15 96 31 0 16 -7 20 -35 20 l-35
0 -3 53 -3 52 90 0 91 0 0 -113 0 -113 -37 -18 c-165 -79 -347 31 -347 209 1
119 69 198 199 228 33 8 97 -3 143 -25z m390 -25 l3 -53 -90 0 c-84 0 -91 -1
-91 -20 0 -19 7 -20 91 -20 l90 0 -3 -52 -3 -53 -85 0 -85 0 -3 -43 -3 -42 91
0 91 0 -3 -52 -3 -53 -137 -3 -138 -3 0 226 0 226 138 -3 137 -3 3 -52z m422
-158 l0 -215 -49 0 -48 0 -69 107 -69 107 -5 -114 -5 -115 -50 0 -50 0 -3 213
-2 212 54 0 55 0 68 -102 68 -103 3 113 3 112 49 0 50 0 0 -215z"/>
<path d="M8241 7432 c-14 -26 -14 -171 -1 -192 9 -13 12 -12 25 4 20 26 21
164 1 191 -13 18 -14 18 -25 -3z"/>
<path d="M8311 6403 c0 -29 2 -33 8 -18 7 18 4 55 -5 55 -2 0 -4 -17 -3 -37z"/>
<path d="M8311 6344 c0 -11 3 -14 6 -6 3 7 2 16 -1 19 -3 4 -6 -2 -5 -13z"/>
<path d="M8314 6045 c0 -148 2 -211 3 -138 2 72 2 194 0 270 -1 76 -3 17 -3
-132z"/>
<path d="M8306 5752 c-8 -24 -5 -112 3 -107 8 4 14 125 7 125 -3 0 -7 -8 -10
-18z"/>
<path d="M8304 5510 c0 -63 1 -89 3 -57 2 31 2 83 0 115 -2 31 -3 5 -3 -58z"/>
<path d="M8304 5270 c0 -63 1 -89 3 -57 2 31 2 83 0 115 -2 31 -3 5 -3 -58z"/>
<path d="M8299 5080 c-1 -38 -2 -84 -3 -101 0 -17 2 -33 7 -36 4 -2 7 43 7
101 0 117 -9 147 -11 36z"/>
<path d="M8301 4914 c0 -11 3 -14 6 -6 3 7 2 16 -1 19 -3 4 -6 -2 -5 -13z"/>
<path d="M8290 4859 c0 -5 5 -7 10 -4 6 3 10 8 10 11 0 2 -4 4 -10 4 -5 0 -10
-5 -10 -11z"/>
<path d="M8288 4420 c-2 -94 0 -170 5 -170 4 0 7 77 7 170 0 94 -2 170 -5 170
-2 0 -5 -77 -7 -170z"/>
<path d="M8281 3934 c0 -11 3 -14 6 -6 3 7 2 16 -1 19 -3 4 -6 -2 -5 -13z"/>
<path d="M8115 3929 c-4 -6 -5 -12 -2 -15 2 -3 7 2 10 11 7 17 1 20 -8 4z"/>
<path d="M8278 3758 c-2 -57 0 -130 3 -163 4 -39 6 -2 7 103 2 179 -5 220 -10
60z"/>
<path d="M8211 3783 c0 -13 -5 -23 -11 -23 -5 0 -10 -10 -10 -22 l0 -22 16 22
c8 12 13 32 11 45 l-4 22 -2 -22z"/>
<path d="M8255 3770 c-3 -5 -1 -10 4 -10 6 0 11 5 11 10 0 6 -2 10 -4 10 -3 0
-8 -4 -11 -10z"/>
<path d="M8107 3723 c-4 -3 -7 -11 -7 -17 0 -6 5 -5 12 2 6 6 9 14 7 17 -3 3
-9 2 -12 -2z"/>
<path d="M8167 3663 c-4 -3 -7 -11 -7 -17 0 -6 5 -5 12 2 6 6 9 14 7 17 -3 3
-9 2 -12 -2z"/>
<path d="M8195 3640 c-3 -5 -1 -10 4 -10 6 0 11 5 11 10 0 6 -2 10 -4 10 -3 0
-8 -4 -11 -10z"/>
<path d="M8125 3570 c-3 -5 -1 -10 4 -10 6 0 11 5 11 10 0 6 -2 10 -4 10 -3 0
-8 -4 -11 -10z"/>
<path d="M8210 3565 c12 -15 30 -12 30 6 0 5 -10 9 -21 9 -18 0 -19 -2 -9 -15z"/>
<path d="M8251 3554 c0 -11 3 -14 6 -6 3 7 2 16 -1 19 -3 4 -6 -2 -5 -13z"/>
<path d="M8193 3528 c-2 -16 1 -17 13 -8 17 15 17 17 1 23 -8 3 -14 -3 -14
-15z"/>
<path d="M8122 3531 c-11 -7 -11 -9 2 -14 10 -4 16 -1 16 8 0 17 -1 17 -18 6z"/>
<path d="M8281 3514 c0 -11 3 -14 6 -6 3 7 2 16 -1 19 -3 4 -6 -2 -5 -13z"/>
<path d="M8132 3449 c2 -7 14 -13 26 -14 29 -2 22 19 -7 23 -15 3 -22 -1 -19
-9z"/>
<path d="M8247 3384 c-4 -4 -7 -19 -6 -33 l0 -26 10 24 c10 26 8 47 -4 35z"/>
<path d="M8270 3354 c0 -20 -9 -50 -21 -67 l-21 -32 26 28 c19 20 26 39 26 68
0 21 -2 39 -5 39 -3 0 -5 -16 -5 -36z"/>
<path d="M8116 3344 c-5 -14 -4 -15 9 -4 17 14 19 20 6 20 -5 0 -12 -7 -15
-16z"/>
<path d="M8130 3318 c0 -4 4 -8 9 -8 6 0 12 4 15 8 3 5 -1 9 -9 9 -8 0 -15 -4
-15 -9z"/>
<path d="M8202 3308 c2 -12 8 -23 13 -25 16 -5 13 36 -3 42 -9 3 -12 -2 -10
-17z"/>
<path d="M8160 3290 c0 -5 5 -10 11 -10 5 0 7 5 4 10 -3 6 -8 10 -11 10 -2 0
-4 -4 -4 -10z"/>
</g>
</svg>
