<?xml version="1.0" standalone="no"?>
<!DOCTYPE svg PUBLIC "-//W3C//DTD SVG 20010904//EN"
 "http://www.w3.org/TR/2001/REC-SVG-20010904/DTD/svg10.dtd">
<svg version="1.0" xmlns="http://www.w3.org/2000/svg"
 width="1024.000000pt" height="1024.000000pt" viewBox="0 0 1024.000000 1024.000000"
 preserveAspectRatio="xMidYMid meet">

<g transform="translate(0.000000,1024.000000) scale(0.100000,-0.100000)"
fill="currentColor" stroke="none">
<path d="M735 8901 c-45 -73 -119 -241 -109 -251 11 -11 325 -178 515 -275 73
-37 139 -71 144 -75 6 -4 100 -53 210 -110 110 -56 218 -113 240 -125 39 -22
649 -342 1090 -572 121 -64 279 -146 352 -184 72 -38 134 -69 137 -69 10 0 7
29 -10 78 -20 61 -29 73 -87 106 -46 27 -49 28 -67 11 -27 -24 -54 -12 -46 19
5 22 -1 28 -50 56 -51 30 -56 31 -73 16 -25 -23 -54 -10 -48 20 3 20 -4 28
-41 49 -52 29 -65 31 -82 10 -18 -22 -51 -1 -48 31 2 20 -5 30 -44 52 -41 23
-49 25 -71 13 -32 -17 -76 2 -57 24 16 20 6 32 -50 60 -48 24 -49 24 -55 5 -7
-24 -15 -25 -40 -6 -12 9 -16 20 -12 35 5 19 -2 25 -50 47 -51 22 -58 23 -73
9 -24 -22 -50 -9 -50 25 0 24 -9 33 -52 59 -51 29 -54 30 -68 12 -22 -28 -59
-12 -53 23 4 21 -1 28 -47 51 -48 24 -53 25 -64 9 -9 -11 -19 -14 -35 -9 -18
5 -21 12 -16 34 5 24 1 29 -49 53 -49 24 -56 26 -64 12 -5 -9 -18 -14 -28 -12
-14 3 -19 12 -18 34 1 28 -4 34 -52 57 -64 32 -59 31 -78 12 -12 -12 -20 -14
-36 -5 -17 9 -18 14 -9 31 6 12 9 22 7 23 -2 2 -29 18 -62 36 l-59 33 -17 -23
c-17 -23 -19 -23 -44 -7 -20 14 -25 23 -20 41 5 21 -3 28 -73 66 -185 100
-175 91 -255 233 -40 71 -92 149 -114 173 -41 41 -148 104 -179 104 -8 0 -26
-18 -40 -39z"/>
<path d="M493 8503 c-125 -160 -201 -288 -253 -432 -36 -99 -65 -263 -51 -289
9 -16 127 -79 706 -378 l161 -82 -30 -52 c-26 -46 -27 -54 -16 -76 11 -19 11
-27 2 -36 -7 -7 -12 -22 -12 -34 0 -18 20 -33 105 -79 95 -51 104 -58 95 -76
-10 -18 -16 -16 -118 38 -59 31 -114 62 -123 69 -19 17 -39 1 -39 -32 0 -19
28 -37 167 -111 91 -48 170 -89 174 -91 4 -2 47 73 95 165 110 211 134 256
144 267 5 5 24 -1 44 -14 l36 -22 -39 -71 c-85 -157 -193 -368 -190 -371 6 -6
88 -46 93 -46 2 0 47 82 99 183 52 100 105 199 117 220 l22 38 32 -19 c17 -11
30 -23 29 -28 -1 -5 -51 -102 -112 -216 -61 -114 -111 -211 -111 -217 0 -9 89
-56 94 -50 1 2 54 102 116 222 63 119 116 217 119 217 4 -1 20 -9 37 -18 l31
-17 -113 -215 c-62 -118 -113 -219 -114 -225 0 -9 90 -59 95 -53 1 2 50 95
109 208 58 113 110 211 115 218 6 11 15 10 44 -4 l35 -17 -75 -146 c-42 -80
-94 -177 -115 -214 -21 -38 -38 -74 -38 -81 0 -13 61 -46 84 -46 7 0 18 12 25
28 23 51 212 402 217 402 18 0 65 -34 61 -43 -2 -7 -54 -106 -115 -222 l-111
-210 42 -22 c23 -12 45 -22 49 -23 8 0 43 63 152 272 l88 168 39 -20 c21 -11
39 -23 39 -26 0 -4 -17 -39 -39 -78 -21 -39 -73 -137 -115 -218 l-76 -146 148
-77 c81 -43 278 -146 438 -231 159 -85 295 -154 301 -154 7 0 15 10 18 23 4
12 43 89 87 170 44 82 76 152 72 156 -5 5 -85 48 -179 96 -93 48 -207 107
-252 132 l-82 44 -16 -31 c-16 -32 -42 -40 -51 -16 -3 8 2 26 11 40 10 14 15
32 12 40 -3 7 -50 37 -104 66 -54 29 -99 54 -101 55 -1 1 0 10 4 19 10 25 29
18 209 -82 88 -49 234 -127 325 -174 91 -47 196 -102 234 -123 66 -37 69 -37
95 -22 27 16 30 15 112 -28 46 -25 134 -70 194 -101 61 -31 133 -69 160 -84
28 -15 104 -55 170 -90 66 -34 158 -83 204 -108 l84 -45 71 17 c39 9 85 18
101 20 17 3 32 5 35 6 3 1 9 2 13 1 5 -1 51 -3 103 -6 92 -3 215 -34 287 -72
16 -8 30 -13 31 -11 1 2 10 15 19 31 25 40 91 79 134 81 21 1 44 6 52 10 10 6
12 5 7 -2 -5 -8 -1 -10 9 -6 9 4 40 55 70 115 l54 107 -140 76 c-78 42 -143
76 -145 76 -2 0 -66 33 -141 74 -191 101 -305 161 -468 246 -77 40 -176 92
-220 115 -44 23 -134 70 -200 105 -261 137 -334 175 -445 235 -63 34 -209 111
-325 170 -301 154 -454 234 -500 260 -22 13 -146 78 -275 145 -129 68 -415
217 -635 333 -220 115 -546 286 -725 379 -179 94 -361 190 -406 214 -45 24
-84 44 -87 44 -3 0 -36 -39 -74 -87z m776 -1143 c106 -53 114 -59 102 -79 -6
-9 -34 0 -112 41 -57 29 -107 54 -111 56 -3 2 -14 -11 -24 -27 -21 -36 -54
-42 -54 -11 0 29 44 70 75 70 14 0 70 -22 124 -50z m-97 -107 c38 -34 8 -113
-42 -113 -27 0 -70 43 -70 70 0 49 73 78 112 43z m1431 -742 c17 -2 47 -43 47
-65 0 -28 -42 -66 -72 -66 -25 0 -68 44 -68 70 0 28 43 70 66 65 11 -2 22 -4
27 -4z m-37 -223 c6 4 16 17 23 30 12 22 51 31 51 12 0 -20 -40 -89 -56 -98
-12 -7 -27 -4 -48 8 -17 9 -70 38 -119 64 -78 42 -86 49 -77 67 10 18 16 16
113 -36 56 -30 107 -51 113 -47z"/>
<path d="M2884 7973 c-18 -2 -48 -18 -68 -36 -37 -33 -120 -171 -114 -189 2
-5 51 -35 108 -65 113 -60 454 -237 587 -305 l81 -41 33 27 c34 29 66 45 109
53 14 2 84 18 156 34 72 16 134 29 138 29 34 0 -62 52 -474 259 -264 133 -490
240 -502 239 -13 0 -37 -3 -54 -5z"/>
<path d="M4358 7813 c-9 -10 -35 -53 -59 -95 -62 -113 -106 -166 -175 -214
-54 -36 -168 -84 -214 -89 -8 -1 -44 -9 -80 -18 -36 -9 -90 -21 -120 -27 -30
-6 -62 -14 -70 -17 -8 -3 -23 -8 -34 -10 -58 -11 -159 -134 -143 -175 3 -9 90
-60 194 -113 103 -54 220 -115 258 -135 215 -113 270 -143 375 -198 63 -33
153 -80 200 -105 83 -44 216 -113 555 -289 94 -49 207 -107 253 -131 l83 -42
18 23 c18 25 48 25 91 2 33 -18 51 4 25 29 -11 10 -168 97 -349 192 -181 95
-338 181 -349 190 -20 16 -20 17 -4 52 17 35 69 183 98 277 21 66 17 137 -9
197 -31 73 -24 153 22 248 42 86 50 156 20 184 -27 26 -509 272 -543 277 -18
3 -33 -1 -43 -13z"/>
<path d="M921 6863 c0 -21 8 -58 17 -81 15 -38 26 -48 87 -80 47 -25 71 -44
73 -57 3 -21 83 -62 101 -51 13 9 61 -15 61 -30 0 -16 68 -56 100 -59 36 -3
80 -26 80 -41 0 -20 67 -56 108 -58 44 -2 62 -12 62 -31 0 -18 77 -58 100 -52
22 6 65 -17 65 -35 0 -17 97 -69 110 -58 14 11 55 -6 55 -24 0 -22 86 -69 112
-63 26 7 58 -9 58 -28 0 -18 94 -67 114 -59 18 7 57 -13 53 -28 -1 -6 20 -25
46 -41 38 -24 52 -29 66 -20 20 12 56 -8 56 -32 0 -22 93 -67 114 -56 21 12
51 -4 51 -28 0 -20 91 -68 108 -57 6 4 62 -21 125 -54 62 -33 119 -60 125 -60
11 0 68 99 60 104 -10 7 -137 77 -228 124 -58 30 -211 111 -340 180 -256 136
-1070 565 -1270 669 -69 36 -158 83 -197 105 l-73 39 1 -38z"/>
<path d="M3336 6207 c-54 -89 -206 -389 -201 -397 4 -6 52 -33 107 -61 92 -46
103 -49 146 -42 47 7 56 9 70 13 4 1 32 2 62 2 50 1 72 -8 277 -112 333 -168
431 -225 493 -285 56 -54 71 -62 450 -258 356 -183 688 -356 1064 -556 209
-111 382 -201 385 -201 3 0 34 54 69 119 l62 119 -42 25 c-24 13 -76 41 -115
62 -40 21 -73 41 -73 46 0 5 37 77 81 161 45 84 103 194 129 243 26 50 56 104
66 122 24 41 19 46 -96 106 -47 25 -152 83 -235 129 -140 77 -151 86 -171 128
-23 49 -38 110 -26 110 7 0 312 -162 655 -349 114 -63 209 -112 211 -110 2 2
11 19 20 36 18 37 23 32 -74 85 -47 26 -48 44 -7 122 37 70 37 72 25 124 l-13
53 -150 81 c-128 69 -187 93 -405 165 -227 75 -337 115 -435 158 -16 7 -61 26
-100 41 -38 15 -80 36 -92 47 -12 10 -26 16 -33 12 -6 -3 -31 -48 -56 -98 -26
-51 -106 -202 -180 -337 -73 -135 -136 -252 -139 -261 -5 -13 5 -21 39 -35 51
-21 54 -28 28 -62 l-18 -24 -35 20 c-30 17 -585 307 -899 469 -63 33 -257 133
-430 223 -173 89 -319 166 -325 170 -5 5 -25 10 -43 13 -26 4 -35 1 -46 -16z
m156 -253 c18 -39 -32 -80 -68 -56 -23 15 -26 50 -5 71 24 24 59 17 73 -15z
m2148 -99 c0 -12 -8 -29 -18 -38 -27 -24 -67 -2 -67 38 0 40 40 62 67 38 10
-9 18 -26 18 -38z m828 -263 c19 -13 24 -58 8 -72 -8 -6 -25 -10 -38 -8 -18 2
-24 10 -26 37 -4 43 23 64 56 43z m-799 -127 c33 -17 40 -30 36 -68 -4 -36
-19 -53 -57 -66 -27 -10 -33 -8 -59 18 -33 33 -35 50 -14 91 22 42 48 49 94
25z m-385 -244 c37 -41 -14 -97 -60 -66 -28 18 -31 41 -7 67 21 23 45 23 67
-1z m678 -393 c26 -21 28 -45 7 -72 -17 -22 -23 -24 -45 -14 -33 15 -42 53
-19 78 21 23 35 25 57 8z"/>
<path d="M5549 6170 c-25 -16 18 -41 176 -100 28 -11 75 -29 105 -40 104 -40
190 -69 190 -63 0 3 6 1 13 -5 7 -6 24 -13 37 -16 22 -5 70 -20 205 -67 17 -6
36 -11 43 -12 8 0 79 -33 159 -74 81 -40 148 -71 150 -69 3 2 9 22 15 43 18
73 27 108 34 135 5 21 1 29 -16 38 -18 10 -40 8 -114 -10 -50 -12 -98 -26
-107 -31 -9 -4 -20 -5 -24 -1 -3 4 -10 7 -13 8 -11 1 -117 34 -299 95 -95 32
-173 55 -173 52 0 -3 -6 -1 -12 4 -7 6 -60 25 -118 43 -58 18 -135 43 -171 55
-42 15 -71 20 -80 15z"/>
<path d="M3054 5674 c-62 -111 -71 -146 -69 -269 1 -101 4 -116 33 -178 58
-126 120 -172 477 -357 77 -40 176 -92 220 -116 76 -41 100 -48 205 -58 25 -2
56 -9 70 -14 14 -5 28 -9 32 -8 19 3 158 -102 198 -150 59 -71 69 -96 70 -172
0 -86 -19 -127 -95 -198 -37 -34 -65 -69 -65 -80 0 -11 15 -43 34 -72 79 -123
51 -207 -107 -325 -46 -35 -47 -56 -2 -126 19 -30 40 -78 46 -107 11 -48 10
-58 -7 -90 -10 -20 -31 -42 -46 -50 -31 -16 -35 -35 -13 -57 16 -17 131 -54
185 -61 19 -2 42 -7 50 -10 8 -2 35 -8 60 -11 60 -9 71 -11 100 -18 14 -4 39
-9 55 -11 17 -3 71 -12 120 -21 132 -22 182 -28 255 -29 l65 -1 15 70 c8 39
18 75 22 81 4 7 5 30 2 52 -3 24 0 50 7 63 15 28 20 608 6 654 -20 66 -28 419
-9 459 5 11 17 38 25 59 40 92 168 184 256 184 23 0 43 2 46 5 5 5 -94 36
-130 41 -11 1 -25 5 -30 9 -6 3 -28 10 -50 14 -65 12 -186 65 -431 187 -283
141 -295 146 -228 81 84 -81 144 -185 144 -250 0 -68 -231 -112 -374 -70 -32
10 -82 19 -110 21 -125 11 -190 36 -462 182 -71 39 -184 98 -251 132 -133 69
-224 145 -258 216 -27 56 -32 169 -10 235 19 59 59 133 80 150 8 7 15 16 15
20 0 6 -95 60 -105 60 -2 0 -21 -30 -41 -66z"/>
<path d="M6691 5441 c-12 -22 -21 -44 -21 -48 0 -4 25 -21 56 -37 87 -46 88
-48 54 -107 -17 -27 -30 -53 -30 -57 0 -4 -9 -18 -19 -31 l-18 -23 -115 61
c-63 33 -119 61 -124 61 -5 0 -24 -28 -42 -62 -18 -35 -52 -97 -75 -139 -24
-41 -67 -119 -96 -173 -29 -54 -61 -112 -72 -129 -26 -44 -24 -52 19 -74 33
-16 181 -101 190 -109 2 -1 -18 -42 -44 -91 -72 -134 -74 -137 -74 -153 0 -9
30 -31 73 -52 264 -134 533 -278 570 -305 33 -22 53 -48 75 -95 35 -74 44 -96
47 -124 16 -114 61 -159 171 -170 32 -3 61 -7 65 -10 4 -2 10 0 13 5 11 18 80
-14 127 -59 27 -25 125 -161 222 -305 243 -363 359 -533 529 -778 80 -117 212
-309 292 -427 311 -460 364 -517 583 -632 134 -70 186 -88 245 -84 38 2 55 11
102 52 61 53 74 77 56 99 -10 12 -9 20 4 40 9 14 21 25 26 25 5 0 18 14 30 31
21 28 21 31 5 49 -21 24 -12 58 18 62 12 2 28 15 36 30 13 23 13 30 2 52 -11
21 -12 28 -1 41 7 8 20 15 30 15 32 0 53 35 45 79 -6 37 -5 41 24 56 32 16 48
52 37 81 -7 19 20 67 34 59 16 -10 40 27 40 64 0 29 7 43 35 70 36 33 45 67
24 88 -14 14 16 67 32 57 5 -3 21 2 35 10 20 14 24 23 22 58 -3 34 1 44 18 53
47 24 56 38 51 76 -4 29 0 42 15 56 11 10 22 17 24 16 17 -11 36 5 60 55 16
31 33 59 37 61 25 10 48 48 44 71 -4 17 7 46 30 88 30 53 35 70 31 107 -7 56
-41 110 -87 139 -20 13 -108 60 -196 106 -88 46 -182 95 -210 110 -27 15 -142
76 -255 135 -113 59 -252 132 -310 162 -58 31 -157 83 -220 116 -63 33 -203
106 -310 162 -107 57 -368 194 -580 305 -411 216 -472 253 -590 352 -156 131
-232 231 -343 453 -67 135 -104 188 -188 274 -69 70 -92 87 -191 145 l-47 27
-20 -40z m372 -872 c12 -7 69 -57 127 -113 173 -168 223 -199 895 -551 330
-173 772 -404 895 -467 74 -39 153 -80 175 -93 22 -12 78 -42 125 -65 250
-127 558 -295 582 -318 36 -33 52 -84 45 -143 -7 -60 -31 -97 -65 -101 -23 -3
-36 -21 -98 -143 -40 -77 -82 -167 -94 -200 -36 -100 -49 -125 -90 -174 -22
-26 -57 -87 -79 -137 -60 -139 -211 -444 -243 -491 -29 -44 -74 -74 -116 -80
-34 -5 -137 46 -207 102 -73 59 -66 51 -168 205 -122 182 -140 211 -302 475
-142 232 -404 624 -450 675 -35 39 -409 601 -486 730 -104 177 -216 273 -435
375 -287 133 -296 152 -182 376 47 94 65 120 91 133 38 19 51 20 80 5z"/>
<path d="M4005 5380 c3 -56 -37 -171 -79 -229 -34 -45 -50 -56 -148 -95 -31
-12 -38 -20 -38 -42 l0 -27 73 6 c103 7 175 43 253 125 53 55 65 63 90 59 45
-6 128 15 132 34 2 9 -20 42 -49 73 -38 42 -73 67 -134 96 -45 22 -86 40 -92
40 -6 0 -9 -17 -8 -40z"/>
</g>
</svg>
