<?xml version="1.0" standalone="no"?>
<!DOCTYPE svg PUBLIC "-//W3C//DTD SVG 20010904//EN"
 "http://www.w3.org/TR/2001/REC-SVG-20010904/DTD/svg10.dtd">
<svg version="1.0" xmlns="http://www.w3.org/2000/svg"
 width="816.000000pt" height="360.000000pt" viewBox="0 0 816.000000 360.000000"
 preserveAspectRatio="xMidYMid meet">

<g transform="translate(0.000000,360.000000) scale(0.100000,-0.100000)"
fill="currentColor" stroke="none">
<path d="M600 3198 c-6 -24 -22 -83 -36 -133 -13 -49 -24 -113 -24 -142 0 -42
-4 -54 -20 -63 -18 -9 -20 -21 -20 -100 0 -79 2 -91 20 -100 15 -8 20 -21 20
-54 l0 -44 -197 -1 c-144 -1 -199 -5 -205 -14 -12 -20 -9 -152 4 -165 9 -9 68
-12 205 -12 l193 0 0 -25 c0 -25 1 -25 90 -25 89 0 90 0 90 25 0 14 5 25 10
25 6 0 10 -13 10 -28 0 -40 20 -62 65 -71 22 -5 439 -53 927 -107 674 -75 892
-96 905 -88 13 8 19 27 21 68 3 48 6 56 23 56 30 0 77 -27 90 -52 15 -28 3
-182 -17 -222 -12 -26 -12 -32 0 -44 12 -12 10 -30 -10 -125 -101 -466 -282
-968 -484 -1338 -34 -61 -60 -113 -58 -114 24 -23 333 -203 339 -198 12 13 97
171 135 252 180 379 312 752 412 1161 17 69 34 144 38 168 4 23 11 45 16 48 4
3 22 -6 39 -20 28 -24 52 -31 87 -27 6 1 12 -3 12 -9 0 -6 -5 -8 -12 -4 -15
10 -5 -38 22 -98 22 -51 26 -53 50 -38 13 8 13 16 -4 62 -10 29 -26 61 -35 72
-15 18 -14 18 42 14 85 -7 105 -31 167 -202 55 -153 86 -198 150 -217 21 -7
107 -9 220 -7 l185 4 62 34 c58 31 66 32 102 22 21 -7 43 -18 48 -25 5 -6 65
-135 132 -285 111 -245 122 -276 116 -311 -8 -50 7 -81 41 -81 40 0 282 128
477 252 54 35 77 56 77 70 0 11 -100 178 -222 372 -121 193 -229 369 -239 391
-22 48 -24 126 -5 163 35 68 111 112 190 112 48 0 58 3 72 25 l16 25 178 0
179 0 30 38 c18 20 51 75 76 122 35 67 44 79 45 58 0 -18 -20 -55 -55 -104
-65 -90 -71 -130 -29 -163 21 -16 41 -21 90 -21 107 0 128 45 79 170 -14 36
-23 70 -20 77 6 17 57 17 74 0 11 -9 13 -9 7 0 -5 9 3 13 28 13 33 0 36 2 36
30 l0 30 864 0 865 0 20 -54 c32 -85 97 -362 136 -580 20 -109 41 -211 46
-225 38 -100 141 -91 168 15 8 31 8 50 2 58 -6 7 -8 21 -5 33 3 11 1 24 -5 27
-8 5 -8 13 -1 26 7 13 6 21 -5 30 -11 9 -12 17 -5 31 8 14 6 20 -7 27 -14 8
-15 13 -5 25 10 11 9 17 -3 27 -10 9 -12 17 -5 30 7 13 5 21 -5 30 -12 10 -13
16 -4 27 9 10 9 17 1 25 -8 8 -7 16 1 30 10 16 9 22 -5 32 -13 10 -15 15 -5
25 8 8 9 16 1 29 -8 12 -8 22 0 35 8 14 8 20 -4 27 -13 9 -13 11 0 20 12 7 12
13 4 27 -8 13 -8 23 0 35 8 13 7 21 -1 29 -10 10 -9 15 4 25 15 10 15 14 4 28
-11 13 -11 19 -1 31 10 12 10 18 0 30 -10 12 -10 15 0 15 8 0 11 9 7 29 -4 19
-2 31 6 34 9 3 9 9 0 24 -9 16 -8 23 3 35 14 13 14 17 0 31 -13 13 -14 17 -1
27 11 9 12 17 4 32 -7 14 -7 23 1 33 8 10 8 15 0 20 -7 4 -9 18 -6 30 3 13 1
27 -4 30 -8 5 -7 11 1 21 6 8 8 21 4 31 -5 10 -7 26 -6 35 4 29 -27 75 -59 88
-39 16 -109 9 -215 -22 l-80 -23 -3 -97 -3 -98 -799 0 -799 0 -16 35 c-27 56
-38 60 -165 64 l-117 3 -12 47 c-7 25 -40 96 -75 156 l-62 110 -197 2 c-116 1
-197 -2 -197 -8 0 -5 -24 -9 -54 -9 l-54 0 -4 56 c-4 45 -10 61 -36 87 -26 26
-40 31 -91 35 -55 4 -61 6 -70 33 -5 16 -14 29 -20 29 -5 0 -58 -19 -116 -42
-105 -41 -107 -42 -101 -71 3 -16 16 -41 27 -55 12 -15 19 -19 16 -10 -4 12 4
20 34 32 22 9 46 13 52 9 7 -4 6 0 -2 10 -7 9 -11 24 -7 32 3 9 2 13 -4 10 -6
-3 -10 -12 -10 -20 0 -7 -16 -19 -37 -26 -32 -10 -38 -9 -49 6 -8 10 -11 21
-9 25 5 8 184 80 198 80 3 0 11 -9 17 -20 9 -16 6 -22 -20 -35 -18 -9 -41 -13
-53 -10 -16 5 -18 4 -8 -3 8 -6 11 -17 7 -28 -6 -17 -6 -17 12 -1 19 18 47 22
55 10 2 -5 2 -2 1 5 -6 21 40 35 92 27 32 -4 56 -16 76 -35 26 -27 28 -33 28
-114 l0 -86 -180 0 c-177 0 -180 0 -180 21 0 12 10 30 22 40 17 15 18 19 5 19
-9 0 -21 8 -27 18 -9 15 -10 14 -5 -5 l6 -23 -1158 0 c-985 -1 -1162 -3 -1183
-15 -19 -11 -71 -14 -228 -15 l-203 0 -10 29 c-13 36 -46 51 -113 51 -59 0
-106 -27 -106 -60 0 -20 39 -18 -565 -30 l-130 -3 -3 178 c-2 128 -6 181 -15
187 -6 4 -31 8 -54 8 -41 0 -42 -1 -53 -42z m78 26 c22 -6 22 -9 22 -176 l0
-169 -72 3 -73 3 2 44 c2 38 58 274 70 294 5 8 20 9 51 1z m930 -300 c28 -18
32 -71 5 -58 -31 13 -130 16 -153 4 -20 -11 -21 -9 -18 22 2 28 9 35 38 45 40
14 94 8 128 -13z m3440 -26 c8 -8 12 -66 12 -193 0 -100 -2 -184 -4 -186 -2
-2 -32 -2 -65 -1 l-61 4 0 194 0 194 53 0 c29 0 58 -5 65 -12z m50 -190 c-2
-150 -6 -202 -15 -206 -10 -3 -13 42 -13 202 0 178 2 206 15 206 13 0 15 -27
13 -202z m249 95 c67 -122 83 -162 83 -209 0 -32 -2 -34 -35 -34 -28 0 -35 -4
-35 -19 0 -18 -9 -20 -125 -23 l-125 -3 0 186 c0 130 4 189 12 197 7 7 42 12
89 12 l77 0 59 -107z m-3179 55 l-3 -23 -259 0 c-199 0 -260 3 -263 13 -4 9
43 12 214 12 123 0 225 5 233 10 8 5 30 10 48 10 29 0 33 -3 30 -22z m157 -8
c20 -39 20 -96 -1 -104 -22 -8 -654 -6 -719 3 l-50 7 38 13 c20 7 42 21 47 32
10 18 25 19 276 19 l265 0 6 30 c5 29 7 30 64 30 55 0 59 -2 74 -30z m2075 5
l0 -25 200 0 200 0 0 25 c0 24 3 25 55 25 l55 0 0 -110 0 -110 -1112 0 c-611
0 -1109 -2 -1106 -6 3 -3 502 -6 1109 -7 l1104 -2 3 -57 3 -58 -938 -2 -938
-3 0 -65 0 -65 935 -5 935 -5 0 -65 0 -65 -832 -3 -831 -2 -12 -53 c-7 -28
-16 -69 -21 -89 l-10 -38 -54 0 -55 0 -1 -32 c-4 -83 1 -102 32 -134 27 -28
30 -37 24 -66 -10 -48 -11 -48 -55 -31 l-39 16 -3 146 -3 146 -107 3 -108 3
-1 37 c-1 27 -5 16 -14 -38 -11 -64 -13 -69 -14 -32 -2 61 -23 97 -71 116 -22
9 -47 16 -55 16 -13 0 -15 32 -15 215 0 144 3 215 11 215 5 0 -2 11 -17 25
l-27 25 -843 0 -844 0 0 69 0 69 43 7 c23 4 131 9 240 11 171 5 197 3 197 -10
0 -12 -16 -16 -72 -18 l-73 -3 0 -45 0 -45 529 -3 c382 -1 533 1 542 9 17 14
17 53 0 102 l-14 37 1034 0 1034 0 0 -25z m-3700 -250 l0 -265 -75 0 -75 0 0
258 c0 142 3 262 7 265 3 4 37 7 75 7 l68 0 0 -265z m915 234 c19 -19 19 -19
-1 -40 -16 -16 -34 -21 -76 -21 -62 -1 -100 18 -96 47 6 44 131 54 173 14z
m-844 -9 c3 -54 0 -130 -5 -139 -4 -6 -16 -11 -27 -11 -17 0 -19 7 -19 80 0
79 0 80 25 80 14 0 25 -4 26 -10z m154 -60 l0 -65 -67 -3 -68 -3 0 71 0 71 68
-3 67 -3 0 -65z m-388 -22 c-2 -18 -4 -6 -4 27 0 33 2 48 4 33 2 -15 2 -42 0
-60z m888 53 c3 -11 23 -25 43 -32 l37 -13 -45 -7 c-57 -9 -144 -11 -164 -3
-19 7 -21 45 -4 62 7 7 38 12 69 12 48 0 59 -3 64 -19z m6224 -81 c29 -15 35
-193 15 -440 -23 -289 -11 -518 42 -778 14 -67 14 -76 -1 -98 -9 -14 -25 -24
-40 -24 -41 0 -60 39 -84 177 -68 377 -143 683 -182 735 -18 26 -19 41 -17
210 l3 183 80 22 c87 23 156 28 184 13z m-6709 -108 c0 -97 -10 -107 -102
-107 l-73 0 -3 67 c-4 101 2 108 98 108 l80 0 0 -68z m1688 56 c9 -9 12 -87
12 -290 0 -237 -2 -279 -15 -284 -8 -3 -180 13 -382 35 -1170 132 -1432 161
-1441 161 -30 0 -42 33 -42 115 l0 83 76 4 c99 5 114 20 114 119 l0 69 833 0
c635 0 836 -3 845 -12z m-1888 -58 c0 -27 -4 -50 -10 -50 -5 0 -10 23 -10 50
0 28 5 50 10 50 6 0 10 -22 10 -50z m4910 -55 l0 -45 -100 0 -100 0 0 38 c0
21 3 42 7 45 3 4 48 7 100 7 l93 0 0 -45z m57 13 c34 -31 30 -58 -7 -58 -28 0
-30 2 -30 40 0 46 5 48 37 18z m-277 -38 c0 -16 -7 -20 -30 -20 -23 0 -30 4
-30 20 0 16 7 20 30 20 23 0 30 -4 30 -20z m-4890 -65 l0 -75 -195 0 -195 0 0
75 0 75 195 0 195 0 0 -75z m200 0 c0 -43 -4 -75 -10 -75 -6 0 -10 32 -10 75
0 43 4 75 10 75 6 0 10 -32 10 -75z m4170 -5 l0 -60 -935 0 -935 0 0 53 c0 30
3 57 7 60 3 4 424 7 935 7 l928 0 0 -60z m150 25 c7 -8 18 -15 25 -15 7 0 18
7 25 15 10 12 38 15 132 15 l119 0 -3 -102 -3 -103 -212 -3 -213 -2 0 105 0
105 59 0 c40 0 63 -5 71 -15z m2290 -10 c0 -13 -117 -15 -990 -15 -873 0 -990
2 -990 15 0 13 117 15 990 15 873 0 990 -2 990 -15z m0 -100 l0 -65 -990 0
-990 0 0 65 0 65 990 0 990 0 0 -65z m-1990 -110 c0 -7 7 -18 16 -23 14 -8 13
-14 -9 -58 -14 -27 -39 -68 -56 -91 l-31 -43 -175 0 -175 0 0 115 0 115 215 0
c181 0 215 -2 215 -15z m48 3 c-3 -7 -11 -13 -18 -13 -7 0 -15 6 -17 13 -3 7
4 12 17 12 13 0 20 -5 18 -12z m84 0 c7 7 42 12 81 12 65 0 68 -1 65 -22 -3
-21 -10 -23 -78 -28 -96 -7 -110 -4 -110 27 0 22 2 24 15 13 12 -10 19 -10 27
-2z m-2182 -36 c0 -5 -7 -32 -16 -61 -17 -59 -13 -68 31 -73 l30 -3 3 -76 c3
-73 1 -78 -24 -98 -14 -11 -42 -25 -62 -30 -78 -22 -107 -96 -61 -155 31 -39
6 -31 -30 10 -19 21 -30 42 -27 52 3 9 28 113 57 230 49 203 52 212 75 212 13
0 24 -4 24 -8z m1600 -101 c0 -126 -3 -131 -82 -135 -29 -2 -58 -4 -64 -5 -25
-3 -106 -75 -124 -111 -27 -53 -26 -122 4 -186 21 -44 236 -394 400 -646 31
-48 56 -94 56 -102 0 -32 -495 -313 -537 -304 -15 3 -18 12 -15 53 2 45 -10
77 -125 333 -93 207 -134 287 -152 300 -40 26 -106 20 -175 -17 l-58 -31 -180
0 c-247 0 -255 5 -333 220 -52 143 -72 175 -119 196 -29 12 -25 13 59 13 50 0
84 -3 77 -6 -35 -14 -32 -40 18 -177 27 -75 54 -145 60 -156 22 -42 60 -50
224 -50 173 0 216 10 311 72 73 49 76 67 26 174 -42 90 -74 134 -97 134 -7 0
-14 4 -16 9 -2 6 -179 13 -421 17 -303 5 -420 10 -427 19 -5 7 -13 25 -16 42
-8 39 24 74 88 97 26 10 57 30 69 44 19 24 20 35 15 96 -8 81 -10 86 -42 86
-34 0 -39 20 -19 80 l17 50 789 0 789 0 0 -109z m600 -3 c25 -65 30 -89 23
-113 -9 -29 -10 -30 -82 -33 -88 -4 -117 13 -107 62 7 35 103 166 121 166 7 0
27 -37 45 -82z m-2472 -162 c2 -109 0 -137 -10 -134 -7 3 -49 18 -93 33 -44
16 -87 34 -96 42 -8 7 -26 13 -38 13 -21 0 -22 3 -15 58 8 71 14 79 15 21 l1
-44 9 45 c5 25 10 56 11 70 1 14 3 29 6 33 2 4 49 6 105 5 l102 -3 3 -139z
m152 78 c0 -8 -7 -47 -16 -85 l-16 -71 -29 28 c-25 24 -29 35 -29 86 l0 58 45
0 c34 0 45 -4 45 -16z m-241 -202 c102 -38 187 -74 189 -81 3 -9 -7 -8 -34 4
-21 9 -107 41 -191 72 -84 31 -153 60 -153 65 0 11 -19 17 189 -60z m-110 2
c17 -16 -91 -440 -174 -688 -92 -274 -245 -628 -348 -804 -20 -34 -32 -64 -27
-67 6 -4 10 -2 10 3 0 5 25 55 56 113 199 371 377 862 470 1292 32 152 32 153
44 141 23 -23 -117 -551 -218 -826 -99 -267 -287 -673 -334 -720 -12 -12 -14
-18 -5 -18 6 0 21 15 31 33 45 77 179 353 230 475 120 285 251 715 301 982 14
74 5 72 128 25 132 -50 124 -21 66 -260 -75 -305 -173 -605 -289 -890 -61
-147 -238 -505 -250 -505 -10 0 -269 157 -288 175 -10 9 4 44 72 176 131 256
223 480 322 794 48 150 128 459 139 538 7 46 9 48 34 42 14 -4 28 -9 30 -11z
m1014 -172 c26 -29 47 -88 47 -134 0 -43 -29 -120 -49 -132 -6 -4 -11 -16 -11
-28 0 -18 4 -20 32 -14 45 9 74 30 105 78 25 37 28 52 31 144 l4 104 32 0 c48
0 68 -20 116 -120 55 -117 52 -127 -50 -184 l-75 -41 -168 -3 c-198 -4 -218 1
-242 61 -53 133 -96 261 -91 273 4 11 35 14 154 14 130 0 151 -2 165 -18z
m137 -89 c-6 -124 -22 -158 -92 -194 -48 -25 -58 -19 -29 17 30 38 52 121 45
164 -3 19 -17 54 -29 78 l-24 42 67 0 67 0 -5 -107z m-675 35 c9 -24 19 -49
22 -55 3 -7 -1 -13 -9 -13 -12 0 -48 78 -48 103 0 21 20 2 35 -35z"/>
<path d="M590 2950 c8 -5 26 -10 40 -10 14 0 32 5 40 10 11 7 -1 10 -40 10
-39 0 -51 -3 -40 -10z"/>
<path d="M5274 2710 c0 -85 2 -120 3 -77 2 42 2 112 0 155 -1 42 -3 7 -3 -78z"/>
<path d="M3297 2793 c105 -2 281 -2 390 0 109 1 23 2 -192 2 -214 0 -304 -1
-198 -2z"/>
<path d="M991 2764 c0 -11 3 -14 6 -6 3 7 2 16 -1 19 -3 4 -6 -2 -5 -13z"/>
<path d="M2500 2735 c0 -8 5 -15 10 -15 6 0 10 7 10 15 0 8 -4 15 -10 15 -5 0
-10 -7 -10 -15z"/>
<path d="M2753 2713 c26 -2 67 -2 90 0 23 2 2 3 -48 3 -49 0 -68 -1 -42 -3z"/>
<path d="M3588 2713 c23 -2 61 -2 85 0 23 2 4 4 -43 4 -47 0 -66 -2 -42 -4z"/>
<path d="M2853 2243 c64 -2 170 -2 235 0 64 1 11 3 -118 3 -129 0 -182 -2
-117 -3z"/>
<path d="M565 2701 c-3 -5 -2 -12 3 -15 5 -3 9 1 9 9 0 17 -3 19 -12 6z"/>
<path d="M612 2653 c14 -3 16 -9 8 -23 -7 -14 -6 -23 5 -33 8 -8 11 -17 8 -21
-4 -3 0 -6 9 -6 22 0 44 46 30 63 -7 8 -9 17 -5 20 3 4 -11 6 -33 6 -21 -1
-31 -3 -22 -6z m55 -29 c8 -21 -13 -42 -28 -27 -13 13 -5 43 11 43 6 0 13 -7
17 -16z"/>
<path d="M812 2628 c-15 -15 -16 -50 0 -66 7 -7 25 -12 40 -12 53 0 50 81 -3
88 -13 2 -30 -3 -37 -10z m66 -32 c3 -23 0 -28 -13 -22 -9 3 -13 2 -10 -4 3
-6 -3 -10 -15 -10 -26 0 -35 22 -20 50 17 32 54 23 58 -14z"/>
<path d="M1002 2515 c-7 -18 -29 -47 -48 -64 -19 -17 -31 -31 -26 -31 14 0 79
75 87 100 11 36 0 32 -13 -5z"/>
<path d="M1388 2393 c6 -2 18 -2 25 0 6 3 1 5 -13 5 -14 0 -19 -2 -12 -5z"/>
<path d="M1473 2383 c9 -2 23 -2 30 0 6 3 -1 5 -18 5 -16 0 -22 -2 -12 -5z"/>
<path d="M1558 2373 c12 -2 30 -2 40 0 9 3 -1 5 -23 4 -22 0 -30 -2 -17 -4z"/>
<path d="M1648 2363 c12 -2 30 -2 40 0 9 3 -1 5 -23 4 -22 0 -30 -2 -17 -4z"/>
<path d="M1733 2353 c9 -2 25 -2 35 0 9 3 1 5 -18 5 -19 0 -27 -2 -17 -5z"/>
<path d="M1818 2343 c12 -2 30 -2 40 0 9 3 -1 5 -23 4 -22 0 -30 -2 -17 -4z"/>
<path d="M1908 2333 c12 -2 30 -2 40 0 9 3 -1 5 -23 4 -22 0 -30 -2 -17 -4z"/>
<path d="M1998 2323 c12 -2 30 -2 40 0 9 3 -1 5 -23 4 -22 0 -30 -2 -17 -4z"/>
<path d="M2093 2313 c9 -2 23 -2 30 0 6 3 -1 5 -18 5 -16 0 -22 -2 -12 -5z"/>
<path d="M2173 2303 c9 -2 23 -2 30 0 6 3 -1 5 -18 5 -16 0 -22 -2 -12 -5z"/>
<path d="M2268 2293 c7 -3 16 -2 19 1 4 3 -2 6 -13 5 -11 0 -14 -3 -6 -6z"/>
<path d="M513 2465 c0 -33 2 -45 4 -27 2 18 2 45 0 60 -2 15 -4 0 -4 -33z"/>
<path d="M352 2475 c0 -16 2 -22 5 -12 2 9 2 23 0 30 -3 6 -5 -1 -5 -18z"/>
<path d="M370 2461 c0 -5 8 -11 18 -15 9 -3 24 -9 32 -12 8 -4 3 3 -12 15 -28
23 -38 26 -38 12z"/>
<path d="M5273 2395 c0 -44 2 -61 4 -37 2 23 2 59 0 80 -2 20 -4 1 -4 -43z"/>
<path d="M5273 2175 c0 -44 2 -61 4 -37 2 23 2 59 0 80 -2 20 -4 1 -4 -43z"/>
<path d="M5022 2204 c-45 -31 -17 -104 41 -104 26 0 57 31 57 58 0 17 -45 62
-62 62 -8 0 -24 -7 -36 -16z m68 -14 c24 -24 25 -43 4 -64 -18 -19 -55 -21
-72 -4 -17 17 -15 54 4 72 21 21 40 20 64 -4z"/>
<path d="M5040 2175 c-16 -19 -6 -45 19 -45 25 0 34 26 15 45 -19 18 -19 18
-34 0z"/>
<path d="M3273 2073 c9 -2 25 -2 35 0 9 3 1 5 -18 5 -19 0 -27 -2 -17 -5z"/>
<path d="M3234 2028 c-19 -23 -19 -23 2 -5 27 23 59 22 84 -3 11 -11 20 -16
20 -11 0 15 -42 41 -66 41 -11 0 -29 -10 -40 -22z"/>
<path d="M3210 1980 c0 -31 30 -60 64 -60 31 0 66 24 66 46 0 4 -7 -2 -16 -14
-11 -16 -25 -22 -50 -22 -30 0 -37 5 -49 33 -8 17 -14 25 -15 17z"/>
<path d="M4040 2062 c-42 -42 -42 -101 -1 -143 42 -42 86 -40 143 7 48 41 112
73 144 74 28 0 47 24 40 48 -7 21 -30 26 -203 38 l-92 7 -31 -31z m228 2 c45
-4 85 -11 88 -16 10 -16 -15 -35 -55 -42 -23 -3 -65 -25 -107 -56 -38 -27 -79
-50 -92 -50 -13 0 -37 13 -53 29 -41 42 -40 90 3 126 29 24 38 27 83 21 27 -3
87 -8 133 -12z"/>
<path d="M4093 1983 c4 -3 1 -13 -6 -22 -11 -14 -10 -14 5 -2 16 12 16 31 1
31 -4 0 -3 -3 0 -7z"/>
<path d="M3249 1823 c-9 -11 -10 -14 -1 -9 8 5 18 -3 30 -23 18 -33 27 -37 37
-21 3 6 1 10 -5 10 -5 0 -19 14 -29 30 -17 28 -19 29 -32 13z"/>
<path d="M4088 1713 c6 -2 18 -2 25 0 6 3 1 5 -13 5 -14 0 -19 -2 -12 -5z"/>
<path d="M4148 1713 c12 -2 30 -2 40 0 9 3 -1 5 -23 4 -22 0 -30 -2 -17 -4z"/>
<path d="M4686 1447 c3 -10 9 -15 12 -12 3 3 0 11 -7 18 -10 9 -11 8 -5 -6z"/>
<path d="M4765 1300 c9 -16 18 -30 21 -30 2 0 -2 14 -11 30 -9 17 -18 30 -21
30 -2 0 2 -13 11 -30z"/>
<path d="M4830 1180 c6 -11 13 -20 16 -20 2 0 0 9 -6 20 -6 11 -13 20 -16 20
-2 0 0 -9 6 -20z"/>
<path d="M5420 2103 c-20 -25 -30 -47 -28 -63 3 -23 7 -25 53 -25 47 0 50 2
53 26 4 31 -22 99 -37 99 -5 0 -24 -17 -41 -37z m60 -19 c7 -19 9 -41 6 -49
-7 -21 -75 -20 -82 0 -7 17 44 97 57 90 4 -3 13 -21 19 -41z"/>
<path d="M2970 2065 c-11 -13 -11 -19 4 -33 20 -20 51 -6 51 24 0 24 -37 30
-55 9z m48 -12 c5 -17 -26 -29 -40 -15 -6 6 -7 15 -3 22 9 14 37 9 43 -7z"/>
<path d="M2920 2036 c0 -2 8 -10 18 -17 15 -13 16 -12 3 4 -13 16 -21 21 -21
13z"/>
<path d="M2876 2014 c-17 -16 -12 -40 9 -48 19 -7 46 20 39 39 -8 21 -32 26
-48 9z m33 -30 c-9 -11 -15 -12 -25 -3 -11 9 -12 15 -3 25 9 11 15 12 25 3 11
-9 12 -15 3 -25z"/>
<path d="M2919 1943 l-24 -28 28 24 c15 14 27 26 27 28 0 8 -8 1 -31 -24z"/>
<path d="M2970 1931 c-14 -28 13 -55 41 -41 22 12 25 30 7 48 -18 18 -36 15
-48 -7z m47 -7 c8 -20 -17 -36 -34 -22 -10 8 -10 14 -2 24 15 18 28 18 36 -2z"/>
<path d="M2858 1913 c6 -2 18 -2 25 0 6 3 1 5 -13 5 -14 0 -19 -2 -12 -5z"/>
<path d="M2881 1584 c0 -11 3 -14 6 -6 3 7 2 16 -1 19 -3 4 -6 -2 -5 -13z"/>
<path d="M2851 1475 c-64 -256 -171 -556 -317 -892 -8 -18 -12 -33 -10 -33 14
0 167 375 230 563 54 161 130 436 123 443 -2 3 -14 -34 -26 -81z"/>
<path d="M2497 505 c-9 -19 -15 -35 -12 -35 7 0 37 61 33 66 -3 2 -12 -12 -21
-31z"/>
<path d="M2466 443 c-6 -14 -5 -15 5 -6 7 7 10 15 7 18 -3 3 -9 -2 -12 -12z"/>
<path d="M4580 2987 c0 -9 -8 -21 -17 -27 -17 -11 -17 -11 -1 -6 10 3 22 -2
28 -12 7 -13 8 -8 3 18 -7 39 -13 52 -13 27z"/>
<path d="M4665 2958 c-2 -7 -3 -22 -2 -33 1 -15 -5 -21 -25 -23 -18 -2 -28 1
-28 10 0 10 -2 10 -8 1 -4 -7 -37 -14 -72 -16 -56 -3 -52 -3 27 -5 65 -1 100
-7 121 -19 25 -14 35 -15 56 -5 22 10 26 18 26 57 l0 45 -45 0 c-28 0 -47 -5
-50 -12z m35 -2 c0 -2 -7 -9 -15 -16 -12 -10 -15 -10 -15 4 0 9 7 16 15 16 8
0 15 -2 15 -4z m50 -12 c0 -14 -3 -14 -15 -4 -8 7 -15 14 -15 16 0 2 7 4 15 4
8 0 15 -7 15 -16z m-20 -18 c0 -20 -26 -40 -35 -26 -10 16 2 40 20 40 8 0 15
-6 15 -14z m-32 -38 c9 -9 15 -9 24 0 14 14 28 16 28 3 0 -14 -37 -23 -60 -16
-11 3 -20 11 -20 16 0 13 14 11 28 -3z"/>
<path d="M4700 2920 c0 -5 5 -10 10 -10 6 0 10 5 10 10 0 6 -4 10 -10 10 -5 0
-10 -4 -10 -10z"/>
<path d="M4495 2935 c-25 -12 -26 -14 -5 -9 28 7 60 23 45 23 -5 0 -23 -6 -40
-14z"/>
<path d="M5681 2234 c0 -11 3 -14 6 -6 3 7 2 16 -1 19 -3 4 -6 -2 -5 -13z"/>
</g>
</svg>
