<?xml version="1.0" standalone="no"?>
<!DOCTYPE svg PUBLIC "-//W3C//DTD SVG 20010904//EN"
 "http://www.w3.org/TR/2001/REC-SVG-20010904/DTD/svg10.dtd">
<svg version="1.0" xmlns="http://www.w3.org/2000/svg"
 width="1400.000000pt" height="1000.000000pt" viewBox="0 0 1400.000000 1000.000000"
 preserveAspectRatio="xMidYMid meet">

<g transform="translate(0.000000,1000.000000) scale(0.100000,-0.100000)"
fill="currentColor" stroke="none">
<path d="M6359 9223 c-3 -39 2 -297 6 -301 3 -3 5 65 5 151 0 87 -2 157 -5
157 -3 0 -5 -3 -6 -7z"/>
<path d="M6471 9023 c2 -70 6 -63 11 20 2 26 0 47 -4 47 -5 0 -7 -30 -7 -67z"/>
<path d="M6570 8993 c0 -54 5 -105 10 -113 7 -10 10 21 10 98 0 68 -4 112 -10
112 -6 0 -10 -39 -10 -97z"/>
<path d="M6789 9050 c-2 -32 -1 -186 2 -215 1 -16 5 22 9 85 3 63 2 122 -2
130 -7 13 -8 13 -9 0z"/>
<path d="M6196 8947 c-5 -10 -9 -127 -10 -260 l-1 -242 -27 3 c-16 2 -28 -1
-28 -7 0 -5 12 -11 28 -13 27 -3 27 -4 34 -97 8 -102 12 -123 19 -100 8 28 -6
734 -15 716z"/>
<path d="M6818 8803 c-2 -5 -1 -30 3 -58 l6 -50 1 58 c2 52 -2 69 -10 50z"/>
<path d="M7464 8763 c-44 -43 -50 -55 -60 -113 -7 -36 -10 -94 -7 -129 5 -52
3 -65 -11 -73 -14 -8 -14 -12 -1 -45 20 -48 20 -181 0 -210 -15 -22 -17 -22
-386 -23 -265 0 -375 3 -385 11 -16 13 -16 13 -16 -51 0 -78 0 -76 18 -58 13
13 14 19 3 35 -7 11 -9 28 -6 37 6 15 41 16 384 14 l378 -3 3 -24 c5 -31 -6
-102 -18 -121 -5 -8 -21 -14 -37 -15 -28 0 -28 0 -25 -60 5 -73 24 -118 67
-150 35 -28 106 -55 140 -55 13 0 36 -7 51 -15 16 -8 41 -15 55 -15 26 0 54
-23 73 -62 18 -35 32 -31 46 12 18 54 36 69 58 47 15 -16 15 -20 -1 -64 -19
-56 -37 -166 -37 -238 0 -80 27 -183 70 -269 37 -75 111 -176 129 -176 5 0 11
87 15 193 4 105 12 212 17 237 6 25 9 104 8 175 -1 72 2 148 6 170 8 41 39 85
61 85 6 0 14 7 18 15 3 8 10 15 16 15 6 0 18 6 25 13 8 6 32 26 54 42 32 24
40 37 41 62 0 17 -4 35 -10 38 -5 3 -10 17 -10 29 0 25 -53 76 -79 76 -20 1
-49 26 -79 68 -23 33 -23 34 -19 284 3 137 2 259 0 269 -4 14 -14 19 -37 19
-37 -1 -63 -21 -95 -75 -40 -67 -87 -105 -130 -105 -44 0 -55 8 -39 27 17 21
2 27 -23 9 -17 -11 -26 -13 -36 -5 -19 16 -6 88 22 119 26 29 37 57 26 64 -4
3 -41 9 -82 15 -41 5 -81 12 -90 15 -10 5 -32 -9 -65 -41z"/>
<path d="M6330 8580 c-3 -91 -3 -219 0 -285 l6 -120 4 120 c3 66 3 194 0 285
l-5 165 -5 -165z"/>
<path d="M7792 8710 c0 -14 2 -19 5 -12 2 6 2 18 0 25 -3 6 -5 1 -5 -13z"/>
<path d="M7765 8669 c-4 -6 -5 -12 -2 -15 2 -3 7 2 10 11 7 17 1 20 -8 4z"/>
<path d="M7730 8624 c0 -8 5 -12 10 -9 6 3 10 10 10 16 0 5 -4 9 -10 9 -5 0
-10 -7 -10 -16z"/>
<path d="M6840 8600 c20 -13 33 -13 25 0 -3 6 -14 10 -23 10 -15 0 -15 -2 -2
-10z"/>
<path d="M6491 8340 c-1 -124 -5 -232 -11 -240 -10 -16 6 -43 21 -34 11 6 10
366 -1 444 -5 37 -8 -20 -9 -170z"/>
<path d="M6023 8463 c9 -2 23 -2 30 0 6 3 -1 5 -18 5 -16 0 -22 -2 -12 -5z"/>
<path d="M6598 8444 c-9 -8 3 -44 13 -38 11 7 12 44 1 44 -5 0 -11 -3 -14 -6z"/>
<path d="M6221 8155 c-2 -57 -9 -64 -71 -63 -101 1 -116 -6 -25 -11 l90 -6 0
-55 0 -55 -82 -3 c-53 -2 -83 1 -83 8 0 5 -4 10 -10 10 -17 0 -11 -27 8 -31 9
-2 56 -3 105 -1 l87 3 -1 67 c-1 37 -4 92 -9 122 -7 51 -7 52 -9 15z"/>
<path d="M6328 8120 c-8 -46 3 -68 22 -45 10 11 10 19 3 23 -6 4 -13 18 -15
32 -3 22 -5 20 -10 -10z"/>
<path d="M6645 8090 c-4 -7 57 -10 175 -10 118 0 179 3 175 10 -4 6 -73 10
-175 10 -102 0 -171 -4 -175 -10z"/>
<path d="M6408 8083 c12 -2 30 -2 40 0 9 3 -1 5 -23 4 -22 0 -30 -2 -17 -4z"/>
<path d="M7024 8054 c3 -9 6 -27 6 -40 0 -13 5 -24 10 -24 11 0 13 39 4 64 -3
9 -11 16 -16 16 -6 0 -7 -7 -4 -16z"/>
<path d="M6518 7992 c-4 -15 -17 -24 -40 -29 l-33 -7 40 -7 c22 -4 41 -6 43
-4 2 2 2 18 0 37 -3 28 -4 30 -10 10z"/>
<path d="M6307 7994 c-4 -4 -7 -18 -7 -30 0 -21 3 -22 38 -17 45 7 54 13 20
13 -16 0 -28 8 -34 21 -5 11 -13 17 -17 13z"/>
<path d="M6592 7968 c-7 -7 -12 -14 -12 -17 0 -12 418 -13 425 -2 4 8 -52 11
-187 11 -116 0 -198 4 -204 10 -7 7 -14 6 -22 -2z"/>
<path d="M6548 7923 c6 -2 18 -2 25 0 6 3 1 5 -13 5 -14 0 -19 -2 -12 -5z"/>
<path d="M6103 7743 c-8 -3 -13 -23 -13 -51 0 -69 -9 -95 -31 -89 -18 5 -29
-11 -29 -40 0 -8 -8 -27 -19 -41 -10 -15 -42 -72 -71 -127 -28 -55 -56 -105
-60 -110 -5 -6 -13 -23 -19 -38 -10 -25 -9 -27 14 -27 19 0 25 5 25 21 0 12 5
19 13 17 6 -3 12 -11 12 -19 0 -11 30 -15 150 -19 170 -6 178 -5 167 18 -5 10
-7 98 -6 197 l3 180 103 3 c57 2 113 0 126 -3 l23 -6 -3 -194 -3 -195 66 0 66
0 -9 48 c-5 26 -10 117 -11 202 l-2 155 25 -3 c14 -2 77 -2 141 -2 92 1 118
-1 128 -13 9 -12 11 -63 9 -202 l-3 -185 165 2 c144 3 165 5 168 19 2 12 -4
17 -20 17 -13 -1 -62 1 -110 2 -48 2 -93 -1 -100 -7 -7 -5 -26 -7 -43 -3 l-30
6 28 18 c33 23 35 36 3 36 -24 0 -39 20 -28 36 4 5 41 9 82 9 70 0 75 1 78 23
2 12 9 22 16 22 8 0 20 7 27 16 11 14 14 11 24 -23 8 -27 16 -37 28 -35 12 2
17 -4 17 -20 0 -13 8 -31 18 -40 27 -26 42 -46 42 -57 0 -5 -6 -12 -12 -14 -7
-3 7 -6 32 -6 25 0 40 3 34 7 -7 4 -28 37 -49 75 -20 37 -41 67 -46 67 -5 0
-9 6 -9 13 0 8 -17 38 -37 69 -60 86 -63 92 -69 110 -7 20 -41 30 -51 15 -3
-6 -1 -13 5 -15 7 -2 12 -11 12 -20 -1 -15 -2 -15 -15 2 -14 19 -35 14 -35 -9
0 -7 -7 -15 -15 -19 -9 -3 -15 -19 -15 -41 0 -24 4 -35 15 -35 9 0 15 9 15 25
0 28 27 35 36 10 4 -8 12 -15 20 -15 10 0 13 7 8 25 -4 15 -2 25 5 25 6 0 11
-6 11 -14 0 -8 7 -16 15 -20 21 -8 19 -26 -4 -26 -12 0 -21 -9 -25 -25 -7 -27
-25 -32 -44 -13 -8 8 -12 9 -12 1 0 -6 5 -13 11 -15 12 -4 1 -38 -12 -38 -5 0
-12 6 -15 13 -3 9 -16 12 -34 9 l-30 -4 -2 81 c-1 44 -2 96 -2 114 -1 25 3 33
21 35 19 3 21 8 17 45 -7 74 -9 82 -19 89 -11 8 -842 9 -862 1z m454 -155 c-9
-35 -12 -237 -4 -245 7 -7 10 -63 3 -63 -2 0 -11 3 -20 6 -14 5 -16 29 -16
159 0 152 2 161 34 164 4 1 6 -9 3 -21z m-347 -109 c0 -81 -3 -99 -15 -99 -8
0 -15 8 -15 18 -1 16 -1 16 -11 0 -15 -27 -26 -22 -33 17 -7 36 -22 46 -32 20
-7 -17 -40 -20 -49 -5 -10 17 -25 11 -25 -10 0 -11 5 -20 10 -20 6 0 10 -15
10 -34 0 -30 4 -34 31 -40 18 -3 37 -2 43 3 6 5 27 11 46 13 l35 3 3 -47 c3
-53 -15 -67 -20 -15 -2 17 -7 32 -13 32 -5 0 -11 -15 -13 -32 -4 -37 -17 -43
-27 -13 -7 22 -30 27 -41 9 -13 -21 -71 -38 -108 -32 -44 7 -48 32 -11 65 14
12 25 30 25 40 0 10 7 18 15 18 8 0 15 7 15 15 0 8 -7 15 -15 15 -8 0 -15 9
-15 20 0 11 7 23 15 26 8 4 15 17 15 30 0 14 7 27 15 30 8 4 15 14 15 23 1 9
7 1 15 -17 16 -37 35 -35 35 3 0 20 35 55 44 43 2 -2 8 -12 14 -23 10 -18 11
-17 12 11 0 17 3 34 6 37 17 17 24 -13 24 -104z m-97 -111 c6 -4 8 -10 5 -13
-13 -13 -28 6 -27 33 1 21 2 23 6 7 3 -11 10 -23 16 -27z m-126 10 c-3 -8 -6
-5 -6 6 -1 11 2 17 5 13 3 -3 4 -12 1 -19z m573 -129 c0 -11 -4 -17 -10 -14
-5 3 -10 13 -10 21 0 8 5 14 10 14 6 0 10 -9 10 -21z"/>
<path d="M6173 7455 c0 -22 2 -30 4 -17 2 12 2 30 0 40 -3 9 -5 -1 -4 -23z"/>
<path d="M5936 7547 c-10 -17 -27 -49 -38 -69 -11 -21 -24 -38 -28 -38 -4 0
-20 -25 -36 -55 -15 -31 -33 -60 -41 -66 -7 -7 -13 -20 -13 -30 0 -21 -25 -26
-34 -6 -3 6 -3 -3 0 -20 6 -34 -3 -42 -24 -21 -9 9 -12 8 -12 -4 0 -16 51 -30
68 -19 5 3 22 31 38 61 16 30 32 57 35 60 6 5 24 36 76 131 12 22 26 45 31 52
5 7 12 22 15 35 8 33 -15 27 -37 -11z"/>
<path d="M7682 7560 c0 -14 2 -19 5 -12 2 6 2 18 0 25 -3 6 -5 1 -5 -13z"/>
<path d="M9144 7405 c0 -82 2 -115 3 -72 2 43 2 110 0 150 -1 40 -3 5 -3 -78z"/>
<path d="M6707 7300 c-10 -36 -9 -78 2 -85 16 -9 20 9 13 61 -7 41 -9 45 -15
24z"/>
<path d="M7002 7314 c-28 -13 4 -24 66 -23 80 1 144 16 76 18 -23 1 -61 3 -85
6 -24 2 -50 2 -57 -1z"/>
<path d="M9110 7209 c0 -11 5 -17 10 -14 6 3 10 13 10 21 0 8 -4 14 -10 14 -5
0 -10 -9 -10 -21z"/>
<path d="M7711 7180 c0 -20 4 -41 9 -46 11 -11 -10 -114 -28 -138 -5 -6 -16
-32 -26 -58 -24 -66 -26 -315 -2 -370 14 -33 16 -115 16 -688 0 -380 4 -657 9
-668 5 -9 12 -24 15 -32 4 -8 15 -28 26 -45 11 -16 30 -51 42 -77 13 -28 28
-48 38 -48 9 0 21 -5 28 -12 9 -9 12 -9 13 3 0 7 5 73 10 144 6 72 14 240 19
375 4 135 13 279 19 320 5 41 10 157 11 258 0 101 4 191 9 201 5 9 11 119 12
245 l3 227 31 27 32 27 -81 80 c-46 45 -92 102 -106 130 -14 27 -39 68 -57 91
-17 23 -33 53 -36 66 -3 16 -5 13 -6 -12z"/>
<path d="M9142 7130 c0 -14 2 -19 5 -12 2 6 2 18 0 25 -3 6 -5 1 -5 -13z"/>
<path d="M9106 7075 c-3 -8 -1 -15 4 -15 6 0 10 7 10 15 0 8 -2 15 -4 15 -2 0
-6 -7 -10 -15z"/>
<path d="M8975 6900 c3 -5 8 -10 11 -10 2 0 4 5 4 10 0 6 -5 10 -11 10 -5 0
-7 -4 -4 -10z"/>
<path d="M8915 6850 c-3 -5 1 -10 10 -10 9 0 13 5 10 10 -3 6 -8 10 -10 10 -2
0 -7 -4 -10 -10z"/>
<path d="M8208 6713 c6 -2 18 -2 25 0 6 3 1 5 -13 5 -14 0 -19 -2 -12 -5z"/>
<path d="M8318 6683 c18 -2 45 -2 60 0 15 2 0 4 -33 4 -33 0 -45 -2 -27 -4z"/>
<path d="M8543 6683 c9 -2 25 -2 35 0 9 3 1 5 -18 5 -19 0 -27 -2 -17 -5z"/>
<path d="M6212 5546 c-17 -55 -5 -110 24 -114 24 -4 51 24 56 58 2 21 8 25 31
22 18 -2 27 2 27 11 0 22 -12 28 -28 15 -11 -10 -17 -8 -28 7 -42 61 -65 61
-82 1z m58 -43 c0 -13 -6 -23 -14 -23 -22 0 -27 15 -15 46 8 23 12 25 19 14 6
-8 10 -25 10 -37z"/>
<path d="M6380 5575 c0 -8 5 -15 10 -15 14 0 13 -33 -2 -48 -9 -9 -9 -15 0
-24 9 -9 8 -16 -4 -30 -15 -16 -15 -18 0 -24 9 -3 27 -3 41 0 21 5 24 12 27
58 4 66 24 75 34 13 6 -46 28 -80 44 -70 11 7 40 94 40 122 0 24 -18 31 -36
13 -7 -7 -19 -8 -37 -1 -15 6 -33 8 -41 5 -8 -3 -17 -1 -21 5 -10 17 -55 13
-55 -4z"/>
<path d="M6602 5578 c-21 -21 -14 -66 13 -84 30 -20 32 -34 6 -34 -11 0 -23
-5 -26 -10 -9 -14 20 -23 50 -16 21 5 25 12 25 41 0 25 -5 35 -20 40 -11 3
-20 15 -20 25 0 9 9 20 20 23 11 3 20 10 20 16 0 15 -53 14 -68 -1z"/>
<path d="M6877 5572 c-11 -12 -17 -36 -17 -70 0 -42 4 -53 21 -63 31 -16 60
17 65 72 6 65 -34 100 -69 61z m43 -59 c0 -30 -10 -54 -21 -47 -10 6 -12 77
-2 87 9 10 23 -13 23 -40z"/>
<path d="M6136 5568 c-2 -7 -9 -29 -16 -48 -22 -62 -19 -85 13 -88 16 -2 36
-1 45 3 13 5 11 10 -13 29 -28 23 -29 24 -13 56 16 33 14 60 -3 60 -5 0 -11
-6 -13 -12z"/>
<path d="M6787 5564 c-4 -4 -7 -20 -7 -35 0 -15 -4 -31 -10 -34 -5 -3 -10 -19
-10 -36 0 -26 3 -29 34 -29 42 0 54 15 25 30 -18 10 -20 17 -14 48 4 21 7 41
8 46 2 11 -17 18 -26 10z"/>
<path d="M6701 5536 c-15 -18 2 -31 25 -18 13 7 13 10 1 20 -11 10 -17 9 -26
-2z"/>
<path d="M5697 5332 c-24 -26 -21 -59 8 -86 21 -19 23 -25 10 -30 -22 -8 -18
-26 6 -26 33 0 51 56 35 111 -15 49 -34 59 -59 31z"/>
<path d="M5945 5341 c-3 -6 4 -15 15 -21 45 -24 45 -91 0 -105 -23 -7 -17 -25
8 -25 31 1 53 27 58 67 4 32 0 45 -20 66 -26 28 -50 35 -61 18z"/>
<path d="M6105 5341 c-3 -5 8 -18 25 -27 45 -27 42 -70 -5 -90 -20 -8 -33 -19
-30 -24 8 -14 65 -13 65 1 0 6 7 17 15 25 19 19 20 73 1 80 -8 3 -16 14 -19
25 -5 20 -41 27 -52 10z"/>
<path d="M6285 5334 c-16 -8 -37 -13 -46 -11 -29 8 -41 -7 -29 -37 5 -15 10
-38 10 -50 0 -13 9 -31 19 -40 19 -18 20 -17 35 19 9 21 16 46 16 56 0 21 28
51 44 46 6 -2 12 -26 14 -53 4 -67 9 -79 26 -64 16 12 17 114 3 138 -11 17
-56 15 -92 -4z"/>
<path d="M6787 5344 c-4 -4 -7 -16 -7 -27 0 -11 -8 -29 -17 -39 -13 -14 -14
-21 -5 -30 18 -18 15 -26 -10 -30 -39 -5 -25 -23 20 -26 l42 -3 0 50 c0 27 2
55 5 63 6 16 -17 52 -28 42z"/>
<path d="M6908 5339 c-23 -13 -23 -66 -1 -92 17 -18 17 -19 0 -28 -22 -13 -13
-29 17 -29 30 0 42 15 50 66 5 33 2 47 -15 68 -23 29 -26 30 -51 15z m28 -56
c-10 -10 -19 5 -10 18 6 11 8 11 12 0 2 -7 1 -15 -2 -18z"/>
<path d="M7010 5330 c-24 -24 -25 -48 -3 -80 12 -17 13 -25 5 -28 -22 -7 -13
-32 12 -32 28 0 30 3 40 43 5 23 3 29 -18 37 -29 11 -25 46 6 56 16 5 18 8 7
15 -20 13 -27 11 -49 -11z"/>
<path d="M7270 5329 c-13 -23 -6 -69 10 -69 10 0 14 13 11 43 -1 9 4 17 13 17
12 0 16 -11 16 -45 0 -39 -3 -47 -25 -55 -31 -12 -32 -26 -4 -33 35 -9 69 33
66 82 -4 67 -62 107 -87 60z"/>
<path d="M5888 5321 c-6 -11 -18 -17 -26 -13 -8 3 -21 -3 -28 -13 -10 -14 -14
-15 -14 -4 0 8 -5 21 -10 29 -9 13 -11 13 -20 0 -11 -17 -13 -73 -4 -108 9
-31 48 -26 52 6 2 12 7 22 10 22 4 0 12 -10 17 -22 6 -13 20 -24 32 -26 21 -3
22 0 21 72 -1 77 -8 91 -30 57z"/>
<path d="M6466 5330 c-3 -8 -5 -42 -3 -75 2 -48 6 -60 19 -63 12 -2 21 6 28
22 12 32 18 33 30 1 6 -15 17 -25 30 -25 18 0 20 6 20 70 0 68 -12 91 -25 49
-5 -15 -10 -18 -18 -10 -6 6 -20 11 -30 11 -11 0 -26 8 -33 18 -11 14 -13 15
-18 2z"/>
<path d="M6627 5333 c-10 -10 -8 -131 2 -137 9 -6 21 40 21 81 0 15 5 23 13
20 7 -2 12 -23 12 -53 0 -36 4 -49 14 -49 12 0 14 14 12 65 -1 35 -5 68 -7 72
-6 10 -58 11 -67 1z"/>
<path d="M7140 5327 c0 -8 3 -17 8 -21 4 -4 7 -31 7 -59 l0 -52 40 0 40 0 7
60 c5 45 3 64 -8 75 -12 12 -14 12 -14 -2 0 -27 -20 -31 -44 -9 -26 24 -36 26
-36 8z"/>
<path d="M5458 4323 c-9 -2 -19 -12 -22 -21 -3 -9 -7 -221 -8 -470 -3 -439 -2
-454 16 -468 29 -21 2158 -21 2175 0 8 10 11 142 11 469 0 250 -2 462 -6 470
-3 8 -22 17 -42 21 -42 7 -2098 6 -2124 -1z"/>
<path d="M5508 3283 c12 -2 30 -2 40 0 9 3 -1 5 -23 4 -22 0 -30 -2 -17 -4z"/>
<path d="M5678 3283 c7 -3 16 -2 19 1 4 3 -2 6 -13 5 -11 0 -14 -3 -6 -6z"/>
<path d="M5738 3283 c7 -3 16 -2 19 1 4 3 -2 6 -13 5 -11 0 -14 -3 -6 -6z"/>
<path d="M5788 3283 c7 -3 16 -2 19 1 4 3 -2 6 -13 5 -11 0 -14 -3 -6 -6z"/>
<path d="M5888 3283 c29 -2 74 -2 100 0 26 2 2 3 -53 3 -55 0 -76 -1 -47 -3z"/>
<path d="M6203 3283 c86 -2 228 -2 315 0 86 1 15 3 -158 3 -173 0 -244 -2
-157 -3z"/>
<path d="M6783 3283 c43 -2 110 -2 150 0 40 1 5 3 -78 3 -82 0 -115 -2 -72 -3z"/>
<path d="M7028 3283 c6 -2 18 -2 25 0 6 3 1 5 -13 5 -14 0 -19 -2 -12 -5z"/>
<path d="M7078 3283 c6 -2 18 -2 25 0 6 3 1 5 -13 5 -14 0 -19 -2 -12 -5z"/>
<path d="M7148 3283 c12 -2 32 -2 45 0 12 2 2 4 -23 4 -25 0 -35 -2 -22 -4z"/>
<path d="M7318 3283 c45 -2 119 -2 165 0 45 1 8 3 -83 3 -91 0 -128 -2 -82 -3z"/>
</g>
</svg>
