<?xml version="1.0" standalone="no"?>
<!DOCTYPE svg PUBLIC "-//W3C//DTD SVG 20010904//EN"
 "http://www.w3.org/TR/2001/REC-SVG-20010904/DTD/svg10.dtd">
<svg version="1.0" xmlns="http://www.w3.org/2000/svg"
 width="200.000000pt" height="200.000000pt" viewBox="0 0 200.000000 200.000000"
 preserveAspectRatio="xMidYMid meet">

<g transform="translate(0.000000,200.000000) scale(0.100000,-0.100000)"
fill="none" stroke="none">
<path fill="currentColor" d="M930 1460 c-136 -7 -191 -12 -327 -35 -26 -5 -33 -11 -33 -28 -1 -12
-12 -35 -26 -52 l-25 -30 -20 28 c-11 15 -30 27 -42 27 -12 0 -31 -12 -43 -27
l-22 -28 -22 28 c-27 34 -62 35 -80 2 -16 -30 -19 -30 -74 -4 -25 12 -59 19
-78 17 -28 -2 -33 -7 -33 -28 0 -24 3 -25 60 -27 33 -1 72 -5 87 -8 22 -6 32
-2 53 21 l26 28 25 -27 c31 -34 47 -34 72 -2 11 14 24 25 30 25 5 0 17 -11 26
-25 19 -29 42 -32 68 -8 17 15 18 14 18 -18 0 -21 -9 -45 -25 -64 l-25 -30
-21 28 c-26 34 -52 35 -77 2 -11 -14 -23 -25 -27 -25 -4 0 -16 11 -27 25 -11
14 -28 25 -38 25 -11 0 -27 -11 -36 -25 -20 -30 -23 -30 -78 -4 -25 12 -59 19
-78 17 -28 -2 -33 -7 -33 -28 0 -22 5 -25 38 -28 21 -2 45 2 52 8 10 8 21 7
44 -4 35 -19 54 -13 76 21 l17 25 28 -31 c16 -17 33 -31 39 -31 5 0 21 14 35
31 l26 31 30 -32 c29 -31 31 -32 54 -16 25 16 25 15 28 -22 l3 -37 130 -24
c72 -13 136 -25 143 -27 7 -2 12 -21 12 -47 0 -28 6 -49 15 -57 20 -16 237
-31 281 -18 17 4 69 33 114 63 82 55 158 85 212 85 28 0 29 -1 21 -37 -10 -46
-10 -188 0 -224 4 -15 16 -29 27 -32 17 -4 20 -13 20 -60 0 -62 46 -327 60
-341 13 -13 258 15 272 31 15 18 23 568 9 620 -6 21 -33 74 -61 118 -53 85
-59 111 -34 151 20 29 14 87 -12 115 -15 17 -33 19 -159 19 -129 0 -144 -2
-156 -19 -13 -18 -22 -19 -98 -12 -60 6 -88 13 -96 25 -14 18 -60 19 -345 6z
m308 -36 c7 -12 32 -19 93 -25 138 -13 157 -12 164 11 6 19 15 20 131 20 l124
0 11 -27 c8 -21 6 -34 -7 -59 -26 -48 -14 -100 40 -179 54 -79 68 -124 64
-208 l-3 -62 -43 -7 c-24 -4 -51 -16 -60 -27 -22 -24 -97 -35 -113 -15 -7 8
-30 14 -59 14 l-47 0 -7 58 c-4 37 -1 83 9 131 19 91 13 103 -53 95 -77 -9
-144 -31 -196 -64 l-49 -31 -126 24 c-69 14 -165 31 -213 37 -87 12 -88 12
-88 41 0 19 7 32 23 40 34 19 46 40 47 82 0 27 -7 45 -25 62 -13 14 -29 25
-35 25 -5 0 -10 14 -10 30 0 28 2 30 43 31 35 1 147 7 344 17 21 1 35 -4 41
-14z m-458 -38 c0 -16 -7 -27 -20 -31 -27 -9 -60 -53 -60 -81 0 -37 21 -73 52
-86 21 -10 28 -20 28 -40 0 -17 -5 -26 -12 -23 -7 2 -48 11 -90 20 l-78 16 0
114 0 113 68 9 c109 16 112 16 112 -11z m-607 -53 c-7 -2 -21 -2 -30 0 -10 3
-4 5 12 5 17 0 24 -2 18 -5z m663 -38 c15 -23 15 -27 0 -50 -18 -27 -63 -34
-84 -13 -15 15 -15 61 0 76 21 21 66 14 84 -13z m-663 -82 c-7 -2 -21 -2 -30
0 -10 3 -4 5 12 5 17 0 24 -2 18 -5z m763 -153 c9 0 14 -11 14 -35 0 -36 -10
-42 -44 -29 -10 4 -16 18 -16 41 0 28 3 34 16 29 9 -3 22 -6 30 -6z m204 -34
l55 -13 -35 -15 c-25 -11 -57 -14 -107 -10 l-73 4 0 30 0 30 53 -6 c28 -4 77
-13 107 -20z m714 -258 c6 -71 5 -77 -14 -83 -15 -5 -28 2 -49 24 -42 45 -92
43 -137 -4 -35 -38 -64 -46 -64 -17 0 9 -3 41 -6 70 -6 48 -5 52 13 52 11 0
25 -6 32 -13 17 -21 130 -5 150 21 12 15 53 32 67 27 1 0 4 -35 8 -77z m-88
-93 c15 -23 15 -27 0 -50 -11 -17 -26 -25 -44 -25 -35 0 -52 16 -52 50 0 34
17 50 52 50 18 0 33 -8 44 -25z m85 -106 c-1 -44 -5 -87 -7 -94 -6 -14 -34
-20 -145 -31 l-67 -6 -16 88 c-9 49 -16 95 -16 102 0 20 28 14 35 -8 10 -30
54 -60 90 -60 37 0 85 39 85 69 0 17 27 33 39 24 2 -1 3 -39 2 -84z"/>
<path fill="currentColor" d="M1614 1393 c-6 -5 -25 -36 -42 -70 -27 -52 -29 -63 -17 -73 20 -16
27 -12 74 45 29 34 41 58 39 75 -3 26 -32 38 -54 23z m27 -41 c-5 -10 -17 -24
-25 -31 -14 -12 -14 -10 -5 18 6 17 17 31 25 31 11 0 12 -5 5 -18z"/>
<path fill="currentColor" d="M1247 1345 c-21 -20 -24 -144 -5 -163 8 -8 47 -12 109 -12 90 0 99 2
113 22 9 12 16 42 16 66 0 55 -33 92 -82 92 -18 0 -56 3 -84 6 -40 5 -54 3
-67 -11z m107 -31 c10 -4 16 -18 16 -39 0 -56 -8 -65 -56 -65 l-44 0 0 55 0
55 34 0 c19 0 41 -3 50 -6z m81 -55 c0 -35 -4 -44 -19 -47 -14 -3 -17 0 -12
13 3 9 6 32 6 52 0 23 4 33 13 31 7 -3 12 -22 12 -49z"/>
</g>
</svg>
