<?xml version="1.0" standalone="no"?>
<!DOCTYPE svg PUBLIC "-//W3C//DTD SVG 20010904//EN"
 "http://www.w3.org/TR/2001/REC-SVG-20010904/DTD/svg10.dtd">
<svg version="1.0" xmlns="http://www.w3.org/2000/svg"
 width="1024.000000pt" height="1024.000000pt" viewBox="0 0 1024.000000 1024.000000"
 preserveAspectRatio="xMidYMid meet">

<g transform="translate(0.000000,1024.000000) scale(0.100000,-0.100000)"
fill="currentColor" stroke="none">
<path d="M7756 8815 c-12 -12 -16 -36 -16 -91 l0 -74 75 0 c41 0 75 -4 75 -9
0 -6 -166 -10 -407 -10 -225 0 -757 -4 -1183 -7 -716 -6 -777 -8 -805 -24 -19
-11 -62 -20 -115 -24 -131 -10 -1332 -46 -1342 -40 -4 3 -8 14 -8 25 0 11 -5
29 -10 40 -11 19 -36 19 -1326 19 -1146 0 -1319 -2 -1351 -15 -42 -18 -268
-22 -258 -5 3 6 44 10 90 10 l85 0 -5 28 c-2 15 -7 53 -10 85 l-7 58 -51 -6
c-29 -3 -119 -10 -201 -15 -181 -12 -201 -21 -227 -98 l-18 -52 42 -1 c23 0
51 -4 62 -9 13 -6 -13 -9 -77 -9 l-97 -1 -24 -32 c-14 -18 -37 -56 -51 -85
l-26 -52 0 -299 c0 -270 2 -301 19 -334 16 -32 18 -66 20 -305 3 -304 11 -398
44 -462 44 -89 24 -86 483 -89 l404 -3 0 -61 c0 -51 4 -67 27 -97 42 -56 52
-60 136 -61 90 0 109 7 127 50 11 27 16 30 60 30 43 0 49 -3 71 -37 l24 -38
123 -3 122 -3 21 36 c20 33 24 35 72 35 47 0 54 -3 80 -35 l28 -36 117 3 117
3 20 32 c18 29 25 32 70 33 48 0 52 -2 69 -35 11 -20 29 -37 40 -40 12 -2 145
-6 296 -8 259 -3 278 -4 335 -26 135 -53 241 -157 280 -276 10 -33 26 -69 35
-79 11 -14 12 -20 3 -23 -16 -6 -17 -39 -3 -48 8 -5 8 -11 0 -20 -8 -9 -7 -17
4 -28 11 -10 12 -17 4 -25 -8 -8 -8 -15 1 -25 6 -8 9 -22 5 -30 -3 -9 -2 -22
2 -29 5 -7 7 -23 5 -35 -1 -13 1 -23 6 -23 4 0 8 -23 7 -50 0 -28 3 -53 8 -56
5 -3 6 -14 3 -24 -3 -10 -1 -21 5 -25 6 -4 8 -16 5 -27 -4 -11 -1 -27 8 -36
22 -26 6 -182 -27 -256 -14 -32 -26 -70 -26 -83 0 -33 51 -83 87 -84 15 0 89
-6 163 -13 74 -7 140 -9 146 -4 7 5 17 2 24 -7 9 -11 17 -12 30 -5 13 7 21 7
25 -1 4 -6 14 -8 22 -5 8 3 23 1 33 -4 13 -7 21 -7 25 0 5 8 11 7 21 -1 7 -6
21 -8 30 -5 9 4 23 1 30 -5 11 -9 18 -9 28 0 11 9 16 9 21 1 4 -7 16 -10 26
-7 10 3 21 2 24 -2 2 -5 26 -7 52 -6 26 1 54 -2 61 -8 8 -6 17 -5 29 4 13 11
17 11 20 2 6 -16 40 -17 45 -2 3 9 9 9 23 1 20 -11 184 -27 395 -38 114 -6
289 6 380 28 25 5 93 25 152 44 137 43 221 51 312 30 100 -24 181 -70 262
-151 103 -102 144 -204 144 -357 0 -72 25 -200 49 -249 12 -27 14 -40 6 -53
-7 -13 -6 -19 6 -26 11 -6 15 -18 11 -35 -3 -16 0 -25 8 -25 8 0 10 -9 6 -25
-4 -17 -2 -27 7 -31 9 -3 12 -14 9 -30 -2 -14 0 -24 7 -24 7 0 9 -9 5 -24 -3
-15 -1 -25 9 -29 10 -3 13 -14 10 -31 -3 -16 -1 -26 6 -26 7 0 9 -9 5 -25 -4
-17 -2 -27 8 -30 10 -4 13 -15 10 -31 -2 -14 0 -24 7 -24 7 0 9 -9 5 -25 -4
-17 -1 -27 9 -31 9 -3 13 -13 10 -25 -3 -10 0 -26 7 -34 6 -8 9 -19 5 -25 -4
-6 -1 -17 5 -25 6 -8 9 -18 6 -24 -4 -5 1 -16 9 -24 8 -9 12 -22 9 -30 -3 -8
-1 -18 5 -22 6 -3 11 -17 11 -30 0 -13 5 -27 10 -30 6 -4 8 -15 5 -25 -3 -10
-1 -21 5 -25 5 -3 10 -17 10 -30 0 -13 5 -27 10 -30 6 -4 8 -15 5 -26 -4 -12
-1 -21 9 -25 11 -4 14 -14 10 -29 -3 -13 -1 -26 5 -29 5 -4 8 -13 4 -21 -3 -9
0 -22 7 -30 6 -8 9 -18 6 -23 -3 -5 1 -17 8 -28 8 -10 12 -24 9 -31 -3 -7 0
-20 7 -28 6 -8 9 -19 6 -24 -4 -6 -2 -19 4 -31 5 -11 15 -29 20 -40 6 -11 10
-30 10 -44 0 -13 7 -43 16 -67 10 -26 17 -78 18 -129 1 -71 -3 -93 -23 -135
-13 -27 -26 -65 -30 -84 -6 -31 -12 -37 -65 -58 -75 -29 -93 -46 -101 -93 -10
-59 0 -75 63 -103 93 -41 129 -48 292 -57 85 -5 180 -13 210 -18 30 -6 362
-13 737 -17 l681 -6 16 22 c11 16 14 35 10 59 l-6 37 148 12 c182 16 291 34
332 55 44 23 58 77 41 164 -8 44 -10 111 -6 202 4 75 2 226 -4 336 -25 504
-71 694 -304 1264 -53 129 -130 316 -170 415 -40 99 -124 299 -185 445 -62
146 -114 281 -115 300 -2 19 -9 49 -16 65 -6 17 -14 89 -17 161 l-4 130 29 35
c16 19 43 54 60 79 127 187 225 242 624 345 334 87 439 134 548 249 49 52 51
57 51 110 0 44 -4 57 -19 66 -11 5 -75 10 -143 10 -228 0 -358 48 -488 178
-42 42 -94 103 -115 136 -45 71 -154 306 -149 321 8 21 131 95 209 125 91 36
121 60 130 102 4 16 13 41 20 55 10 18 11 33 4 52 -17 47 -32 71 -45 71 -7 0
-14 5 -16 10 -9 27 -113 17 -175 -18 -41 -23 -93 -14 -191 34 -64 31 -102 44
-117 40 -22 -6 -26 1 -54 87 -17 50 -31 107 -31 125 0 18 -11 60 -25 94 -14
34 -25 67 -25 73 0 7 -9 20 -19 29 -16 15 -37 17 -138 15 l-118 -3 -5 95 -5
94 -187 3 c-159 2 -188 0 -202 -13z m69 -40 c37 -22 50 -24 168 -25 78 0 127
-4 127 -10 0 -6 -43 -10 -109 -10 -123 0 -141 -4 -141 -31 0 -29 -17 -23 -24
9 -4 15 -24 41 -44 59 -44 38 -33 43 23 8z m49 -224 c-5 -28 -2 -39 8 -44 8
-3 79 -3 156 0 l142 6 -6 38 -7 39 88 0 88 0 -85 -88 c-46 -48 -92 -101 -102
-118 -18 -30 -20 -30 -100 -32 -44 -1 -111 4 -148 10 -52 9 -78 8 -109 -1 -33
-10 -55 -10 -105 0 -51 10 -74 10 -113 0 -38 -9 -62 -10 -114 0 -53 10 -75 10
-108 0 -33 -10 -55 -10 -110 0 -56 10 -77 10 -108 -1 -32 -10 -52 -10 -105 0
-51 9 -76 10 -115 0 -39 -9 -62 -9 -106 1 -45 10 -66 10 -106 0 -40 -11 -62
-11 -114 0 -49 10 -73 10 -102 1 -27 -8 -56 -8 -111 0 -58 8 -83 8 -110 -2
-27 -10 -50 -10 -112 0 -61 9 -86 9 -114 0 -29 -9 -52 -9 -105 1 -44 7 -79 9
-97 3 -16 -5 -136 -8 -266 -6 l-237 3 4 27 c2 15 7 48 10 74 8 62 25 78 83 78
29 0 57 7 72 17 23 16 99 18 985 23 528 4 1056 7 1173 8 l212 2 -6 -39z
m-3954 19 l25 0 -7 -92 c-3 -51 -7 -99 -7 -107 -1 -11 -265 -12 -1618 -9
-1505 3 -1620 5 -1650 21 -45 24 -47 31 -22 79 35 71 56 88 108 88 55 0 74
-10 61 -30 -6 -8 -10 -18 -10 -22 0 -5 49 -8 109 -8 108 0 109 0 115 25 l6 25
135 0 c83 0 144 5 162 12 47 21 222 23 1418 20 633 -1 1161 -2 1175 -2z m4489
-65 c12 -31 21 -68 21 -83 0 -16 16 -75 35 -133 43 -125 97 -315 120 -423 19
-88 16 -95 -40 -96 -41 -1 -105 -16 -117 -28 -14 -14 8 -105 34 -137 16 -21
28 -25 74 -25 55 0 55 0 74 -42 23 -53 13 -62 -56 -51 -71 12 -91 49 -196 349
-49 143 -108 312 -130 376 -26 75 -38 125 -34 141 6 24 170 207 186 207 5 0
18 -25 29 -55z m-3089 37 c0 -4 -251 -16 -557 -25 -307 -10 -607 -20 -668 -24
-78 -4 -107 -2 -100 5 6 7 222 18 610 30 760 24 715 23 715 14z m-20 -164 c0
-17 -7 -40 -17 -50 -15 -17 -48 -18 -641 -18 -690 0 -662 -3 -662 61 l0 29
213 3 c116 1 413 3 660 5 l447 2 0 -32z m-2980 -63 l1625 -7 23 -22 c24 -21
26 -21 661 -24 l637 -3 38 26 37 25 238 0 239 0 35 -97 c50 -137 243 -662 256
-695 l11 -28 -361 0 c-334 0 -360 1 -365 18 -15 48 -11 47 -213 50 l-192 2
-33 -35 -33 -35 -824 0 -825 0 -67 193 c-37 105 -67 195 -67 198 0 3 289 9
643 12 776 8 1121 23 1392 60 108 14 -614 21 -2949 25 -802 1 -1462 5 -1467 8
-5 3 -9 1 -9 -4 0 -22 215 -58 455 -77 150 -11 145 -9 145 -63 l0 -47 -357 3
c-263 2 -360 6 -365 15 -4 7 -8 130 -8 273 l0 262 38 -13 c29 -10 376 -15
1662 -20z m3613 -65 c17 -47 83 -233 149 -413 65 -180 118 -332 118 -338 0 -6
-12 -9 -27 -7 -24 3 -30 13 -64 108 -20 58 -89 245 -152 417 -63 172 -112 315
-109 318 4 3 17 5 31 3 20 -3 28 -16 54 -88z m197 53 c7 -21 43 -121 80 -223
113 -304 210 -575 210 -584 0 -4 -12 -6 -27 -4 -27 3 -33 17 -180 418 -83 228
-152 418 -152 423 -1 4 12 7 28 7 25 0 31 -5 41 -37z m272 -145 c117 -321 238
-657 238 -663 0 -11 -48 -5 -58 8 -5 6 -14 28 -20 47 -8 29 -237 656 -271 743
-16 41 -14 47 17 47 27 0 30 -6 94 -182z m158 172 c0 -6 27 -86 61 -178 176
-483 236 -652 231 -657 -3 -3 -15 -5 -27 -5 -19 0 -31 26 -100 213 -120 325
-225 620 -225 629 0 4 14 8 30 8 17 0 30 -5 30 -10z m215 -7 c21 -53 295 -808
295 -814 0 -13 -39 -17 -49 -5 -10 12 -284 760 -296 809 -6 24 -4 27 18 27 14
0 28 -7 32 -17z m247 -68 c73 -201 268 -747 268 -752 0 -2 -13 -3 -28 -3 -25
0 -30 6 -49 63 -19 55 -169 465 -251 683 -17 45 -28 85 -24 88 3 4 17 6 30 4
20 -3 29 -16 54 -83z m226 -27 c61 -171 147 -407 208 -569 30 -81 54 -152 54
-159 0 -6 -11 -10 -27 -8 -27 3 -33 16 -175 408 -81 223 -150 413 -154 423 -4
14 1 17 24 17 29 0 31 -4 70 -112z m330 -305 c84 -230 152 -421 152 -425 0 -5
-13 -8 -28 -8 -23 0 -31 6 -39 33 -10 29 -70 196 -232 640 -33 93 -61 170 -61
173 0 2 13 4 28 4 28 0 29 -4 180 -417z m151 184 c46 -127 113 -311 147 -407
35 -96 64 -183 64 -192 0 -12 -8 -18 -23 -18 -22 0 -35 31 -175 418 -84 229
-152 420 -152 425 0 4 12 7 28 7 26 0 29 -7 111 -233z m141 222 c0 -7 254
-713 295 -821 6 -15 2 -18 -23 -18 -23 0 -32 6 -40 28 -36 89 -292 803 -292
811 0 6 14 11 30 11 17 0 30 -5 30 -11z m-1687 -421 c81 -222 147 -407 147
-411 0 -5 -12 -7 -26 -5 -23 3 -29 15 -69 128 -46 131 -228 642 -240 673 -6
13 -2 17 17 17 23 0 33 -23 171 -402z m217 5 c80 -218 147 -403 148 -411 3 -9
-4 -13 -24 -10 -24 3 -30 12 -55 83 -16 44 -80 225 -144 402 -63 178 -115 325
-115 328 0 3 10 5 23 5 20 0 35 -34 167 -397z m147 192 c58 -160 130 -357 221
-603 3 -10 -3 -13 -23 -10 -26 3 -31 14 -112 238 -47 129 -112 308 -144 398
-32 90 -59 168 -59 173 0 6 10 9 22 7 19 -3 32 -32 95 -203z m159 165 c34 -94
216 -597 248 -682 l36 -98 -28 0 c-26 0 -29 6 -73 133 -26 72 -90 253 -143
401 -53 149 -96 274 -96 279 0 4 10 7 22 5 14 -2 25 -15 34 -38z m263 -125
c62 -170 212 -582 230 -627 10 -26 9 -28 -17 -28 -27 0 -30 5 -94 188 -37 103
-101 281 -143 397 -41 115 -75 215 -75 223 0 8 8 12 21 10 17 -2 31 -31 78
-163z m301 -227 c78 -216 145 -399 148 -406 3 -10 -3 -13 -23 -10 -26 3 -31
13 -116 253 -82 229 -177 495 -194 538 -6 13 -2 17 17 17 24 0 33 -21 168
-392z m174 119 c55 -149 121 -330 148 -402 26 -71 48 -133 48 -137 0 -16 -48
-7 -55 10 -4 9 -33 91 -65 182 -32 91 -95 266 -139 389 -45 123 -81 226 -81
227 0 2 10 4 23 4 20 0 32 -27 121 -273z m188 82 c167 -456 221 -605 226 -617
3 -10 -3 -13 -23 -10 -30 3 -27 -5 -265 670 -46 131 -48 152 -15 144 5 -1 40
-85 77 -187z m219 1 c72 -201 213 -584 224 -613 7 -16 3 -18 -21 -15 -28 3
-31 9 -91 178 -33 96 -98 276 -142 400 -45 123 -81 228 -81 233 0 5 10 7 22 5
18 -3 32 -31 89 -188z m286 182 c11 -7 63 -150 224 -611 22 -63 49 -131 60
-152 10 -21 19 -41 19 -44 0 -3 -44 -5 -98 -5 l-98 0 -66 188 c-36 103 -100
283 -142 400 -42 117 -76 217 -76 222 0 12 159 13 177 2z m520 -193 c49 -22
109 -43 135 -46 41 -5 55 -1 112 31 69 39 92 40 129 8 11 -10 17 -29 16 -56
-2 -82 -6 -87 -123 -138 -59 -26 -132 -65 -162 -88 -39 -29 -63 -40 -82 -38
-24 3 -29 10 -40 58 -15 59 -69 263 -78 293 -3 9 -3 17 0 17 3 0 45 -18 93
-41z m-6755 -296 c15 -43 45 -130 67 -193 35 -97 38 -116 26 -123 -9 -4 -101
-7 -205 -5 -220 3 -216 2 -230 97 -15 107 -59 160 -162 194 -14 5 -18 18 -18
57 l0 50 248 0 248 0 26 -77z m75 37 c7 -19 34 -95 61 -168 49 -132 49 -133
29 -147 -12 -8 -24 -11 -29 -7 -7 7 -128 344 -128 357 0 3 12 5 27 3 21 -2 30
-11 40 -38z m169 -115 c29 -82 52 -150 51 -151 -1 -1 -11 -4 -22 -8 -18 -5
-24 2 -42 56 -11 35 -37 107 -56 161 l-36 98 26 -3 c24 -3 30 -16 79 -153z
m86 15 c68 -185 65 -170 31 -170 -29 0 -31 3 -81 143 -29 78 -52 148 -52 155
0 8 10 12 26 10 24 -3 31 -15 76 -138z m133 -20 c32 -88 56 -162 54 -165 -3
-2 -15 1 -28 8 -19 9 -35 45 -77 165 -53 151 -53 152 -30 152 21 0 29 -15 81
-160z m101 -24 c35 -99 64 -183 64 -187 0 -5 -15 1 -34 12 -30 18 -39 35 -93
184 -33 91 -57 167 -54 170 3 3 16 5 29 3 22 -3 31 -22 88 -182z m87 112 c14
-40 46 -130 71 -200 l46 -128 -24 0 c-19 0 -28 9 -40 43 -39 106 -126 350
-126 353 0 2 11 4 24 4 21 0 27 -9 49 -72z m64 60 c5 -7 37 -89 70 -183 34
-93 65 -178 68 -187 6 -15 2 -18 -23 -18 -29 0 -30 1 -99 193 -39 105 -68 195
-66 200 7 11 40 8 50 -5z m160 -75 c17 -49 49 -139 72 -201 l40 -113 -26 3
c-24 3 -31 16 -94 193 -38 105 -69 193 -69 198 0 4 10 7 23 7 19 0 27 -12 54
-87z m130 -110 l71 -198 -25 -3 c-14 -2 -27 -1 -30 1 -5 6 -143 379 -143 390
0 4 13 7 28 7 27 0 30 -5 99 -197z m63 175 c5 -13 38 -103 73 -201 l64 -178
-25 3 c-23 3 -31 19 -94 192 -37 104 -68 193 -68 197 0 19 41 8 50 -13z m153
-171 c37 -105 67 -196 67 -200 0 -5 -12 -7 -26 -5 -25 3 -31 15 -90 178 -35
96 -66 183 -69 192 -5 15 7 23 40 27 6 0 40 -86 78 -192z m5563 35 c6 -4 26
-41 43 -82 46 -109 137 -277 183 -339 59 -79 157 -175 203 -199 51 -27 25 -28
-50 -2 -73 25 -123 54 -203 119 -35 28 -73 53 -85 56 -12 2 -104 6 -204 7
-160 3 -185 5 -200 21 -17 17 -16 20 39 72 l56 55 106 0 c132 0 135 4 80 109
l-39 76 -60 5 c-51 4 -61 9 -72 30 -24 46 -14 54 77 66 112 15 113 15 126 6z
m-7242 -22 c36 -13 63 -62 71 -128 4 -32 13 -72 21 -91 16 -39 20 -286 5 -296
-5 -3 -194 -2 -419 1 l-409 7 -7 151 c-6 116 -11 159 -25 186 -25 49 -33 92
-26 134 6 28 12 36 34 39 58 9 731 7 755 -3z m947 -190 c35 -11 69 -23 76 -27
6 -5 -80 -10 -190 -11 -217 -4 -235 2 -121 38 77 25 157 25 235 0z m2949 -25
c0 -6 -52 -11 -132 -12 -148 -3 -221 3 -212 18 8 13 344 7 344 -6z m2088 -42
c-4 -22 -22 -20 -26 1 -2 10 3 16 13 16 10 0 15 -7 13 -17z m-3828 -11 c569
-4 987 -8 929 -10 -58 -1 -198 -7 -310 -12 -169 -9 -206 -13 -216 -27 -30 -39
28 -303 80 -370 41 -52 55 -53 424 -42 464 13 562 21 580 44 21 30 15 93 -22
229 -36 133 -63 186 -95 186 -10 0 -22 5 -25 10 -4 6 16 10 54 10 33 0 62 -4
65 -9 7 -11 146 -489 146 -502 0 -5 -11 -9 -25 -9 -87 0 -134 -94 -80 -158 32
-39 72 -48 120 -28 21 9 39 16 40 16 6 0 25 -63 25 -81 0 -18 -28 -19 -778
-19 l-778 0 -51 38 c-28 22 -83 54 -122 72 l-71 34 47 25 c42 23 48 30 51 63
4 42 7 41 -169 78 -89 19 -137 20 -956 20 l-863 0 0 74 c0 40 -3 141 -7 223
l-6 151 189 -5 c118 -3 202 -1 224 5 22 7 132 9 300 6 146 -2 731 -8 1300 -12z
m1649 -14 c6 -18 42 -148 80 -288 38 -140 82 -299 97 -353 15 -54 24 -100 21
-103 -2 -3 -30 -8 -60 -11 l-55 -6 -21 70 c-12 39 -21 83 -21 98 0 15 -9 44
-20 64 -22 39 -170 541 -163 554 2 4 33 7 68 7 63 0 64 0 74 -32z m278 16
l142 -6 12 -56 c17 -84 48 -161 69 -172 10 -6 77 -10 147 -10 l129 0 35 36
c40 42 79 64 113 64 l24 0 -14 -52 c-28 -105 -13 -194 39 -234 23 -18 24 -24
17 -70 -34 -214 -13 -443 54 -599 17 -39 20 -56 12 -77 -14 -40 8 -83 63 -115
l46 -28 -86 -6 c-123 -8 -173 -40 -210 -131 l-16 -40 -52 189 c-67 238 -95
299 -180 384 -81 80 -166 125 -284 147 l-84 16 -28 95 c-37 134 -185 674 -185
679 0 2 21 1 48 -2 26 -4 111 -9 189 -12z m1833 6 c0 -5 -4 -10 -9 -10 -6 0
-13 5 -16 10 -3 6 1 10 9 10 9 0 16 -4 16 -10z m-440 -19 c0 -6 -4 -12 -9 -16
-5 -3 -249 -5 -542 -5 -463 0 -535 2 -548 15 -14 13 44 15 542 15 341 0 557
-4 557 -9z m137 -17 c-9 -9 -28 6 -21 18 4 6 10 6 17 -1 6 -6 8 -13 4 -17z
m143 22 c0 -15 -14 -35 -21 -30 -15 9 -10 34 6 34 8 0 15 -2 15 -4z m1190 -5
c0 -5 -12 -18 -27 -29 -23 -15 -35 -17 -68 -10 -22 5 -208 8 -414 6 l-374 -3
-41 -46 c-22 -26 -55 -54 -73 -63 -36 -18 -133 -32 -273 -40 l-95 -5 85 14
c47 8 123 19 169 25 121 16 164 44 191 126 l12 34 454 0 c274 0 454 -4 454 -9z
m-1400 -5 c0 -3 -4 -8 -10 -11 -5 -3 -10 -1 -10 4 0 6 5 11 10 11 6 0 10 -2
10 -4z m138 -7 c-2 -6 -8 -10 -13 -10 -5 0 -11 4 -13 10 -2 6 4 11 13 11 9 0
15 -5 13 -11z m132 -5 c0 -17 -22 -14 -28 4 -2 7 3 12 12 12 9 0 16 -7 16 -16z
m62 1 c0 -5 -5 -11 -11 -13 -6 -2 -11 4 -11 13 0 9 5 15 11 13 6 -2 11 -8 11
-13z m72 6 c3 -5 -1 -14 -8 -20 -16 -13 -32 2 -21 19 8 12 22 13 29 1z m56 5
c0 -3 -4 -8 -10 -11 -5 -3 -10 -1 -10 4 0 6 5 11 10 11 6 0 10 -2 10 -4z
m-1683 -28 c19 -22 49 -126 39 -136 -15 -14 -36 14 -51 65 -9 32 -18 66 -21
76 -7 24 9 21 33 -5z m-777 -12 c0 -17 -89 -24 -329 -28 -114 -2 -165 0 -168
8 -3 8 60 14 209 21 117 5 230 10 251 11 26 1 37 -2 37 -12z m1970 5 c0 -12
-20 -25 -27 -18 -7 7 6 27 18 27 5 0 9 -4 9 -9z m62 -6 c0 -5 -5 -11 -11 -13
-6 -2 -11 4 -11 13 0 9 5 15 11 13 6 -2 11 -8 11 -13z m74 4 c10 -17 -13 -36
-27 -22 -12 12 -4 33 11 33 5 0 12 -5 16 -11z m64 -3 c0 -8 -4 -17 -9 -21 -12
-7 -24 12 -16 25 9 15 25 12 25 -4z m-2719 -15 c-14 -25 11 -122 61 -236 52
-118 54 -127 34 -119 -19 7 -53 78 -95 197 -39 112 -41 177 -5 177 11 0 12 -4
5 -19z m2781 4 c0 -5 -5 -11 -11 -13 -6 -2 -11 4 -11 13 0 9 5 15 11 13 6 -2
11 -8 11 -13z m68 1 c0 -8 -4 -17 -9 -21 -12 -7 -24 12 -16 25 9 15 25 12 25
-4z m68 -3 c-4 -22 -22 -20 -26 1 -2 10 3 16 13 16 10 0 15 -7 13 -17z m62 8
c0 -12 -20 -25 -27 -18 -7 7 6 27 18 27 5 0 9 -4 9 -9z m-430 -35 c0 -8 -4
-17 -9 -20 -10 -7 -23 19 -14 28 11 11 23 6 23 -8z m65 -16 c-5 -8 -11 -8 -17
-2 -6 6 -7 16 -3 22 5 8 11 8 17 2 6 -6 7 -16 3 -22z m71 19 c8 -14 -11 -33
-25 -25 -11 7 -4 36 9 36 5 0 12 -5 16 -11z m64 -9 c0 -11 -7 -20 -15 -20 -15
0 -21 21 -8 33 12 13 23 7 23 -13z m-2180 -4 c0 -15 -37 -18 -362 -31 -120 -5
-138 -3 -138 10 0 12 13 15 58 16 84 2 415 15 430 17 6 1 12 -4 12 -12z m1075
-5 c-16 -10 -43 -33 -59 -50 -31 -32 -59 -38 -124 -25 -24 5 -34 14 -42 40 -6
18 -9 38 -5 44 4 6 58 10 133 10 l127 0 -30 -19z m563 -16 c-38 -58 -68 -58
-68 1 0 34 0 34 45 34 l45 0 -22 -35z m245 28 c3 -5 8 -24 12 -43 7 -32 6 -33
-9 -21 -10 8 -24 27 -32 43 -14 26 -13 28 5 28 11 0 22 -3 24 -7z m367 -8 c0
-8 -7 -15 -15 -15 -8 0 -15 7 -15 15 0 8 7 15 15 15 8 0 15 -7 15 -15z m60 0
c0 -8 -7 -15 -15 -15 -16 0 -20 12 -8 23 11 12 23 8 23 -8z m65 5 c-3 -5 -11
-10 -16 -10 -6 0 -7 5 -4 10 3 6 11 10 16 10 6 0 7 -4 4 -10z m-1065 -4 c0 -3
-4 -8 -10 -11 -5 -3 -10 -1 -10 4 0 6 5 11 10 11 6 0 10 -2 10 -4z m68 -8 c-6
-18 -28 -21 -28 -4 0 9 7 16 16 16 9 0 14 -5 12 -12z m58 -26 c-4 -3 -12 0
-19 7 -9 9 -9 14 3 21 11 7 16 5 18 -6 2 -9 1 -18 -2 -22z m104 34 c0 -3 -4
-8 -10 -11 -5 -3 -10 -1 -10 4 0 6 5 11 10 11 6 0 10 -2 10 -4z m1520 -20
c-30 -12 -78 -34 -105 -49 -28 -14 -77 -33 -108 -42 l-57 -16 51 -100 c43 -83
58 -103 93 -124 69 -40 187 -66 311 -68 108 -2 112 -1 191 36 79 36 85 37 192
37 114 0 142 -9 142 -47 0 -11 -7 -13 -32 -8 -17 4 -70 8 -117 8 -80 1 -92 -2
-171 -39 -83 -38 -87 -39 -195 -38 -165 1 -343 51 -398 111 -10 11 -41 67 -70
124 l-53 104 -55 -3 c-50 -3 -57 -7 -100 -52 -55 -60 -137 -100 -219 -107 -82
-8 -126 3 -169 42 -50 45 -78 55 -164 55 -41 1 -94 8 -122 18 -46 16 -50 20
-56 54 l-6 37 26 -18 c44 -32 103 -41 252 -41 174 -1 280 21 343 72 l38 31 69
-23 c64 -21 75 -21 164 -11 90 11 169 34 225 66 15 8 52 14 90 14 l65 0 -55
-23z m-1790 -2 c0 -17 -22 -14 -28 4 -2 7 3 12 12 12 9 0 16 -7 16 -16z m66
-5 c10 -17 -13 -36 -27 -22 -12 12 -4 33 11 33 5 0 12 -5 16 -11z m167 5 c3
-3 3 -12 0 -20 -4 -11 -9 -12 -19 -3 -8 6 -11 15 -8 20 6 10 18 12 27 3z m447
-15 c0 -5 -4 -9 -10 -9 -5 0 -10 7 -10 16 0 8 5 12 10 9 6 -3 10 -10 10 -16z
m60 1 c0 -21 -15 -27 -25 -10 -7 12 2 30 16 30 5 0 9 -9 9 -20z m70 -1 c0 -5
-7 -9 -15 -9 -15 0 -20 12 -9 23 8 8 24 -1 24 -14z m-853 -21 c-3 -7 -5 -2 -5
12 0 14 2 19 5 13 2 -7 2 -19 0 -25z m913 22 c0 -5 -4 -10 -10 -10 -5 0 -10 5
-10 10 0 6 5 10 10 10 6 0 10 -4 10 -10z m-2837 -40 c76 -85 -21 -218 -122
-166 -33 17 -61 62 -61 96 0 12 7 34 15 50 34 66 117 76 168 20z m712 29 c4
-6 5 -12 2 -15 -10 -10 -492 -23 -501 -14 -20 20 -35 18 456 38 20 1 40 -3 43
-9z m1385 -3 c0 -8 -4 -17 -9 -21 -12 -7 -24 12 -16 25 9 15 25 12 25 -4z
m-110 -16 c0 -21 -15 -27 -25 -10 -7 12 2 30 16 30 5 0 9 -9 9 -20z m173 5 c7
-16 -8 -29 -23 -20 -10 6 -2 35 10 35 4 0 10 -7 13 -15z m-111 -37 c-6 -6 -15
-9 -18 -5 -4 3 -4 14 0 23 5 13 9 15 18 6 9 -9 9 -15 0 -24z m176 15 c-4 -22
-22 -20 -26 1 -2 10 3 16 13 16 10 0 15 -7 13 -17z m-1501 -20 c4 -12 -80 -19
-339 -27 -134 -4 -158 -3 -158 9 0 11 15 15 63 16 34 1 134 5 222 9 195 8 207
8 212 -7z m1223 2 c0 -8 -4 -15 -9 -15 -13 0 -22 16 -14 24 11 11 23 6 23 -9z
m170 0 c0 -8 -4 -15 -9 -15 -13 0 -22 16 -14 24 11 11 23 6 23 -9z m2191 5
l155 0 70 -56 c142 -114 303 -166 519 -168 72 -1 159 3 193 7 44 6 62 5 57 -2
-10 -17 -129 -49 -265 -71 -129 -21 -397 -77 -410 -85 -4 -3 -13 16 -19 41
-12 47 -103 231 -141 284 l-21 30 -153 0 c-124 0 -156 3 -172 16 -18 15 -18
15 6 10 14 -3 95 -6 181 -6z m-2298 -15 c8 -18 -11 -31 -25 -17 -11 11 -3 32
12 32 4 0 10 -7 13 -15z m169 -17 c-6 -6 -15 -9 -18 -5 -4 3 -4 14 0 23 5 13
9 15 18 6 9 -9 9 -15 0 -24z m108 23 c0 -17 -18 -21 -24 -6 -3 9 0 15 9 15 8
0 15 -4 15 -9z m-44 -37 c-5 -13 -10 -14 -18 -6 -6 6 -8 18 -4 28 5 13 10 14
18 6 6 -6 8 -18 4 -28z m-166 12 c0 -8 -4 -17 -9 -21 -12 -7 -24 12 -16 25 9
15 25 12 25 -4z m60 -30 c-15 -15 -33 4 -19 20 10 12 14 12 20 2 5 -7 4 -17
-1 -22z m170 0 c-15 -15 -33 4 -19 20 10 12 14 12 20 2 5 -7 4 -17 -1 -22z
m-1572 3 c2 -12 -7 -18 -32 -23 -63 -12 -56 -46 15 -68 36 -10 48 -26 33 -41
-4 -3 -32 6 -63 21 -54 26 -61 27 -193 24 l-137 -4 -20 -34 c-11 -19 -27 -34
-36 -34 -19 0 -19 5 1 35 8 13 14 36 12 52 -2 22 -10 30 -36 38 -69 20 -23 30
189 41 260 13 263 13 267 -7z m1232 7 c0 -8 -4 -17 -9 -20 -10 -7 -23 19 -14
28 11 11 23 6 23 -8z m62 -28 c-6 -6 -15 -9 -18 -5 -4 3 -4 14 0 23 5 13 9 15
18 6 9 -9 9 -15 0 -24z m170 0 c-6 -6 -15 -9 -18 -5 -4 3 -4 14 0 23 5 13 9
15 18 6 9 -9 9 -15 0 -24z m-272 -2 c0 -8 -4 -17 -9 -20 -10 -7 -23 19 -14 28
11 11 23 6 23 -8z m170 0 c0 -8 -4 -17 -9 -21 -12 -7 -24 12 -16 25 9 15 25
12 25 -4z m170 0 c0 -8 -4 -17 -9 -21 -12 -7 -24 12 -16 25 9 15 25 12 25 -4z
m-5042 -11 c8 -3 12 -29 12 -85 l0 -80 -400 0 -401 0 -19 43 c-11 23 -20 61
-20 84 0 36 3 42 23 45 33 4 790 -2 805 -7z m4762 -19 c-15 -15 -33 4 -19 20
10 12 14 12 20 2 5 -7 4 -17 -1 -22z m170 0 c-15 -15 -33 4 -19 20 10 12 14
12 20 2 5 -7 4 -17 -1 -22z m166 -3 c-11 -11 -19 6 -11 24 8 17 8 17 12 0 3
-10 2 -21 -1 -24z m-274 -15 c-6 -6 -15 -9 -18 -5 -4 3 -4 14 0 23 5 13 9 15
18 6 9 -9 9 -15 0 -24z m178 18 c0 -8 -4 -17 -9 -21 -12 -7 -24 12 -16 25 9
15 25 12 25 -4z m226 -10 c4 -16 -8 -51 -41 -115 -59 -119 -72 -173 -84 -366
-14 -215 -33 -279 -100 -339 -12 -11 -21 -26 -21 -34 0 -8 45 -93 101 -189
117 -202 127 -223 113 -254 -11 -24 -22 -6 -194 293 -84 147 -85 157 -20 239
22 27 44 68 50 89 6 21 17 121 25 223 10 129 21 204 35 247 24 71 107 230 121
230 5 0 11 -11 15 -24z m-166 -20 c-15 -15 -33 4 -19 20 10 12 14 12 20 2 5
-7 4 -17 -1 -22z m-340 9 c0 -8 -4 -15 -10 -15 -5 0 -10 7 -10 15 0 8 5 15 10
15 6 0 10 -7 10 -15z m170 0 c0 -8 -7 -15 -15 -15 -16 0 -20 12 -8 23 11 12
23 8 23 -8z m63 -26 c-17 -17 -37 -1 -22 17 8 10 15 12 23 4 7 -7 7 -13 -1
-21z m-165 9 c-6 -18 -28 -21 -28 -4 0 9 7 16 16 16 9 0 14 -5 12 -12z m62
-12 c0 -8 -4 -17 -9 -21 -12 -7 -24 12 -16 25 9 15 25 12 25 -4z m170 -1 c0
-8 -7 -15 -15 -15 -16 0 -20 12 -8 23 11 12 23 8 23 -8z m-279 -18 c-1 -12
-15 -9 -19 4 -3 6 1 10 8 8 6 -3 11 -8 11 -12z m169 -2 c0 -8 -4 -15 -9 -15
-13 0 -22 16 -14 24 11 11 23 6 23 -9z m170 11 c0 -3 -4 -8 -10 -11 -5 -3 -10
-1 -10 4 0 6 5 11 10 11 6 0 10 -2 10 -4z m-279 -29 c-13 -13 -26 -3 -16 12 3
6 11 8 17 5 6 -4 6 -10 -1 -17z m174 13 c3 -5 -1 -10 -10 -10 -9 0 -13 5 -10
10 3 6 8 10 10 10 2 0 7 -4 10 -10z m-40 -145 c-11 -69 -15 -141 -13 -258 l3
-162 -29 -52 c-16 -29 -40 -62 -53 -75 -20 -19 -26 -20 -33 -8 -13 22 -50 164
-62 239 -10 64 -5 280 8 368 l7 42 91 3 c50 2 93 2 94 1 2 -1 -4 -45 -13 -98z
m1180 84 c55 -15 127 -90 144 -151 10 -34 12 -106 9 -265 -3 -194 -6 -223 -24
-263 -40 -87 -90 -105 -259 -95 -199 12 -268 48 -301 161 -23 79 -17 503 8
549 22 41 51 66 90 76 41 10 279 2 333 -12z m-4122 -63 c19 -9 23 -31 7 -41
-16 -10 -1934 -5 -1943 4 -5 5 -6 19 -2 30 l7 22 956 -3 c526 -2 965 -7 975
-12z m5979 -25 c-70 -61 -154 -96 -377 -156 -291 -78 -400 -112 -474 -147 -77
-37 -203 -153 -258 -239 -37 -57 -70 -82 -142 -104 -23 -7 -24 -6 -17 26 19
96 160 267 289 353 209 138 336 178 902 285 55 10 105 19 110 19 6 1 -10 -16
-33 -37z m-4342 0 c0 -5 16 -32 35 -61 38 -57 40 -60 25 -60 -11 0 -90 104
-90 120 0 5 7 10 15 10 8 0 15 -4 15 -9z m-3440 -130 c16 -30 14 -31 -48 -31
-44 0 -63 5 -75 18 -23 26 -13 32 54 32 47 0 60 -4 69 -19z m424 3 c30 -29 18
-35 -70 -32 -77 3 -88 6 -102 26 l-14 22 85 0 c64 0 89 -4 101 -16z m446 2 c0
-2 3 -11 6 -20 5 -14 -6 -16 -85 -16 -80 0 -92 2 -101 20 -10 19 -8 20 85 20
52 0 95 -2 95 -4z m816 -6 c39 -5 97 -21 129 -34 92 -41 180 -114 161 -133 -2
-2 -26 12 -53 33 -26 20 -68 46 -93 57 -95 43 -137 48 -417 54 -220 5 -273 8
-273 19 0 11 44 14 238 14 130 0 269 -5 308 -10z m2199 -142 c135 -29 267
-131 324 -251 16 -34 66 -195 111 -357 101 -362 95 -332 77 -365 l-14 -28 -17
69 c-9 38 -37 139 -60 224 -24 85 -56 200 -70 255 -38 143 -77 218 -155 296
-67 66 -107 90 -196 117 -53 17 -18 16 -1300 23 l-560 2 848 9 c529 5 855 12
865 18 18 10 61 7 147 -12z m-1491 -102 c-28 -19 -69 -55 -92 -81 -94 -106
-116 -215 -88 -432 31 -246 63 -335 148 -422 98 -98 182 -126 453 -151 540
-49 728 -58 880 -39 201 25 385 98 477 190 55 55 97 136 99 189 l1 35 14 -34
c8 -18 35 -104 60 -189 24 -86 47 -158 50 -161 3 -3 4 31 3 75 -1 58 3 89 15
113 20 37 24 37 131 -16 175 -88 308 -218 385 -377 58 -122 78 -202 90 -355 6
-91 19 -155 60 -301 29 -102 65 -232 80 -290 16 -58 65 -238 110 -400 191
-691 207 -768 190 -923 -14 -118 -31 -197 -44 -197 -50 0 -200 67 -265 118
l-24 19 27 66 c32 82 35 189 7 290 -19 70 -8 89 16 26 l13 -34 -6 43 c-7 50 8
56 24 10 l12 -33 -5 31 c-2 17 1 36 8 43 16 16 -1 29 -43 34 l-35 3 33 8 c44
11 42 36 -3 36 -43 0 -46 15 -4 24 38 7 34 30 -7 33 -48 2 -50 4 -17 16 45 16
45 31 1 35 -44 4 -51 19 -11 24 17 2 29 10 31 21 3 15 -2 18 -30 17 -18 -1
-37 -2 -43 -1 -18 2 20 21 43 21 13 0 22 6 22 15 0 11 -11 15 -40 15 -45 0
-55 17 -12 22 16 2 27 9 27 18 0 11 -10 14 -37 12 -48 -4 -50 14 -3 22 50 10
46 34 -7 38 l-43 3 34 11 c53 15 51 34 -4 34 -28 0 -44 4 -40 10 3 6 19 10 34
10 33 0 42 7 34 27 -4 11 -15 13 -44 8 -50 -9 -53 11 -4 21 50 9 46 34 -6 34
-24 0 -38 4 -34 10 3 6 17 10 30 10 24 0 42 16 31 28 -4 3 -24 5 -46 4 -23 -2
-40 2 -40 8 0 5 12 10 28 10 35 0 57 14 47 30 -5 8 -21 10 -46 7 -49 -6 -52 8
-4 17 53 10 45 34 -12 38 -48 4 -44 11 10 23 43 9 27 30 -22 29 -50 -1 -54 13
-6 22 53 10 46 34 -10 34 -25 0 -45 5 -45 10 0 6 9 10 21 10 28 0 61 19 54 31
-4 5 -24 9 -46 9 -24 0 -38 4 -34 10 3 6 17 10 30 10 24 0 42 16 31 27 -3 4
-24 6 -46 5 -50 -2 -52 12 -2 24 48 12 43 29 -8 28 -48 -1 -52 12 -7 24 50 13
42 38 -12 34 -30 -3 -41 0 -37 7 4 6 16 11 26 11 29 0 50 11 50 27 0 10 -10
14 -37 13 -21 -1 -42 -1 -48 -1 -18 2 19 21 42 21 12 0 25 5 29 11 10 17 -16
28 -53 22 -45 -8 -43 13 2 21 22 4 35 13 35 22 0 12 -10 15 -42 12 -50 -3 -55
14 -7 22 36 6 52 30 20 30 -12 0 -27 11 -36 28 l-15 27 6 -27 c6 -25 4 -26
-23 -19 -39 10 -60 78 -78 257 -22 212 -50 281 -162 389 -109 107 -255 169
-393 167 -74 -1 -91 -4 -262 -55 -115 -35 -272 -57 -398 -57 -126 0 -451 29
-466 41 -20 16 -564 62 -590 50 -17 -7 -64 -6 -170 4 -80 8 -150 17 -155 21
-15 9 -10 45 16 111 48 118 49 210 8 503 -20 140 -41 262 -48 270 -6 8 -22 43
-35 77 -12 35 -35 83 -51 108 l-29 45 218 0 217 0 -51 -34z m850 11 c9 -12 27
-72 42 -132 23 -95 26 -125 22 -220 -10 -217 -94 -360 -285 -483 -114 -74
-117 -77 -108 -92 11 -17 209 -7 285 16 98 29 190 84 265 160 84 85 143 185
201 340 24 63 53 128 66 144 12 17 56 53 97 82 42 28 97 71 123 96 l46 45 50
-50 c79 -79 137 -213 177 -411 18 -92 14 -197 -11 -288 -50 -181 -331 -304
-693 -304 -212 0 -834 50 -936 76 -117 29 -205 100 -258 208 -39 79 -69 261
-71 421 -1 114 2 136 21 177 41 90 151 185 253 221 37 13 102 16 372 17 l328
0 14 -23z m276 8 c55 -19 115 -19 174 1 41 14 58 15 123 4 82 -13 133 -28 133
-39 0 -13 -53 -57 -131 -109 -97 -65 -141 -117 -175 -206 -84 -221 -120 -282
-224 -386 -55 -55 -168 -130 -196 -130 -4 0 10 19 33 43 181 187 244 458 168
721 -14 47 -25 93 -25 101 0 20 64 20 120 0z m2145 -374 c102 -47 141 -148 95
-248 -10 -24 -21 -43 -23 -43 -7 0 -241 259 -245 271 -5 14 57 38 98 38 19 0
53 -8 75 -18z m-76 -209 c56 -62 99 -117 96 -122 -3 -5 -21 -14 -41 -20 -81
-27 -183 20 -223 102 -26 55 -26 100 0 157 l20 45 23 -25 c13 -13 69 -75 125
-137z m-1012 102 c-9 -9 -28 6 -21 18 4 6 10 6 17 -1 6 -6 8 -13 4 -17z m166
-6 c54 -73 60 -176 15 -266 -18 -37 -29 -48 -50 -50 -28 -3 -38 11 -17 24 21
13 59 109 59 152 0 52 -22 108 -57 145 l-27 27 27 0 c18 0 34 -10 50 -32z
m-203 -7 c0 -14 -18 -23 -30 -16 -6 4 -8 11 -5 16 8 12 35 12 35 0z m100 -1
c0 -5 -4 -10 -10 -10 -5 0 -10 5 -10 10 0 6 5 10 10 10 6 0 10 -4 10 -10z
m-40 -14 c0 -8 -4 -17 -9 -21 -12 -7 -24 12 -16 25 9 15 25 12 25 -4z m1490
-23 c60 -26 104 -72 141 -145 45 -90 150 -333 354 -822 378 -909 415 -1013
456 -1291 24 -166 41 -520 37 -795 -3 -214 -3 -215 -25 -218 l-23 -3 0 233
c-1 434 -24 745 -71 948 -37 159 -120 383 -322 870 -36 85 -104 250 -152 365
-152 367 -256 608 -297 687 -61 118 -129 152 -293 146 -71 -2 -80 0 -83 16 -6
31 18 37 128 33 77 -3 117 -9 150 -24z m-1600 3 c0 -8 -4 -17 -9 -21 -12 -7
-24 12 -16 25 9 15 25 12 25 -4z m172 -1 c0 -5 -5 -11 -11 -13 -6 -2 -11 4
-11 13 0 9 5 15 11 13 6 -2 11 -8 11 -13z m708 -9 c0 -21 -6 -24 -54 -29 -88
-9 -161 -56 -185 -120 -23 -59 -11 -128 80 -475 140 -535 194 -741 279 -1072
151 -584 220 -846 254 -961 49 -165 62 -287 47 -446 -13 -149 -19 -173 -37
-173 -24 0 -26 20 -14 169 15 179 4 282 -46 446 -18 61 -76 277 -129 480 -137
528 -310 1189 -407 1555 -71 269 -83 327 -83 395 0 93 20 141 78 188 43 35
127 66 180 67 32 0 37 -3 37 -24z m-812 -8 c-6 -18 -28 -21 -28 -4 0 9 7 16
16 16 9 0 14 -5 12 -12z m-113 -28 c-5 -8 -11 -8 -17 -2 -6 6 -7 16 -3 22 5 8
11 8 17 2 6 -6 7 -16 3 -22z m175 16 c0 -8 -4 -17 -9 -21 -12 -7 -24 12 -16
25 9 15 25 12 25 -4z m62 -28 c-6 -6 -15 -9 -18 -5 -4 3 -4 14 0 23 5 13 9 15
18 6 9 -9 9 -15 0 -24z m-167 2 c0 -7 -6 -15 -12 -17 -8 -3 -13 4 -13 17 0 13
5 20 13 18 6 -3 12 -11 12 -18z m65 -16 c0 -16 -16 -19 -25 -4 -8 13 4 32 16
25 5 -4 9 -13 9 -21z m-110 -14 c0 -11 -4 -20 -9 -20 -11 0 -22 26 -14 34 12
12 23 5 23 -14z m174 12 c2 -4 0 -14 -5 -22 -8 -13 -10 -13 -18 0 -10 15 -6
30 9 30 5 0 11 -4 14 -8z m59 -35 c-3 -5 -10 -4 -15 1 -6 6 -7 16 -3 22 6 9 9
9 16 -1 4 -7 5 -17 2 -22z m-165 6 c-4 -22 -22 -20 -26 1 -2 10 3 16 13 16 10
0 15 -7 13 -17z m-108 -19 c0 -8 -4 -14 -10 -14 -5 0 -10 9 -10 21 0 11 5 17
10 14 6 -3 10 -13 10 -21z m170 1 c0 -8 -4 -15 -9 -15 -13 0 -22 16 -14 24 11
11 23 6 23 -9z m-105 -15 c0 -7 -6 -15 -12 -17 -8 -3 -13 4 -13 17 0 13 5 20
13 18 6 -3 12 -11 12 -18z m175 5 c0 -8 -7 -15 -15 -15 -8 0 -15 7 -15 15 0 8
7 15 15 15 8 0 15 -7 15 -15z m-110 -19 c0 -8 -4 -17 -9 -21 -12 -7 -24 12
-16 25 9 15 25 12 25 -4z m-109 -21 c-1 -15 -24 -12 -29 3 -3 9 2 13 12 10 10
-1 17 -7 17 -13z m171 0 c0 -5 -5 -11 -11 -13 -6 -2 -11 4 -11 13 0 9 5 15 11
13 6 -2 11 -8 11 -13z m-110 -27 c-6 -6 -15 -9 -18 -5 -4 3 -4 14 0 23 5 13 9
15 18 6 9 -9 9 -15 0 -24z m178 18 c0 -8 -4 -17 -9 -21 -12 -7 -24 12 -16 25
9 15 25 12 25 -4z m-110 -20 c0 -8 -4 -17 -9 -21 -12 -7 -24 12 -16 25 9 15
25 12 25 -4z m2047 -12 c1 -12 -16 -33 -49 -59 -74 -58 -90 -93 -85 -185 4
-84 35 -165 274 -729 176 -416 279 -678 308 -786 58 -211 83 -433 91 -785 6
-292 13 -330 65 -375 35 -29 67 -32 111 -9 25 13 32 14 39 2 5 -7 7 -17 6 -23
-6 -18 -71 -45 -111 -45 -34 0 -46 7 -86 49 -36 36 -50 60 -58 97 -6 27 -13
168 -16 314 -8 350 -35 578 -92 775 -32 109 -80 230 -276 700 -310 740 -308
735 -308 839 0 92 34 151 124 218 43 31 60 32 63 2z m-2147 -4 c0 -5 -7 -10
-15 -10 -8 0 -15 5 -15 10 0 6 7 10 15 10 8 0 15 -4 15 -10z m168 -2 c-6 -18
-28 -21 -28 -4 0 9 7 16 16 16 9 0 14 -5 12 -12z m-110 -19 c-2 -6 -8 -10 -13
-10 -5 0 -11 4 -13 10 -2 6 4 11 13 11 9 0 15 -5 13 -11z m72 -20 c0 -5 -7 -9
-15 -9 -15 0 -20 12 -9 23 8 8 24 -1 24 -14z m13 -47 c101 -4 107 -5 107 -26
0 -20 16 -42 119 -168 60 -72 177 -319 208 -438 16 -62 26 -135 30 -210 4
-101 13 -146 74 -375 83 -309 188 -690 270 -981 75 -267 90 -344 91 -474 2
-131 -34 -311 -57 -288 -3 3 2 43 12 89 23 111 23 287 -1 397 -10 46 -51 205
-92 355 -41 150 -113 409 -159 577 -46 168 -102 370 -125 450 -31 111 -43 173
-50 265 -15 218 -61 347 -175 495 -86 112 -171 178 -331 258 -75 37 -103 57
-108 74 -12 45 -8 48 37 25 34 -17 63 -22 150 -25z m1424 -898 c106 -50 159
-150 151 -279 -10 -154 -124 -259 -280 -258 -168 1 -287 130 -276 301 5 79 28
132 81 185 86 86 209 105 324 51z m293 -1464 c71 -20 72 -19 -65 -164 -71 -75
-132 -136 -136 -136 -13 0 -39 80 -39 118 1 96 89 187 185 191 11 1 36 -4 55
-9z m126 -102 c46 -89 6 -205 -88 -252 -28 -14 -64 -26 -78 -26 -28 0 -120 28
-120 37 0 8 253 273 261 273 5 0 16 -15 25 -32z m-1141 -506 c-6 -7 -168 48
-185 63 -47 42 -14 39 84 -9 56 -28 102 -52 101 -54z m-245 62 c0 -10 -12 -14
-47 -13 l-48 0 40 18 c43 20 55 18 55 -5z m130 -78 c47 -14 96 -26 110 -29 14
-2 -11 -5 -55 -5 -84 -2 -186 16 -245 41 l-35 15 70 1 c47 1 99 -7 155 -23z
m410 -51 l115 -13 -100 0 c-55 -1 -131 5 -170 12 l-70 14 55 0 c30 0 107 -5
170 -13z m1260 -13 c0 -4 -10 -9 -22 -9 -18 -2 -20 0 -8 7 18 12 30 13 30 2z"/>
<path d="M7492 7210 c-27 -23 -139 -60 -186 -61 -17 -1 -42 -4 -55 -8 l-25 -7
24 -22 c32 -29 118 -30 194 -2 53 20 147 92 135 104 -16 17 -65 15 -87 -4z"/>
<path d="M4717 7153 c-46 -3 -58 -7 -55 -20 3 -13 22 -15 127 -14 119 2 161
10 161 31 0 10 -104 11 -233 3z"/>
<path d="M7355 6954 c-11 -3 -30 -7 -41 -9 -42 -9 -49 -52 -49 -315 0 -228 1
-247 20 -280 30 -51 78 -71 209 -82 137 -13 201 -4 228 32 27 36 38 123 40
326 3 175 2 181 -22 229 -39 76 -83 94 -240 100 -69 2 -134 2 -145 -1z"/>
</g>
</svg>
